<svg xml:space="preserve" style="enable-background:new 0 0 529.22 131.61;" viewBox="0 0 529.22 131.61" y="0px" x="0px" xmlns:xlink="http://www.w3.org/1999/xlink" xmlns="http://www.w3.org/2000/svg" id="Layer_1" version="1.1">
<style type="text/css">
	.st0{fill:#333333;}
</style>
<g>
	<path d="M264.8,121.16c0-37.04,0-74.11,0-110.84c11.35,0,22.46-0.48,33.5,0.21c5.33,0.33,9.26,4.67,9.58,10.12
		c0.58,9.93,0.73,19.95,0.04,29.86c-0.24,3.53-3.42,6.85-5.46,10.66c6.82,3.62,7.79,10.64,7.63,18.26
		c-0.17,8.16,0.13,16.34-0.21,24.49c-0.48,11.7-6.73,17.63-18.39,17.78c-8.33,0.1-16.66,0.01-24.99-0.03
		C266.03,121.66,265.56,121.39,264.8,121.16z M281.22,71.12c0,10.64-0.07,21.4,0.13,32.15c0.02,0.86,1.74,2.27,2.82,2.44
		c5.66,0.87,8.43-1.6,8.51-7.41c0.09-6.32,0.05-12.64,0.03-18.96C292.68,71.16,290.28,69.34,281.22,71.12z M281.24,53.22
		c4.23,0.47,9.09,1.73,9.77-2.95c1.05-7.29,0.72-14.86,0.11-22.24c-0.11-1.34-4.29-2.6-6.76-3.35c-0.75-0.23-2.96,1.36-2.98,2.15
		C281.16,35.58,281.24,44.34,281.24,53.22z" class="st0"></path>
	<path d="M21.79,10.19c11.24,0,22.19-0.43,33.08,0.18c5.77,0.32,9.61,4.63,10.95,10.26c0.96,4.01,1.36,8.23,1.38,12.36
		c0.13,21.66,0.06,43.32,0.03,64.99c0,2.33-0.08,4.67-0.35,6.98c-1.25,10.97-7.05,16.46-18.03,16.72
		c-8.95,0.21-17.91,0.04-27.06,0.04C21.79,84.05,21.79,46.98,21.79,10.19z M38.94,24.64c0,26.97,0,53.64,0,80.27
		c9.27,0.77,10.85-0.55,10.88-9.28c0.06-20.48,0.06-40.96,0-61.44C49.79,25.37,48.28,24.06,38.94,24.64z" class="st0"></path>
	<path d="M413.76,79.36c5.98,0,11.09,0,16.93,0c0,5.83-0.03,11.43,0.02,17.04c0.02,1.99-0.36,4.33,0.54,5.87
		c1,1.72,3.24,3.72,4.96,3.74c1.63,0.02,4.41-2.15,4.74-3.75c1.6-7.78,1.8-15.66-3.15-22.54c-4.18-5.81-8.43-11.6-13.09-17.03
		c-9.56-11.16-11.26-24.24-9.59-38.04c1.21-10,7.8-15.72,17.87-16.18c4.14-0.19,8.38-0.19,12.44,0.5
		c7.59,1.28,11.73,5.89,12.35,13.57c0.43,5.3,0.35,10.66,0.21,15.98c-0.03,1.18-1.04,3.02-2.02,3.36
		c-4.35,1.52-8.86,2.61-14.23,4.11c0-5.85,0.02-10.93-0.01-16.01c-0.02-3.43-0.68-6.64-5-6.54c-3.91,0.1-4.59,3.16-4.86,6.35
		c-0.58,6.93,1.06,13.17,5.41,18.71c4.74,6.02,9.3,12.18,13.98,18.25c10.09,13.08,10.31,27.74,6.39,42.78
		c-1.93,7.38-7.37,11.76-15.06,12.8c-3.12,0.42-6.32,0.64-9.46,0.45c-12.9-0.82-19.22-7.57-19.38-20.57
		C413.69,94.74,413.76,87.28,413.76,79.36z" class="st0"></path>
	<path d="M74.18,121.73c1.69-13.99,3.29-27.17,4.88-40.35c2.67-22.13,5.45-44.25,7.92-66.4
		c0.48-4.27,1.68-6.29,6.31-5.74c3.45,0.41,7,0.25,10.48,0.03c3.08-0.2,4.4,0.82,4.8,4.02c4.41,34.99,8.95,69.97,13.45,104.94
		c0.1,0.81,0.14,1.63,0.3,3.43c-4.92,0-9.64,0.15-14.34-0.15c-0.8-0.05-1.96-1.94-2.14-3.11c-0.69-4.6-1.24-9.24-1.49-13.89
		c-0.18-3.26-1.61-4.39-4.72-4.08c-1.65,0.17-3.51-0.42-4.94,0.16c-1.45,0.59-3.31,2.05-3.54,3.38c-0.81,4.57-1.12,9.25-1.36,13.89
		c-0.14,2.64-0.97,4-3.84,3.88C82.33,121.62,78.69,121.73,74.18,121.73z M98.03,48.06c-0.36-0.02-0.72-0.03-1.08-0.05
		c-1.19,11.74-2.37,23.48-3.56,35.29c3.29,0,5.67,0,8.54,0C100.6,71.27,99.31,59.67,98.03,48.06z" class="st0"></path>
	<path d="M376.69,121.41c-5.29,0-9.88,0-15.02,0c0.76-6.79,1.42-13.21,2.21-19.62c3.57-29.23,7.26-58.44,10.67-87.69
		c0.46-3.93,1.87-5.12,5.6-4.84c3.81,0.28,7.66,0.21,11.49,0.02c3.01-0.15,3.94,1.09,4.31,3.99c4.43,34.66,9,69.3,13.51,103.95
		c0.17,1.28,0.02,2.6,0.02,4.46c-4.66,0-9.15,0.25-13.56-0.18c-1.1-0.11-2.61-2.27-2.86-3.68c-0.74-4.25-1.11-8.59-1.31-12.91
		c-0.16-3.34-1.44-4.54-4.9-4.52c-8.44,0.06-8.39-0.12-8.97,8.34C377.6,112.87,377.12,116.99,376.69,121.41z M385.52,48.11
		c-0.39-0.03-0.78-0.05-1.16-0.08c-1.2,11.72-2.4,23.45-3.66,35.69c3.28-0.15,5.66-0.26,8.53-0.39
		C387.94,71.19,386.73,59.65,385.52,48.11z" class="st0"></path>
	<path d="M352.66,55.04c0,5.95,0,11.08,0,16.84c-5.63,0-11.19,0-17.2,0c0,11,0,21.37,0,32.39c6.9,0,13.79,0,21.09,0
		c0,6.01,0,11.39,0,17.12c-12.55,0-25.11,0-37.93,0c0-37.4,0-74.6,0-111.96c12.46,0,24.56,0,37.06,0c0,5.29,0,10.33,0,16.17
		c-5.53,0-10.96,0.14-16.39-0.05c-3.2-0.11-4.44,0.91-4.34,4.26c0.21,7.15,0.15,14.32,0.02,21.48c-0.05,2.79,0.95,3.89,3.77,3.79
		C343.22,54.93,347.68,55.04,352.66,55.04z" class="st0"></path>
	<path d="M193.12,9.9c5.91,0,11.01,0,16.38,0c2.42,12.77,4.79,25.31,7.17,37.86c0.33,0.04,0.67,0.07,1,0.11
		c0.71-3.52,1.48-7.03,2.11-10.57c1.44-8.03,2.67-16.1,4.35-24.08c0.29-1.4,2.26-3.27,3.64-3.45c3.75-0.48,7.61-0.16,12.18-0.16
		c-1.19,5.63-2.21,10.76-3.36,15.86c-3.51,15.58-7.15,31.12-10.54,46.73c-0.66,3.05-0.55,6.29-0.56,9.45
		c-0.06,13.12-0.02,26.25-0.02,39.72c-5.8,0-11.05,0-16.7,0c-2.28-18.55,1.92-37.45-2.71-55.95
		C201.51,47.22,197.51,28.88,193.12,9.9z" class="st0"></path>
	<path d="M507.43,9.7c0,5.34,0,10.4,0,16.16c-4.44,0-8.67,0-13.45,0c0,32.23,0,63.77,0,95.54c-5.81,0-11.05,0-16.81,0
		c0-31.87,0-63.41,0-95.55c-4.58,0-8.66,0-13.14,0c0-5.64,0-10.7,0-16.15C478.41,9.7,492.76,9.7,507.43,9.7z" class="st0"></path>
	<path d="M176.7,104.42c8.05,0,15.32,0,22.99,0c0,5.81,0,11.19,0,16.94c-13.2,0-26.26,0-39.6,0c0-37.1,0-74.01,0-111.34
		c5.42,0,10.8,0,16.61,0C176.7,41.43,176.7,72.52,176.7,104.42z" class="st0"></path>
	<path d="M146.46,121.38c-5.42,0-10.66,0-16.31,0c0-37.1,0-74.13,0-111.61c5.28,0,10.63,0,16.31,0
		C146.46,46.98,146.46,84.01,146.46,121.38z" class="st0"></path>
</g>
</svg>
