<svg xml:space="preserve" style="enable-background:new 0 0 157.7 40;" viewBox="0 0 157.7 40" y="0px" x="0px" xmlns:xlink="http://www.w3.org/1999/xlink" xmlns="http://www.w3.org/2000/svg" id="Layer_1" version="1.1">
<style type="text/css">
	.st0{fill:none;}
	.st1{fill-rule:evenodd;clip-rule:evenodd;fill:#333333;}
</style>
<rect height="38.4" width="71.6" class="st0" y="-11.1" x="43.1"></rect>
<g>
	<path d="M13.3,39.2H0.1l0,0c-0.1,0-0.1-0.4,0-0.4l0,0h3.8l0-37.2l-3.8,0V1.3h11.3l0,0c4.8,0,10.8,0.9,11.1,8.8
		c0.2,7.8-6.4,9.2-9.4,9.2c4.8,0,10.7,3.6,10.7,10C23.8,34.4,19.5,39.2,13.3,39.2L13.3,39.2L13.3,39.2L13.3,39.2z M10.7,1.6l-2.2,0
		V19H12l0,0c3,0,5.5-3.2,5.5-8.7C17.5,4.1,14.7,1.6,10.7,1.6L10.7,1.6L10.7,1.6L10.7,1.6z M11.6,19.6H8.5l0,19.2h3.7l0,0
		c3.8,0,6-3.6,6-9.2C18.3,22.9,15.7,19.6,11.6,19.6L11.6,19.6L11.6,19.6L11.6,19.6z" class="st1"></path>
	<path d="M37.4,39.1v-0.3l4.1,0l-3-10.9h-10l-2.1,7.8l0,0c-0.5,1.9-0.7,3.1-0.7,3.1l0,0h4v0.3h-8.3v-0.3h3.8l0,0
		c0,0,0.2-1,0.7-3.1l0,0L35.6,0l11,38.8l3.8,0v0.3H37.4L37.4,39.1L37.4,39.1z M33.7,8.5l-5.1,19.1h9.7L33.7,8.5L33.7,8.5L33.7,8.5z" class="st1"></path>
	<path d="M53.1,39.1L69.3,1.4h-7.8l0,0C55.7,1.4,54.1,8.5,54,16c0,1-0.1,2.3-0.1,3.8c0,0-0.3,0-0.3,0l0,0l0-18.8h20.6
		l-16,37.9l7.1,0l0,0c6.9-0.2,8.3-5.2,8.5-19.1l0,0h0.3v19.3L53.1,39.1L53.1,39.1L53.1,39.1z" class="st1"></path>
	<path d="M156.2,39.5c-0.7,0.3-1.5,0.5-2.4,0.5c-3.9,0-5.2-2.9-5.1-10.4l0,0v-3.5l0,0c0-4.7-2.3-6.4-5.9-6.4l0,0h-3.5
		l0,19.2h4.5l0,0.2h-13l0-0.2l3.8,0l0-37.6l-3.8,0V0.9h12.2l0,0c5.9,0,10.8,1.6,10.9,9.4c0,6.5-5.3,9-9.4,9c6.1,0,9.7,2.6,9,10.3
		l0,0l-0.1,4.8l0,0c0,2.7,0.4,4.8,1.9,4.8c0.5,0,1-0.1,1.3-0.5c0.4-0.4,0.6-1,0.6-1.4c0-0.2,0.1-0.7,0.1-1.2c0,0,0-5.6,0-5.6
		c0,0,0.3,0,0.3,0l0,0l0,3.5l0,0c0,3.1,0,3.5-0.2,4.1C157.3,38.6,156.9,39.2,156.2,39.5L156.2,39.5L156.2,39.5L156.2,39.5z
		 M142.2,1.4h-2.8l0,17.7h3.5l0,0c3.9,0,5.8-2.4,6.1-8.6C149.3,3.8,145.9,1.4,142.2,1.4L142.2,1.4L142.2,1.4L142.2,1.4z" class="st1"></path>
	<path d="M91.9,39.1v-0.3l4.1,0L93,28H83l-2.1,7.8l0,0c-0.5,1.9-0.7,3.1-0.7,3.1l0,0h4v0.3H76v-0.3h3.8l0,0
		c0,0,0.2-1,0.7-3.1l0,0L90,0l11,38.9l3.8,0v0.3H91.9L91.9,39.1L91.9,39.1z M88.1,8.5L83,27.6h9.7L88.1,8.5L88.1,8.5L88.1,8.5z" class="st1"></path>
	<path d="M118.6,39.1v-0.3l4.1,0l-3-10.9h-10l-2.1,7.8l0,0c-0.5,1.9-0.7,3.1-0.7,3.1l0,0h4v0.3h-8.3v-0.3l3.8,0l0,0
		c0,0,0.2-1,0.7-3.1l0,0L116.8,0l11,38.8l3.8,0v0.3H118.6L118.6,39.1L118.6,39.1z M114.9,8.5l-5.1,19.1h9.7L114.9,8.5L114.9,8.5
		L114.9,8.5z" class="st1"></path>
	<polygon points="95.1,2.9 95.1,4.8 95.7,4.8 95.7,4.9 93.8,4.9 93.8,4.8 94.4,4.8 94.4,1 93.8,1 93.8,0.8 95.7,0.8 
		95.7,1 95.1,1 95.1,2.8 96.6,2.8 96.6,1 96.1,1 96.1,0.8 98,0.8 98,1 97.4,1 97.4,4.8 98,4.8 98,4.9 96.1,4.9 96.1,4.8 96.6,4.8 
		96.6,2.9 95.1,2.9 95.1,2.9" class="st1"></polygon>
	<path d="M99.7,2.8c0-0.2-0.3-0.2-0.4-0.2c-0.2,0-0.5,0.1-0.4,0.2c0,0,0.1,0.2,0.1,0.3c0,0.2-0.1,0.3-0.3,0.3
		c-0.2,0-0.3-0.1-0.3-0.3c0-0.5,0.6-0.6,0.9-0.6c0.2,0,0.5,0,0.7,0.2c0.2,0.1,0.2,0.2,0.2,0.4l0,0v1.6l0,0c0,0.1,0.1,0.1,0.1,0.1
		c0.1,0,0.2-0.1,0.2-0.1l0,0l0.1,0.1l0,0c-0.2,0.2-0.3,0.3-0.6,0.3c-0.3,0-0.4-0.2-0.5-0.4C99.5,4.9,99.2,5,98.8,5
		c-0.3,0-0.6-0.2-0.6-0.6c0-0.7,0.9-0.9,1.4-0.8l0,0V2.8L99.7,2.8L99.7,2.8z M99.7,3.7c-0.4,0-0.8,0-0.8,0.5c0,0.3,0.1,0.5,0.4,0.5
		c0.2,0,0.4-0.2,0.4-0.4c0-0.1,0-0.2,0-0.3l0,0V3.7L99.7,3.7L99.7,3.7z" class="st1"></path>
	<path d="M101.9,3.2c0.2-0.3,0.4-0.7,0.8-0.7c0.2,0,0.5,0.1,0.5,0.4c0,0.2-0.2,0.3-0.4,0.3c-0.1,0-0.3-0.1-0.3-0.3
		c0,0,0-0.1,0-0.1c0-0.1,0-0.1,0-0.1c-0.1,0-0.2,0.1-0.2,0.1c-0.2,0.2-0.4,0.6-0.4,1.4l0,0v0.6h0.5v0.2h-1.5V4.8h0.3V2.7h-0.4V2.5
		l0,0c0.3,0,0.7,0,1,0l0,0V3.2L101.9,3.2L101.9,3.2z" class="st1"></path>
	<path d="M104.2,3L104.2,3L104.2,3c0.1-0.3,0.4-0.5,0.7-0.5c0.6,0,1.1,0.6,1.1,1.3c0,0.6-0.5,1.3-1.1,1.3
		c-0.3,0-0.6-0.1-0.7-0.4l0,0h0v1.6h0.4v0.2h-1.4V6.2h0.4V2.7h-0.4V2.5l0,0c0.3,0,0.7,0,1,0l0,0V3L104.2,3L104.2,3z M105.3,3.1
		c0-0.3-0.1-0.5-0.4-0.5c-0.3,0-0.7,0.5-0.7,0.7l0,0v0.8l0,0c0,0.4,0.3,0.8,0.7,0.8c0.3,0,0.5-0.2,0.5-0.5l0,0V3.1L105.3,3.1
		L105.3,3.1z" class="st1"></path>
	<path d="M107,3.6v0.5l0,0c0,0.4,0,0.8,0.5,0.8c0.4,0,0.7-0.3,0.9-0.7l0,0h0.1l0,0C108.4,4.8,108,5,107.4,5
		c-0.6,0-1.1-0.6-1.1-1.3c0-0.7,0.5-1.3,1.2-1.3c0.5,0,1,0.4,1,1c0,0.1-0.1,0.1-0.1,0.1l0,0H107L107,3.6L107,3.6z M107.8,3.4
		c0-0.4,0.1-0.8-0.4-0.8c-0.5,0-0.4,0.4-0.4,0.8l0,0H107.8L107.8,3.4L107.8,3.4z" class="st1"></path>
	<path d="M109.7,3.2c0.2-0.3,0.4-0.7,0.8-0.7c0.2,0,0.5,0.1,0.5,0.4c0,0.2-0.2,0.3-0.4,0.3c-0.1,0-0.3-0.1-0.3-0.3
		c0,0,0-0.1,0-0.1c0-0.1,0-0.1,0-0.1c-0.1,0-0.2,0.1-0.2,0.1c-0.2,0.2-0.4,0.6-0.4,1.4l0,0v0.6h0.5v0.2h-1.5V4.8h0.3V2.7h-0.4V2.5
		l0,0c0.3,0,0.7,0,1,0l0,0V3.2L109.7,3.2L109.7,3.2z" class="st1"></path>
	<path d="M112,2c0,0.4-0.3,0.8-0.6,1c-0.1,0-0.1,0-0.1-0.1c0,0,0.1-0.1,0.1-0.1c0.2-0.1,0.4-0.5,0.4-0.8
		c0,0,0-0.3-0.1-0.3c-0.1,0-0.1,0-0.1,0.1c0,0.1-0.2,0.2-0.3,0.2c-0.2,0-0.3-0.2-0.3-0.4c0-0.3,0.2-0.4,0.4-0.4
		C111.8,1.3,112,1.6,112,2L112,2L112,2L112,2z" class="st1"></path>
	<path d="M112.1,4.9L112.1,4.9L112,4.1h0.2l0,0c0.1,0.4,0.3,0.8,0.7,0.8c0.3,0,0.5-0.2,0.5-0.5c0-0.3-0.3-0.3-0.6-0.4
		c-0.6-0.1-0.8-0.3-0.8-0.8c0-0.5,0.3-0.7,0.7-0.7c0.2,0,0.4,0.1,0.6,0.2l0,0l0.1-0.2h0.1v0.7h-0.2l0,0c0-0.3-0.3-0.6-0.6-0.6
		c-0.2,0-0.5,0.1-0.5,0.4c0,0.2,0,0.2,0.6,0.3c0.5,0.1,0.8,0.2,0.8,0.8c0,0.6-0.3,0.8-0.8,0.8c-0.2,0-0.4-0.1-0.6-0.3l0,0L112.1,4.9
		L112.1,4.9L112.1,4.9z" class="st1"></path>
</g>
</svg>
