<svg xml:space="preserve" style="enable-background:new 0 0 150.3 80;" viewBox="0 0 150.3 80" y="0px" x="0px" xmlns:xlink="http://www.w3.org/1999/xlink" xmlns="http://www.w3.org/2000/svg" id="Layer_1" version="1.1">
<style type="text/css">
	.st0{fill-rule:evenodd;clip-rule:evenodd;fill:#333333;}
	.st1{fill:none;}
</style>
<path d="M25.4,0.4v1.5l1.5,0.4c2.2,0.4,2.6,1.9,3.4,6.4l2.2,12.3l-6.7,35.9l-9-44.9c-1.1-4.9-1.5-8.6,2.2-9.3l2.2-0.7
	V0.4H0v1.5l2.2,0.4c2.2,0.4,3,1.5,4.9,8.6l14.6,68.8h3.7l9.7-52L46,80h3l13.5-66.9c1.5-7.9,2.2-9.7,4.9-10.5l2.2-0.7V0.4H53.8v1.5
	l2.2,0.4c3.4,0.7,4.1,3,2.6,11.6l-8.6,42.6l-8.6-45.2c-1.1-4.5-1.5-8.6,2.2-9.3h2.6V0.4H25.4z M127.5,0.4v1.5l3,0.7
	c2.6,0.4,3.4,1.5,3.4,4.9v55.7c0,6,0,14.2-6.4,14.2c-3.7,0-6.7-3.4-6.4-5.2c0.4-3.4,6.4-3.4,6.7-9.3c0.4-4.1-2.2-6-4.9-6
	c-3.4-0.4-7.9,2.6-7.9,8.6c0,7.9,4.9,14.6,13.5,14.6c9.7,0,15.7-6.4,15.7-18.7V7.5c0-3.4,0.7-4.1,3-4.9l3-0.7V0.4H127.5z M89,0
	c-9.7,0-15.3,8.2-15.3,18.7c0,19.8,25.8,27.7,25.8,45.2c0,8.6-3.4,13.1-8.6,13.1c-7.9,0-13.1-9.3-14.6-24.3h-1.5v26.2h1.5
	c1.1-3.7,2.6-4.1,4.1-4.1c2.2,0,4.5,4.9,11.2,4.9c10.1,0,16.8-9,16.8-20.9c0-23.9-25.8-29.5-25.8-46.7c0-4.1,1.1-9.7,6.7-9.7
	c8.2,0,11.6,10.8,13.1,24.3h1.5V0.4h-1.5c-0.4,2.6-1.5,3.7-3,3.7C96.8,4.1,95.3,0,89,0L89,0z M107.3,22.4L107.3,22.4L107.3,22.4
	L107.3,22.4L107.3,22.4z" class="st0"></path>
<rect height="38.4" width="72.6" class="st1" y="-8.5" x="40.1"></rect>
</svg>
