<svg xml:space="preserve" style="enable-background:new 0 0 322.3 40;" viewBox="0 0 322.3 40" y="0px" x="0px" xmlns:xlink="http://www.w3.org/1999/xlink" xmlns="http://www.w3.org/2000/svg" id="Layer_1" version="1.1">
<style type="text/css">
	.st0{fill-rule:evenodd;clip-rule:evenodd;fill:#333333;}
</style>
<g>
	<path d="M19.5,11.1l8.4,18.7l8.4-18.7c2.5-5.3,3.3-8.9,3.8-10.6h10.6v2.3c-3.5,0.3-4.3,1.8-4.3,4.3
		c0,0.8,0,1.5,0.3,2.3l2.8,22c0.5,3.3,1.8,5.1,5.8,5.6v2H38.5v-2c3.3,0,5.1-1.8,5.1-4.8c0-0.5,0-0.8,0-1.3L41,8.1l-8.9,20.8
		c-1.8,3.8-2.8,6.6-3.8,10.1h-2.3c-1.3-3.5-3-7.1-4.3-9.9L11.6,8.4l-3,20.3c-0.5,1-0.5,2-0.5,2.8c0,3.8,1.8,5.1,5.3,5.3v2H0v-2
		c3.3,0,4.8-1.8,5.3-5.8l3.3-21c0.3-1,0.3-2,0.3-2.8c0-3-1.3-4.6-4.3-4.8V0.5h11.1C16.5,3.3,17.7,7.1,19.5,11.1z M75.7,39
		c-8.9-2.3-14.9-9.6-14.9-18.7C60.8,8.1,69.4,0,79.7,0c2,0,4.1,0.3,6.1,0.8c8.6,2.3,14.7,9.1,14.7,18.7c0,12.2-8.4,20.5-19,20.5
		C79.7,39.5,77.7,39.5,75.7,39z M67.3,16.5c0,7.8,5.1,20.5,15.2,20.5c8.1,0,11.9-6.8,11.9-14.2c0-7.8-5.1-20.5-15.2-20.5
		C71.1,2.5,67.3,9.4,67.3,16.5z M110.9,5.1c-1.8-1.8-3-2-5.3-2.3V0.5h9.1l29.1,29.4V11.4c0-4.3-1-8.6-6.6-8.6V0.5h15.2v2.3
		c-4.3,0-6.1,3.5-6.1,8.6v17c0,4.8,0,7.1,0.5,11.4h-2.8c-1.8-2.3-3.3-4.1-4.6-5.3l-23.3-24.1v19.5c0,5.1,2.3,7.1,6.8,7.1v2h-16.2v-2
		c4.8,0,6.8-1.5,6.8-5.8V7.6L110.9,5.1z M172.4,39c-8.9-2.3-14.9-9.6-14.9-18.7c0-12.2,8.6-20.3,19-20.3c2,0,4.1,0.3,6.1,0.8
		c8.6,2.3,14.7,9.1,14.7,18.7c0,12.2-8.4,20.5-19,20.5C176.2,39.5,174.2,39.5,172.4,39z M164.1,16.5c0,7.8,5.1,20.5,15.2,20.5
		c8.1,0,11.9-6.8,11.9-14.2c0-7.8-5.1-20.5-15.2-20.5C167.8,2.5,164.1,9.4,164.1,16.5z M239.2,10.1c-3-4.8-8.9-7.6-13.9-7.6
		c-8.4,0-13.7,7.1-13.7,15.9c0,8.6,5.3,18.5,15.7,18.5c6.6,0,9.9-4.1,12.4-9.9h2.8l-2.3,9.9c-3.5,1.5-9.1,2.8-13.4,2.8
		c-3.5,0-6.8-0.5-10.1-1.8c-6.6-2.8-11.4-8.6-11.4-17.2c0-12.7,9.6-20.8,22-20.8c3,0,8.4,0.5,11.6,1.3l2.5,8.6L239.2,10.1z
		 M248.9,2.8V0.5h18.7v2.3c-5.3,0-6.3,2.3-6.3,5.3v21c0,5.1,2,7.3,7.6,7.3h1c5.1,0,8.1-2,11.1-7.1h2.3l-2.3,9.4h-32.2v-2
		c5.3-0.3,6.3-1.5,6.3-6.3v-22C255.4,4.6,254.2,2.8,248.9,2.8z M287.1,39v-2c4.3,0,6.1-1.8,6.1-5.8V8.4c0-3.8-1.5-5.8-6.1-5.8v-2
		h32.4v8.6h-2c-2-5.1-4.3-6.1-9.1-6.1H299v15.4h5.3c5.3,0,7.1-0.8,7.3-4.8h2.3v12.4h-2.3c-0.8-4.3-2.3-5.1-7.1-5.1H299v8.6
		c0,5.3,1.5,7.1,6.6,7.1h2.5c6.3,0,9.1-1.8,11.6-7.1h2.5l-2.5,9.4H287.1z" class="st0"></path>
</g>
</svg>
