<svg xmlns="http://www.w3.org/2000/svg" fill="none" viewBox="0 0 44 42" height="42" width="44">
<path fill="#333333" d="M22 37.5754V42H14V1H22V5.42463H18.2299V19.2878H22V23.7122H18.2299V37.5754H22Z" clip-rule="evenodd" fill-rule="evenodd"></path>
<path fill="#333333" d="M26 42H34V37.5754H30.23V1H26V42Z" clip-rule="evenodd" fill-rule="evenodd"></path>
<path fill="#333333" d="M36 1H44V5.42463H40V19.2878H44V23.7122H40V42H36V1Z" clip-rule="evenodd" fill-rule="evenodd"></path>
<path fill="#333333" d="M11.1634 4.64475V0C7.54861 0 3.24258 2.27299 1.64785 6.0283C0.0531277 9.7836 0.956896 14.7249 3.61477 19.9625C7.65487 26.5834 9.88772 35.9717 0 37.2565V42C3.61477 42 9.03678 39.4304 10.8443 35.3786C12.6519 31.327 12.7581 26.3859 8.08019 17.5905C5.42231 12.5504 3.61477 5.73145 11.1634 4.64475Z" clip-rule="evenodd" fill-rule="evenodd"></path>
</svg>
