<svg xml:space="preserve" style="enable-background:new 0 0 153.9 40;" viewBox="0 0 153.9 40" y="0px" x="0px" xmlns:xlink="http://www.w3.org/1999/xlink" xmlns="http://www.w3.org/2000/svg" id="Layer_1" version="1.1">
<style type="text/css">
	.st0{fill:#333333;}
</style>
<g>
	<path d="M45.4,0.1c-4.9,0-9.2,2.7-12.1,6.5c-2.9,3.8-4.4,8.7-4.4,13.5c0,5,1.5,10.1,4.7,14c2.8,3.4,7.1,6,11.6,6
		c4.8,0,9.1-2.7,12-6.5c2.9-3.8,4.4-8.7,4.4-13.5c0-5-1.6-10.1-4.7-14C54.2,2.7,49.9,0.1,45.4,0.1z M45.3,39.4
		c-7.5,0-9.5-13.8-9.5-19.4c0-5.5,2-19.4,9.5-19.4c7.5,0,9.5,13.8,9.5,19.4C54.8,25.6,52.8,39.4,45.3,39.4z" class="st0"></path>
	<path d="M32.9,1.3V0.9h-7.3v0.4h3.4L20.4,29L10.2,1.3h3.3V0.9H0v0.4h3.6l14,38.3l12-38.3H32.9z" class="st0"></path>
	<path d="M84,23.5h3.5v10.2v0.1c0,0.7,0,1.4-0.4,2c-1.4,2.3-4.2,3.6-6.9,3.6c-3.3,0-5.1-1.6-6.4-4.8
		c-1.8-4.6-2.2-9.6-2.2-14.5c0-5.5,0.7-19.7,8.7-19.7c3.5,0,6.1,3,7.8,5.7c1.4,2.3,2.2,4.9,2.8,7.5h0.3V0.3H91
		c-0.9,0.7-2,1.5-3.2,1.5c-1,0-2-0.3-2.9-0.7l-0.8-0.3C83,0.4,81.9,0,80.7,0c-3,0-5.8,1.3-8.1,3.1c-5.2,4-7.6,10.8-7.6,17.2
		c0,8.8,5.3,19.3,15.2,19.3c2.2,0,4-0.6,6-1.5l0.9-0.5c1-0.5,2-0.9,3.1-0.9c1.5,0,2.7,0.8,3.5,2.1h0.3V23.5h3v-0.4H84L84,23.5
		L84,23.5z" class="st0"></path>
	<path d="M153.6,24.4c-0.1,1.4-0.2,2.8-0.4,4.2c-0.4,2.5-1.7,4.8-3.5,6.5c-2.1,2.1-5,3.3-8,3.3H136V19.6
		c0.7-0.1,1.4-0.1,2-0.1c4.3,0,6,4,6.6,7.7h0.3V11.7h-0.3c-0.2,4.1-1.4,7.4-6.2,7.4c-0.8,0-1.6-0.1-2.4-0.1V1.3h3.8
		c3.5,0,7,0.3,9.5,3.1c2.5,2.8,3.2,6.6,3.6,10.2h0.3V0.9h-35.1v0.4h4.3v29.3c0,4.6-3.8,7.7-8.3,7.7c-4.2,0-8.9-2.8-8.9-7.4V1.3h3.6
		V0.9H95.1v0.4h3.7v28.2c0,7,6.7,10,12.9,10c5.4,0,11.2-2.7,11.2-8.8V1.3h6.7v37.2h-3.2v0.4h27.5V24.4H153.6z" class="st0"></path>
</g>
</svg>
