<svg xml:space="preserve" style="enable-background:new 0 0 152.9 40;" viewBox="0 0 152.9 40" y="0px" x="0px" xmlns:xlink="http://www.w3.org/1999/xlink" xmlns="http://www.w3.org/2000/svg" id="Layer_1" version="1.1">
<style type="text/css">
	.st0{fill:#333333;}
</style>
<path d="M74,10.9c-1.3,0-2,0.1-3,0.6c-1.9,0.9-3.3,2.3-4.6,4.6l-0.4,0.7l0.1-1.3c0-0.7,0.1-2,0.1-2.9l0.1-1.6H66
	c-0.3,0-11.2,2.2-11.6,2.3c-0.2,0.1-0.2,0.2-0.2,0.7c0,0.5,0,0.6,0.2,0.7c0.1,0,0.6,0.1,1.1,0.2c1,0.2,1.3,0.3,1.6,0.9
	c0.7,1,0.9,2.7,0.9,9.9c0,5.9-0.1,8.9-0.4,9.8c-0.3,1.1-1,1.7-2,1.9c-0.3,0.1-0.8,0.2-1,0.2l-0.4,0.1l0,0.8c0,0.5,0,0.8,0.1,0.9
	c0.1,0,3.8,0.1,8.3,0.1l8.1,0l0-0.9c0-0.5,0-0.9-0.1-0.9c-0.6,0-2.6-0.3-2.9-0.4c-0.9-0.4-1.4-1.2-1.6-2.9c-0.2-2-0.4-6.8-0.3-10.8
	c0.1-4,0.1-4.1,0.3-4.3c0.6-0.6,2.1-1.1,3.4-1.1c1.1,0,2.2,0.3,3.4,0.8c0.6,0.3,1.1,0.5,1.2,0.4c0.1-0.1,2.8-7.1,2.8-7.4
	C77.1,11.4,75.5,10.9,74,10.9z M54.2,23.1c-0.6-4.9-2.6-8.4-6.1-10.5c-3.8-2.2-9.6-2.4-13.7-0.3c-3,1.5-5.4,4.3-6.4,7.6
	c-1.1,3.4-1.1,7.8,0,11.3c0.7,2.2,1.7,3.8,3.2,5.3c1.8,1.8,4.1,2.9,6.8,3.3c1,0.1,4,0.1,5,0c0.5-0.1,1.3-0.2,1.8-0.4
	c4.8-1.4,8.1-5.1,9.3-10.4C54.3,27.8,54.4,24.6,54.2,23.1z M42,37.8c-3,0.9-5.2-2-6-8c-0.3-1.9-0.3-7.2,0-9.4
	c0.6-4.8,2.1-7.3,4.4-7.3c1.1,0,1.6,0.3,2.5,1.1c2,2,2.9,5.8,2.9,11.7c0,4.7-0.5,7.7-1.5,9.8C43.7,36.6,42.8,37.5,42,37.8z
	 M14.5,3.7H18c4,0,4.6,0.1,6,0.8c2,1,3.5,3,4.8,6.4c0.5,1.4,0.5,1.4,1.7,1l0.8-0.2l-0.1-5.1c0-2.8-0.1-5.3-0.1-5.5l-0.1-0.4l-15.2,0
	c-8.3,0-15.3,0-15.5,0L0,0.8l0,0.9l0,0.9l1.2,0.1c1.5,0.2,2.4,0.6,2.9,1.4c1.2,1.7,1.4,4.1,1.4,15.4c0,12-0.3,14.9-1.4,16.5
	c-0.6,0.8-1.1,1-2.4,1.3C0,37.6,0,37.6,0,38.5c0,0.5,0,0.8,0.1,0.8c0.2,0.1,19.6,0.1,19.8,0c0.3-0.1,0.2-1.5,0-1.7
	c-0.1-0.1-0.8-0.2-1.5-0.3c-0.7-0.1-1.5-0.3-1.7-0.4c-1.3-0.6-2-2.1-2.2-4.8c-0.2-2-0.3-5.6-0.3-8.3v-2.5l1.2,0
	c2.5,0.1,3.8,0.2,4.3,0.4c1.1,0.5,2.1,1.9,2.5,3.9l0.3,1l0.9,0l0.9,0V13.5l-0.9,0l-0.9,0l-0.3,1c-0.5,2-1.3,3.3-2.6,3.8
	c-0.5,0.2-0.8,0.3-2,0.4c-0.8,0-1.9,0.1-2.5,0.1l-1,0l0-3.3c0-3.3,0.2-10.2,0.3-11.3L14.5,3.7z M152.2,27c-0.9-1.8-2.6-3.1-6.2-4.6
	c-2.9-1.2-4.4-2.1-5.3-3c-0.7-0.8-0.9-1.4-0.9-2.6c0.1-1.1,0.3-1.7,1-2.5c0.9-0.9,2.1-1.3,3.5-1c2.4,0.5,3.9,2.1,5.2,5.6
	c0.5,1.2,0.5,1.3,1.4,1l0.5-0.2l0-1.4c0-0.8-0.1-2.4-0.1-3.7l-0.1-2.2l-0.4-0.2c-2.2-0.9-6.3-1.5-9-1.2c-3.1,0.3-5.3,1.3-7.1,3.1
	c-1.7,1.8-2.5,3.9-2.4,6.4c0.1,2.1,0.7,3.5,2,4.8c1.2,1.2,2.2,1.8,5,2.9c4.6,1.8,5.8,2.8,5.8,5c0,1.9-1,3.2-2.8,3.8
	c-0.6,0.2-2.3,0.2-3.1,0c-2.3-0.6-4-2.6-5.5-6.2l-0.4-0.9l-0.4,0c-0.2,0-0.6,0.1-0.7,0.2l-0.3,0.1l0,1.6c0,0.9,0.1,2.7,0.1,4.1
	l0.1,2.5l0.5,0.2c1,0.4,4.2,1.1,6.1,1.3c0.2,0,1.6,0,3,0c2.4,0,2.6,0,3.8-0.4c3.6-0.9,5.9-2.9,6.9-6c0.3-0.9,0.4-1.2,0.4-2.6
	C152.9,29.2,152.8,28.2,152.2,27z M124.5,12c-3-1.5-7.7-1.4-11.1,0.3c-3.2,1.6-5.5,4.2-6.7,7.9c-0.6,1.9-0.9,3.5-0.8,6
	c0,1.6,0.1,2.4,0.3,3.1c1.3,5.7,5.2,9.6,10.6,10.5c1.2,0.2,3.9,0.2,5.1,0c1.7-0.3,3.7-1.1,5-1.9c1.5-1,3.1-2.6,3.1-3.1
	c0-0.3-0.5-1-0.8-1c-0.1,0-0.5,0.2-0.9,0.5c-1.5,1-2.9,1.4-4.9,1.4c-2.8,0-4.5-0.7-6.3-2.5c-0.8-0.8-1.1-1.2-1.5-2
	c-0.9-1.7-1.4-3.7-1.4-5.9l0-1l8.1,0l8.1,0l0-0.5c0-0.3,0-1.1-0.1-1.8C129.9,17.1,127.9,13.7,124.5,12z M116.3,22l-2.1,0l0-0.4
	c0-0.2,0.1-0.9,0.2-1.4c0.7-4.4,2.3-7.1,4.4-7.1c1.9,0,3.1,2.6,3.3,7.4l0.1,1.4l-1.9,0.1C119.2,22,117.4,22,116.3,22z M95,11.5
	c-0.6-0.1-1.2-0.2-2.5-0.1c-1.9,0.1-3.2,0.4-4.6,1c-0.5,0.2-0.9,0.4-0.9,0.4c0,0,0-2.9,0-6.4C87,1.4,87,0,86.9,0
	c-0.4,0-11.6,2.1-11.7,2.2c-0.1,0.1-0.1,0.3-0.1,0.7c0,0.6,0,0.6,1.3,0.9c0.4,0.1,0.9,0.3,1.1,0.4c0.5,0.3,0.8,1,1.1,2
	c0.2,0.8,0.2,1.4,0.3,6.7c0.1,5.5,0.1,11.1-0.1,21.5l-0.1,4.3l0.8,0.2c1.2,0.3,4.5,0.8,5.6,0.9c1.6,0.2,5.3,0.1,6.5,0
	c5.2-0.8,9-3.8,10.9-8.4c0.5-1.2,0.9-3.1,1.1-4.5c0.2-1.6,0.1-4.9-0.2-6.2C102.4,15.8,99.2,12.3,95,11.5z M87.2,37.4
	C87,37,86.9,24.2,86.9,19l0.1-4l0.7-0.2c0.5-0.1,1.1-0.2,1.7-0.2c0.9,0,1.1,0,1.8,0.4c1.9,0.9,3.2,3.3,3.8,6.8
	c0.2,1.3,0.2,4.9,0,6.4c-0.5,3.8-1.7,6.9-3.4,8.4c-0.7,0.6-1.3,0.9-2.1,1.1c-0.6,0.1-0.8,0.1-1.8,0C87.4,37.7,87.3,37.6,87.2,37.4z" class="st0"></path>
</svg>
