<svg viewBox="0 0 223.7 40" version="1.1" xmlns="http://www.w3.org/2000/svg" id="Layer_1">
  
  <defs>
    <style>
      .st0 {
        fill: #333;
      }
    </style>
  </defs>
  <path d="M204.6,27.1l-.6,3.1h-10.7l.5-3.1c1.6,0,1.9-.1,2.1-1.6l1.2-7.7c.2-1.3-.6-1.8-1.4-1.8-1.5,0-3.2,1.6-3.4,3.5l-1,6.2c-.1.9,0,1.3,1.8,1.3l-.5,3.1h-10.8l.6-3.1c2,0,2.3-.3,2.5-1.5l1.3-7.9c0-.6,0-.6-.4-.6h-2.4l.5-2.7,9.7-4.2.3.3-.4,2.4c1.8-1.6,3.7-2.7,6-2.7s4.6,2.6,4.6,5.4,0,1.2-.2,2.1l-1.3,7.8c-.2,1.3,0,1.6,2.1,1.6" class="st0"></path>
  <path d="M165.5,11.2l-1.8,3.9c-.8-.3-1.7-.4-2.2-.4h-2.2l-1.5,9.1c-.3,1.6,0,1.9.9,1.9s1.9-.5,3.5-2l1.4,2.8c-2,2.1-4.5,4.3-7.7,4.3s-4.9-1.9-4.9-5,.1-1.5.2-2.2l1.4-9h-2.5s.6-3.4.6-3.4h2.4s.6-3.6.6-3.6l6.6-2.7.4.4-.9,5.8h5.7Z" class="st0"></path>
  <path d="M152.7,1.4c-.8,2.6-1.6,6.3-2,8.9h-3.8c.4-1.3.5-2.1.5-2.8,0-1.7-1.9-2.7-4.7-2.7s-4.8,1.5-4.8,3.3c0,1.7.6,2.5,2.8,4l3.8,2.7c3.6,2.5,5.7,4.9,5.6,9-.1,6.8-5.8,10.2-13.1,10.2s-2.9-.4-4.1-.7c-1-.2-2-.6-3-.6s-1.6.2-2.2.6l-.6-.3c-.5-3.3-1.2-6.9-1.8-9.6l4-1c1.1,5,3.2,7.2,8.2,7.2s5-1.6,5.1-4.2c0-2.5-1.2-3.5-3.6-5-1-.7-2.1-1.3-3-2-1-.7-1.9-1.4-2.7-2.2-1.6-1.6-2.6-3.8-2.6-6.8,0-5.3,4.9-9.1,11.3-9.1s4.8.7,7.2.8c.8,0,2.2-.1,3-.4l.6.4Z" class="st0"></path>
  <path d="M83.8,4.6c0,2.5-2.7,4.7-5.6,4.7s-3.1-.6-3.1-2.6c0-3,3.1-5,5.6-5s3.1,1.1,3.1,3" class="st0"></path>
  <path d="M83.2,10.5l-2.4,14.8c-.3,1.7-.3,1.8,2.1,1.8l-.5,3.1h-11.2l.5-3.1c1.8,0,2.4-.4,2.5-1.4l1.2-8.1c0-.5,0-.5-.4-.5h-2.6l.5-2.7,10-4.2.3.3Z" class="st0"></path>
  <path d="M73.2,1.2l-3.9,24c-.3,1.8,0,2,1.7,2l-.5,3.1h-10.9l.5-3.1c1.9,0,2.4-.4,2.6-1.7l2.7-16.9c0-.6,0-.6-.4-.6h-2.5l.5-2.8,10-4.2.3.3Z" class="st0"></path>
  <path d="M223.7,17.3l-12.2,5.6c.2,2.1,1.4,3.5,3.3,3.5s2.7-1.1,2.7-1.6-.1-.5-.2-.6c-.1-.2-.3-.3-.3-.6s0-.3.2-.5c.5-.6,1.6-1.2,2.7-1.2s2.7,1.1,2.7,2.7c0,3.5-3.4,6.4-8.8,6.4s-9.1-3.2-9.1-9.3,4.6-11.4,10.7-11.4,7.5,2.6,8.3,7.1M217.3,16.3c0-1.8-.8-2.3-1.8-2.3s-2.9,1.4-3.5,4.6l5.3-2.4Z" class="st0"></path>
  <path d="M183.1,18.8c0,6-4.3,12-11.2,12s-8.5-2.9-8.5-9,4.6-11.8,11.1-11.8,8.6,3.2,8.6,8.8M176.2,17.2c0-2.2-.7-3.2-2-3.2-1.9,0-4,4-4,9.8s.7,3.2,2,3.2c2,0,4-4.7,4-9.7" class="st0"></path>
  <path d="M129.9,12.6c0,1.3-1.1,2.8-2.2,2.8s-.5-.3-.7-.5c0-.1-.2-.3-.5-.4-.2,0-.3,0-.5,0-1.2,0-2,1.3-2,2.5s0,.5,0,.8c0,1.3-.4,2.5-1,3.6-1.5,2.5-4.7,4.5-8.1,4.5s-2.6-.1-3.6-.5c-.2.2-.3.5-.3.8,0,.8.6,1,1.6,1,2.1,0,4.4-.3,6.4-.3,3.3,0,5.6,1.6,5.6,4.6,0,5.4-8.7,8.6-16.4,8.6s-8.9-1.3-8.9-5.2,1.1-3.4,3.6-4.6h-9l.5-3.1c1.8,0,2-.2,2.2-1.3l1.2-8c.1-1-.5-1.7-1.4-1.7-1.6,0-3.2,1.8-3.4,3.2l-1,6.6c-.1.8,0,1.2,1.8,1.2l-.5,3.1h-10.4l.5-3.1c1.8,0,1.8-.3,2-1.2l1.3-8.2c0-.6,0-.6-.4-.6h-2.6l.5-2.8,9.9-4.1.3.3-.4,2.4c2-1.7,4-2.7,5.8-2.7,3.4,0,4.7,2.3,4.7,5.7s0,1-.1,1.3l-1.4,8.5c-.2,1,.6,1.3,1.6,1.4.5-1.9,1.9-2.9,3.6-3.6-1-1-1.9-2.4-1.9-4.9,0-5.4,4.9-8.7,9.8-8.7s5,.8,6.6,3.1c1.1-2,2.7-3.1,4.4-3.1s2.7,1,2.7,2.6M117.5,15.8c0-1.4-.4-2.1-1.3-2.1-2,0-2.9,3.8-2.9,6s.3,2.2,1.4,2.2c1.8,0,2.8-4.1,2.8-6.2M116.9,33.3c0-.5-.4-.8-1.4-.8s-2.8.2-3.9.2c-1.9,0-3.6-.3-5.1-1-.8.6-1.2,1.3-1.2,2.3s1.7,2.4,3.6,2.4c5,0,8.1-1.8,8.1-3" class="st0"></path>
  <path d="M50.8,18.8c0,6-4.3,12-11.2,12s-8.6-3.1-8.6-9.1,4.7-11.7,11.1-11.7,8.6,3.2,8.6,8.8M43.9,17.2c0-2.2-.7-3.2-2-3.2-1.9,0-4,4-4,9.8s.7,3.2,2,3.2c2,0,4-4.7,4-9.7" class="st0"></path>
  <path d="M61.8,1.3l-4,24.4c-.2,1-.2,1.4,1.7,1.4l-.5,3.1h-3.3c2.2.8,3.6,2.1,3.6,3.8,0,3.3-3.2,5.9-11.6,5.9-15.6,0-25.9-8.1-29.4-20h-2.8c0,.1-1.2,7.6-1.2,7.6-.2,1.4-.2,1.9,2.4,2.1h1.8c0,.1-.7,3.8-.7,3.8-2.5-.2-5.4-.3-8.2-.3-2.6,0-5.2.1-7.8.3l.6-3.7c.7,0,1.1,0,1.6,0,.4,0,.8-.1,1.2-.2.7-.2,1.3-.7,1.4-1.6l3.8-23c-1.3.2-2.4.6-3.2.9-.8.3-1.8,1.2-1.8,1.8s0,.5.2.6c.1.2.3.4.3.7s0,.3-.2.5c-.5.7-1.8,1.2-3,1.2s-2.7-1.1-2.7-2.8C0,3.5,5.4,1.8,8.8,1.1c3.5-.7,8.3-1.1,11.7-1.1,7.9,0,13.7,2.5,13.7,8.7s-3.9,8.5-8.1,9.9c3.2,9.9,10.9,17.4,20.9,17.4s5.1-1.6,5.1-3.2-1.3-2.5-2.5-2.5h-1.6l.6-3.1c1.1,0,2.3,0,2.5-1.2l2.8-17.6c0-.3,0-.4-.4-.4h-2.6l.5-2.8,9.9-4,.3.3ZM26.2,9c0-3.2-2.2-5.2-5.1-5.2s-2.4.1-3,.2l-2,12.3c.4,0,1,0,1.3,0,4.8,0,8.8-3.1,8.8-7.3" class="st0"></path>
</svg>