<svg viewBox="0 0 926 438" xmlns="http://www.w3.org/2000/svg" id="Layer_1"><defs><style>.cls-1{fill:#f7f4f1;}</style></defs><g><path d="M598.7,349.81c.14-.27,.54-1.07,1.2-2.4,.65-1.33,1.45-2.97,2.4-4.92,.94-1.95,1.97-4.1,3.08-6.45,1.1-2.35,2.2-4.65,3.28-6.92,1.08-2.26,2.08-4.39,3-6.37s1.65-3.6,2.2-4.85c1.01,0,1.95-.1,2.84-.29,.58-.12,1.13-.27,1.64-.43,.51-.17,1.01-.34,1.49-.52-.08,1.19-.13,2.87-.16,5.06-.03,2.19-.04,4.62-.02,7.3,.01,2.68,.05,5.48,.11,8.39,.06,2.91,.12,5.71,.17,8.38,.05,2.67,.12,5.09,.21,7.25,.09,2.16,.16,3.78,.22,4.86-.67,.06-1.36,.16-2.06,.31s-1.49,.31-2.38,.5c-.85,.18-1.64,.34-2.38,.5-.74,.15-1.42,.34-2.06,.55,.1-1.67,.16-3.61,.18-5.82,.03-2.2,.02-4.49,0-6.87-.03-2.37-.09-4.77-.17-7.2-.08-2.42-.19-4.75-.33-6.98-1.32,2.57-2.6,5.13-3.85,7.67-1.25,2.54-2.46,5.14-3.64,7.81-1.16,2.54-2.23,5.05-3.18,7.53-.96,2.48-1.92,4.99-2.88,7.53-.16,0-.31,0-.45,0-.14,0-.31,.03-.5,.07-.19,.04-.36,.08-.49,.13-.13,.05-.27,.11-.42,.18-.54-1.22-1.19-2.63-1.97-4.25-.78-1.61-1.61-3.28-2.49-4.99-.88-1.71-1.77-3.43-2.65-5.17-.89-1.73-1.72-3.33-2.51-4.8-.79-1.47-1.5-2.77-2.12-3.92-.62-1.14-1.09-2-1.42-2.58-.03,.45-.07,1.25-.14,2.39s-.14,2.5-.24,4.07c-.1,1.57-.2,3.3-.31,5.18-.11,1.88-.2,3.78-.27,5.68-.07,1.91-.12,3.79-.16,5.63s-.05,3.49-.03,4.94c-.44,.01-.83,.05-1.16,.12-.33,.07-.71,.15-1.13,.23-.85,.18-1.58,.37-2.18,.58,.17-1.49,.34-3.36,.5-5.61,.16-2.25,.3-4.67,.43-7.26,.13-2.59,.25-5.26,.36-8,.11-2.75,.21-5.41,.3-7.99,.09-2.58,.16-4.99,.22-7.22,.06-2.23,.11-4.12,.15-5.66,1.01,0,1.95-.1,2.84-.29s1.86-.49,2.9-.91c1.26,2.56,2.62,5.23,4.08,7.99,1.46,2.76,2.86,5.35,4.19,7.75,1.33,2.41,2.52,4.52,3.56,6.34,1.04,1.82,1.78,3.07,2.2,3.75Z" class="cls-1"></path><path d="M624.99,316.8c-.25-1.2-.04-2.32,.63-3.37,.67-1.05,1.62-1.7,2.86-1.96,1.24-.26,2.37-.05,3.4,.62,1.03,.67,1.67,1.63,1.93,2.87,.26,1.24,.05,2.37-.62,3.4-.67,1.03-1.63,1.67-2.87,1.93-1.24,.26-2.37,.04-3.4-.65-1.03-.69-1.67-1.64-1.92-2.84Zm.44,11.1c.67-.06,1.37-.13,2.1-.22,.73-.09,1.5-.22,2.31-.39,1.01-.21,1.84-.41,2.51-.61,.66-.2,1.28-.4,1.84-.6-.13,1.32-.25,3.21-.36,5.67-.11,2.47-.19,5.11-.22,7.95-.04,2.83-.03,5.63,.03,8.41,.05,2.77,.15,5.09,.3,6.96-.67,.06-1.36,.16-2.05,.31s-1.47,.31-2.32,.48c-.89,.19-1.69,.35-2.41,.5-.72,.15-1.38,.33-1.98,.53,.18-2.05,.32-4.44,.41-7.17,.1-2.72,.16-5.45,.17-8.18,.02-2.73,0-5.3-.04-7.74-.04-2.43-.14-4.4-.29-5.9Z" class="cls-1"></path><path d="M663.91,347.91c-.46,.5-1,.96-1.62,1.37-.62,.41-1.55,.75-2.79,1-1.04,.22-1.93,.25-2.67,.1-.74-.15-1.35-.41-1.82-.77-.48-.36-.86-.77-1.13-1.22-.27-.45-.48-.82-.62-1.11-.59,1.82-1.43,3.17-2.51,4.07-1.09,.89-2.58,1.53-4.47,1.93-2.32,.48-4.31,.21-5.95-.82-1.65-1.03-2.71-2.7-3.2-5.02-.39-1.86-.21-3.69,.52-5.49,.73-1.81,2.04-3.23,3.92-4.27,.83-.45,1.89-.92,3.16-1.38,1.27-.47,2.5-.9,3.66-1.31,.87-.3,1.57-.56,2.11-.77,.54-.21,.95-.47,1.23-.77s.44-.69,.49-1.16c.04-.47-.02-1.12-.19-1.93-.19-.89-.49-1.58-.92-2.08-.43-.5-.92-.87-1.47-1.12-.56-.25-1.15-.38-1.78-.39-.63-.01-1.23,.04-1.81,.17-1.2,.25-2.25,.67-3.16,1.26-.91,.59-1.75,1.33-2.53,2.22l-.29,.06c-.08-.79-.15-1.39-.19-1.81-.05-.41-.11-.93-.2-1.56,2.8-2.44,6-4.03,9.6-4.78,1.12-.23,2.24-.34,3.35-.33,1.11,0,2.15,.2,3.11,.56,.96,.37,1.8,.95,2.51,1.75,.71,.8,1.21,1.88,1.49,3.23,.18,.85,.28,1.8,.32,2.84,.04,1.04,.04,1.91,.03,2.59l-.06,7.58c-.03,1.42-.01,2.45,.04,3.11s.12,1.18,.2,1.56c.1,.46,.3,.95,.6,1.45,.31,.5,.79,.68,1.45,.55,.19-.04,.35-.11,.47-.22,.12-.1,.25-.21,.39-.32l.74,1.24Zm-18.83-2.37c.21,1.01,.62,1.86,1.23,2.56,.61,.7,1.49,.93,2.66,.69,.89-.19,1.58-.57,2.06-1.16,.48-.58,.84-1.26,1.06-2.04,.22-.77,.34-1.6,.36-2.49,.02-.89,.03-1.72,.03-2.49l-.06-4.65c-1.68,.63-2.97,1.16-3.85,1.59-.88,.43-1.6,.92-2.17,1.48-.81,.77-1.28,1.78-1.43,3.02-.14,1.24-.1,2.4,.12,3.49Z" class="cls-1"></path><path d="M663.72,319.93c.56-.03,1.13-.08,1.73-.15,.59-.06,1.31-.18,2.16-.36,.85-.18,1.56-.35,2.13-.53,.57-.18,1.13-.37,1.7-.57-.08,.78-.12,1.55-.13,2.3,0,.75-.01,1.5-.01,2.27,.26-.5,.61-1.09,1.05-1.76,.44-.68,1-1.35,1.67-2.01,.67-.66,1.49-1.29,2.46-1.87,.97-.59,2.13-1.02,3.48-1.3,1.86-.39,3.47-.25,4.84,.42,1.37,.66,2.43,1.84,3.19,3.54,.95-1.81,2.17-3.42,3.66-4.82,1.48-1.4,3.21-2.3,5.18-2.71,.81-.17,1.68-.22,2.6-.15,.92,.07,1.8,.29,2.62,.66,.83,.38,1.55,.93,2.16,1.67,.62,.74,1.05,1.69,1.29,2.85,.1,.5,.19,.99,.24,1.46,.06,.47,.09,1.02,.1,1.64,0,.62,0,1.39,0,2.3-.01,.91-.04,2.06-.07,3.43-.02,.29-.03,1-.04,2.13,0,1.13-.01,2.41-.02,3.85,0,1.43,0,2.88,.03,4.35,.02,1.47,.05,2.64,.07,3.52-.67,.06-1.35,.16-2.03,.3-.68,.14-1.4,.29-2.17,.45-1.01,.21-1.83,.38-2.47,.51-.64,.13-1.26,.3-1.86,.51,.19-1.81,.36-3.86,.5-6.16,.15-2.29,.26-4.48,.33-6.57,.07-2.09,.09-3.96,.07-5.61-.02-1.65-.1-2.8-.24-3.46-.19-.89-.61-1.59-1.28-2.09-.67-.5-1.55-.65-2.63-.42-.39,.08-.85,.26-1.4,.53-.55,.28-1.1,.74-1.64,1.4-.55,.66-1.04,1.55-1.47,2.67-.43,1.12-.72,2.58-.87,4.39-.15,1.4-.24,3.63-.27,6.68-.03,3.05,.02,6.54,.15,10.47-.63,.05-1.33,.16-2.08,.31-.75,.16-1.58,.33-2.46,.51-.74,.15-1.37,.29-1.91,.4-.54,.11-1.15,.28-1.83,.5,.15-1.6,.29-3.55,.42-5.84,.13-2.29,.23-4.51,.3-6.69,.07-2.17,.11-4.13,.11-5.86,0-1.74-.06-2.91-.19-3.53-.21-1-.65-1.69-1.31-2.06-.66-.37-1.48-.45-2.44-.25-1.62,.34-2.9,1.26-3.84,2.77-.94,1.51-1.51,3.49-1.73,5.96-.04,.37-.09,1.03-.14,1.97-.05,.94-.09,2.16-.12,3.65-.03,1.5-.04,3.25-.03,5.24,.01,1.99,.08,4.15,.19,6.46-.67,.06-1.36,.16-2.05,.31-.7,.14-1.39,.29-2.09,.43-.73,.15-1.44,.3-2.12,.44-.68,.14-1.32,.31-1.92,.52,.13-1.88,.23-3.59,.3-5.11,.06-1.53,.11-3.09,.14-4.69,.03-1.6,.05-3.38,.07-5.34,.02-1.96,.03-4.37,.04-7.24-.02-1.05-.03-1.9-.05-2.56-.02-.66-.03-1.23-.02-1.69,0-.47,0-.88-.02-1.24s-.02-.74-.03-1.14Z" class="cls-1"></path><path d="M709.05,299.3c-.25-1.2-.04-2.32,.63-3.37,.67-1.05,1.62-1.7,2.86-1.96,1.24-.26,2.37-.05,3.4,.62,1.03,.67,1.67,1.63,1.93,2.87,.26,1.24,.05,2.37-.62,3.4-.67,1.03-1.63,1.67-2.87,1.93-1.24,.26-2.37,.04-3.4-.65-1.03-.69-1.67-1.64-1.92-2.84Zm.44,11.11c.67-.06,1.37-.13,2.1-.23,.73-.09,1.5-.22,2.31-.39,1.01-.21,1.84-.41,2.5-.61,.67-.2,1.28-.4,1.84-.6-.13,1.32-.25,3.21-.36,5.67-.11,2.46-.19,5.11-.22,7.95-.04,2.83-.03,5.63,.03,8.41,.05,2.77,.15,5.09,.3,6.96-.68,.06-1.36,.16-2.06,.31-.7,.15-1.47,.31-2.32,.48-.89,.19-1.69,.35-2.41,.5-.72,.15-1.37,.33-1.98,.53,.18-2.05,.31-4.44,.41-7.17,.1-2.72,.16-5.45,.17-8.18,.02-2.73,0-5.3-.04-7.74-.04-2.43-.14-4.4-.29-5.9Z" class="cls-1"></path><path d="M724.55,330.69c.36-1.16,.77-2.14,1.21-2.92,.44-.78,1.17-1.27,2.17-1.48s1.96-.06,2.87,.43c.91,.5,1.47,1.23,1.67,2.2,.16,.77,.05,1.53-.34,2.28-.39,.75-.83,1.47-1.33,2.19l-9.94,14.48-1.13-.49,4.82-16.68Z" class="cls-1"></path><path d="M749.77,289.61c.67-.06,1.44-.15,2.31-.27,.86-.12,1.7-.26,2.51-.43,.89-.19,1.75-.4,2.59-.63,.84-.24,1.58-.46,2.22-.68-.09,1.51-.18,3-.28,4.48-.1,1.47-.21,2.97-.34,4.49-.06,1.06-.12,2.39-.17,3.97-.05,1.58-.1,3.21-.14,4.87s-.06,3.23-.08,4.71c-.02,1.48-.02,2.64,0,3.48,.02,1.25,.06,2.28,.13,3.09,.07,.81,.18,1.61,.34,2.38,.27,1.27,.71,2.29,1.33,3.05,.62,.76,1.37,1.32,2.26,1.68,.88,.36,1.86,.55,2.93,.57s2.19-.09,3.35-.34c2.55-.53,4.55-1.37,5.98-2.52,1.44-1.14,2.52-2.46,3.23-3.94,.72-1.48,1.19-3.06,1.4-4.74,.21-1.68,.38-3.32,.49-4.92,.11-1.23,.19-2.93,.24-5.1,.05-2.17,.08-4.46,.09-6.86,0-2.4-.01-4.75-.04-7.04-.03-2.29-.08-4.16-.14-5.6,.48-.02,.95-.05,1.41-.08,.46-.04,.9-.1,1.32-.18,.77-.16,1.62-.44,2.55-.84-.11,1.23-.2,2.66-.29,4.27-.09,1.61-.16,3.29-.22,5.04-.06,1.75-.11,3.51-.14,5.29-.03,1.78-.05,3.44-.05,4.97-.04,3.32-.2,6.4-.5,9.24-.3,2.85-.99,5.38-2.08,7.61-1.09,2.22-2.73,4.11-4.91,5.65-2.18,1.54-5.17,2.71-8.96,3.5-1.74,.36-3.56,.59-5.46,.68-1.9,.09-3.68-.13-5.35-.67s-3.13-1.42-4.39-2.63c-1.26-1.21-2.11-2.88-2.55-5.01-.31-1.47-.46-3.09-.47-4.87,0-1.77,.03-3.94,.1-6.5,.14-3.21,.2-6.42,.18-9.6-.02-3.18-.16-6.38-.42-9.6Z" class="cls-1"></path><path d="M790.48,313.63c1.28-.27,2.46-.04,3.56,.68,1.1,.72,1.78,1.72,2.05,2.99,.27,1.28,.03,2.43-.7,3.48-.73,1.04-1.74,1.69-3.01,1.96-1.28,.27-2.46,.07-3.54-.59-1.09-.66-1.76-1.63-2.03-2.91-.27-1.27-.04-2.46,.68-3.56,.72-1.1,1.72-1.78,2.99-2.05Z" class="cls-1"></path><path d="M816.41,280.6c-1.38-.99-3.17-1.25-5.37-.79-.97,.2-1.79,.54-2.48,1-.69,.47-1.24,.99-1.64,1.58-.4,.59-.66,1.23-.78,1.92-.12,.69-.11,1.37,.03,2.02,.15,.74,.45,1.41,.88,2.03,.43,.62,1,1.2,1.7,1.76,.7,.56,1.56,1.13,2.56,1.7,1.01,.58,2.17,1.21,3.49,1.91,1.04,.55,2.05,1.12,3.02,1.7,.97,.59,1.84,1.25,2.62,2s1.46,1.59,2.04,2.54c.58,.95,1,2.06,1.27,3.34,.43,2.05,.42,3.93,0,5.63-.43,1.7-1.19,3.21-2.26,4.53-1.08,1.31-2.42,2.4-4.01,3.26-1.6,.86-3.32,1.48-5.18,1.86-2.32,.48-4.48,.67-6.48,.56-2-.11-4.11-.58-6.34-1.4,.38-1.29,.65-2.61,.8-3.98,.16-1.36,.23-2.57,.22-3.61l1.22-.25c.61,2.17,1.78,3.78,3.48,4.81,1.71,1.04,3.72,1.31,6.04,.83,.85-.18,1.65-.47,2.39-.89s1.37-.94,1.88-1.57c.51-.63,.89-1.33,1.13-2.11,.24-.78,.27-1.63,.07-2.56-.16-.77-.48-1.47-.95-2.1-.47-.63-1.06-1.22-1.76-1.78-.7-.56-1.49-1.09-2.36-1.6-.87-.5-1.8-1.02-2.8-1.53-1.17-.6-2.28-1.21-3.32-1.82-1.03-.61-1.97-1.29-2.81-2.05-.84-.75-1.56-1.63-2.15-2.64-.59-1-1.03-2.19-1.31-3.54-.41-1.97-.43-3.79-.05-5.47,.38-1.67,1.06-3.14,2.04-4.42,.99-1.27,2.24-2.35,3.78-3.24,1.53-.88,3.22-1.52,5.08-1.9,2.09-.44,4.05-.6,5.89-.5,1.84,.1,3.74,.53,5.72,1.29-.48,1.59-.76,2.95-.85,4.08-.09,1.13-.16,2.24-.21,3.34l-1.28,.27c-.58-1.82-1.56-3.21-2.93-4.2Z" class="cls-1"></path><path d="M831.03,305.19c1.27-.27,2.46-.04,3.56,.68,1.1,.72,1.78,1.72,2.05,2.99,.27,1.28,.03,2.43-.7,3.48-.73,1.04-1.74,1.69-3.01,1.96-1.28,.27-2.46,.07-3.54-.59-1.09-.66-1.76-1.63-2.03-2.91-.27-1.27-.04-2.46,.68-3.56,.72-1.1,1.72-1.78,2.99-2.05Z" class="cls-1"></path><path d="M876.42,304.57c-.6,.04-1.33,.16-2.2,.34-.87,.18-1.79,.37-2.76,.57-1.01,.21-1.9,.39-2.67,.56-.77,.16-1.42,.34-1.95,.53-.28-.75-.61-1.71-.99-2.88-.38-1.17-.85-2.5-1.41-4-.08-.18-.21-.5-.41-.94-.19-.44-.38-.92-.57-1.42-.19-.51-.37-.98-.54-1.43-.17-.45-.3-.74-.37-.89-1.13,.19-2.27,.4-3.41,.62-1.14,.22-2.47,.48-3.98,.8s-2.71,.58-3.59,.78c-.89,.21-1.81,.43-2.77,.67-.51,1.44-1.07,3.22-1.7,5.35-.63,2.13-1.38,4.78-2.25,7.94-.6,.04-1.44,.18-2.52,.4-.54,.11-1.05,.22-1.51,.31s-.86,.22-1.19,.37c1.25-3.49,2.51-7.04,3.78-10.65,1.26-3.61,2.5-7.26,3.71-10.94,.88-2.73,1.65-5.06,2.29-7.01,.64-1.95,1.19-3.63,1.65-5.03,.45-1.41,.85-2.62,1.18-3.63,.33-1.02,.63-1.94,.88-2.76,.25-.82,.48-1.6,.69-2.35,.21-.75,.43-1.59,.68-2.53,.74,.05,1.49,0,2.26-.17,.89-.19,1.6-.43,2.14-.75,.09,.26,.44,1.09,1.03,2.48,.59,1.39,1.34,3.15,2.25,5.28,.91,2.13,1.95,4.51,3.12,7.13,1.17,2.62,2.39,5.31,3.65,8.08s2.54,5.46,3.84,8.1c1.29,2.64,2.5,5.01,3.63,7.11Zm-26.42-10.6c.97-.16,1.96-.34,2.95-.52,.99-.19,1.99-.38,2.99-.59,.89-.18,1.79-.38,2.69-.59,.91-.21,1.74-.41,2.51-.61-.5-1.23-.97-2.37-1.41-3.43-.44-1.06-.88-2.1-1.31-3.12-.43-1.02-.9-2.04-1.4-3.07-.5-1.02-1.05-2.14-1.66-3.34-.92,2.53-1.85,5.06-2.78,7.6-.92,2.53-1.79,5.09-2.58,7.68Z" class="cls-1"></path><path d="M881.04,294.77c1.27-.27,2.46-.04,3.56,.68,1.1,.72,1.78,1.72,2.05,2.99,.27,1.28,.03,2.44-.7,3.48-.73,1.04-1.74,1.69-3.01,1.96-1.28,.27-2.46,.07-3.54-.59-1.09-.66-1.76-1.63-2.03-2.91-.27-1.27-.04-2.46,.68-3.56,.72-1.1,1.72-1.78,2.99-2.05Z" class="cls-1"></path></g><g><g><path d="M888.48,232.51v-.03l-.3-1.55c-.98-4.92-1.98-10.02-3.77-14.56-8.36-21-8.09-43.27-7.8-62.87,.2-14.52,1.76-29.22,3.3-43.41,.25-2.44,.5-4.88,.75-7.31,.9-8.65-1.43-16.81-6.57-22.99-4.57-5.46-10.99-9.56-16.38-10.54-8.75-1.54-16.27,2.79-20.69,11.82-1.86,3.83-3.9,7.6-6.86,12.63l-1.31,2.26-2.01-1.72c-.68-.59-1.27-1.12-1.77-1.59-.89-.79-1.62-1.47-2.31-1.93-5.71-3.79-10.6-5.17-14.66-4.09-3.21,.87-5.91,3.44-7.95,7.65-3.06,6.26-7.31,11.3-13.08,15.47-.72,.55-1.79,1.33-3.28,2.14-2.21,1.24-3.72,1.73-6.07,2.67-1.02,.4-2.33,.99-3.88,1.66-.43,.19-.89,.4-1.35,.63l-.03,.02c-.16,.05-.34,.14-.5,.22-1.51,.61-3.05,1.2-4.54,1.78-1.33,.48-2.68,1.08-4.14,1.42-1.43,.31-2.95,.44-4.46,.26-2.99-.32-5.72-1.82-7.93-3.8-1.1-.99-2.03-2.15-3-3.07-.98-1.04-2.01-1.99-3.1-2.91-2.15-1.84-4.49-3.4-6.99-4.68-2.52-1.2-5.27-2.04-7.98-1.87-2.76,.14-5.41,1.27-7.65,2.89-2.26,1.64-4.43,3.53-6.63,5.36-8.7,7.41-16.78,15.49-24.12,24.25-7.38,8.68-13.71,18.26-20.32,27.56-6.64,9.35-13.25,18.67-20.55,27.57-7.55,8.6-17.18,20.8-24.94,29.18l-.81,.88v-1.22c-.05-6.29,.72-22.44,1.34-28.76,.67-6.3,1.54-12.63,3.35-18.79,.94-3.08,2.38-5.91,3.15-8.95,.78-2.98,1.1-6.18,.04-9.04-.5-1.45-1.35-2.78-2.29-3.97-1.03-1.13-2.21-2.26-3.26-3.42-2.18-2.32-4.22-4.76-6.65-6.71-2.4-1.94-5.33-3.4-8.38-3.43-3.05-.05-5.94,1.63-7.7,4.14-.91,1.22-1.52,2.67-2.03,4.14-.46,1.43-.64,2.99-.82,4.57-.28,3.14-.65,6.3-.86,9.47-.94,12.64-1.28,25.3-2.38,37.96-.96,12.6-2.66,31.19-3.53,43.8,.11,3.07,1.16,6.12,2.57,8.89,1.42,2.76,3.34,5.29,5.64,7.41,2.29,2.12,4.98,3.83,7.93,4.88,2.89,1.05,6.1,1.35,9.13,.77,3.06-.63,5.83-2.22,8.4-4.03,2.6-1.75,5.05-3.77,7.39-5.89,2.33-2.1,4.59-4.28,6.86-6.57,2.22-2.18,4.2-4.67,6.2-7.09,7.86-9.96,17.27-20.19,24.78-30.41l.26-.38,.27,.4c1.8,3.14,3.54,6.26,5.41,9.34,2,3.01,4.03,5.99,6.22,8.85,4.34,5.75,9.37,10.97,15.28,15.08,2.97,2.02,6.18,3.65,9.66,4.37,3.52,.77,7.16,.48,10.52-.77,3.34-1.23,6.4-3.22,9.14-5.52,2.74-2.3,5.22-4.93,7.55-7.68,2.34-2.72,4.41-5.66,6.25-8.77,1.86-3.07,3.52-6.26,4.92-9.56,2.85-6.61,4.87-13.6,6.47-20.59,3.03-14.09,4.7-28.46,6.9-42.74l.02-.13,.15-.03c4.09-.96,8.15-2.02,12.15-3.32v-.03c2.97-1.27,5.99-2.62,9.08-4.1,2.77-1.35,10.88-5.37,13.45-6.69l-.07,3.22v1.59c.02,.96,.02,1.83-.16,2.67-1.35,5.75-2.64,11.55-3.94,17.32-3.34,15.1-6.79,30.68-10.87,45.89-2.91,10.81-1.6,21.15,3.91,27.65,2.85,3.4,7.02,6.57,11.59,5.75,4.79-.87,8.8-4.17,10.41-8.62,3.2-8.81,5.54-17.7,7.7-26.33,2.11-8.22,3.88-14.99,6.12-21.89,4.62-13.8,7.66-21.5,11.26-30.31,1.22-3.07,2.21-5.45,2.65-6.5,3.61-8.79,6.86-18.19,9.47-24.06l.16-.32,.23-.24c.61-.57,1.33-.91,2.07-.91,.3,0,.58,.05,.84,.15,1.93,.65,2.29,3.12,2.29,3.12l.08,.53c.13,.94,.28,1.98,.13,3.1-4.39,30.89-1.76,61.96,7.91,92.33,3.77,11.81,9.77,18.59,18.91,21.33,3.49,1.03,6.5,.63,8.42-1.14,2.07-1.87,2.79-5.21,2.01-9.2Zm-159.37-46.98c-.66,2.6-2.25,8.38-6.32,14.63-2.64,4.04-6.74,10-10.82,9.3-4.39-.7-6.55-8.61-7.07-12.44-.9-6.81,1.53-14.26,3.01-18.85,.09-.28,.17-.51,.24-.65,0,0,3.77-11.3,10.97-19.02,.98-1.05,2.35-2.35,4.4-3.34,1.45-.72,3.71-1.8,5.17-1.32,4.49,1.44,3.82,18.47,.43,31.69Z" class="cls-1"></path><path d="M632.31,103.89c7.44-2.18,15.02-4.22,22.28-6.18,3.94-1.08,7.83-2.14,11.81-3.25,10.34-2.85,17.81-5,24.46-6.87,14.78-4.22,24.59-7.01,49.66-13.29,11.15-2.78,25.15-6.42,39.97-10.26,30.62-7.96,47.62-13.21,69.79-18.05,3.83-.81,5.75-2.43,6.73-5.55,1.28-4.06,.51-8.7-1.99-12.13-2.35-3.22-5.97-4.96-10.1-4.96h-.05c-8.81,.02-17.94,2.05-26.8,3.99-2.65,.63-5.16,1.18-7.68,1.68-23.49,4.71-63.05,15.97-74.29,18.93-14.21,3.73-22.17,5.58-29.9,7.38-8.57,2-16.68,3.87-32.41,8.13-23.04,6.23-47.56,12.69-77.12,20.42-4.06,1.06-13.35,2.96-15.49,3.44,.13-3.73,.95-28.65,2.11-40.55,.26-2.72-.02-5.07-.89-7.19-1.9-4.86-5.87-7.24-6.63-7.68-3.57-1.98-6.71-1.8-12.41-1.47-4.69,.3-6.67,.85-8.65,1.76-1.06,.48-1.61,.71-2.11,1.11-3.4,2.55-3.05,13.71-3.05,14.21,.19,4.16-.06,8.44-.3,12.56-.17,2.48-.33,4.98-.38,7.51-.26,11.77-.56,18.27-.77,23.08-.12,1.94-.2,3.56-.27,4.67-8.5,2.12-17.19,4.31-25.79,6.59-7.38,1.98-12.62,3.43-19.26,5.29-2.79,.74-5.84,1.61-9.41,2.59-11.03,3.08-22.34,6.14-33.64,9.16-1.2,.65-1.84,1.61-2,2.89-.22,2.55,1.88,5.7,3.13,6.77,3.83,3.2,8.4,5.25,12.82,7.24,2.29,1.03,4.64,2.08,6.93,3.31,6.61,3.57,13.42,.63,17.07-.96,.81-.34,1.52-.65,2-.79,13.35-4,29-7.82,47.89-11.65-.3,6.32-.74,15.99-1.26,27.77-.65,14.5-1.05,24.29-1.34,31.03-1.2,11.22-4.59,21.76-10.23,31.5-1.88,3.22-4.84,7.62-7.49,11.48-6.42,9.4-9.65,14.11-13.86,18.08-3.95,3.71-8.42,6.91-13.28,9.5-1.02-2.31-1.8-4.74-2.25-7.26-.3-1.76-.44-3.48-.31-8.01,.01-.91,.01-1.78,.07-2.7v-.03c1.17-20.85,1.87-32.12,4.04-39.95,2.67-9.81-1.29-13.99-9.14-17.94-1.25-.65-2.66-1.03-3.93-1.33-.35-.11-.71-.21-1.07-.27-2.13-7.46-8.64-13.59-17.44-16.51-9.45-3.12-19.48-1.77-26.1,3.52-1.02,.8-1.75,1.9-2.48,2.98l-.25,.39c-1.3,1.92-2.65,3.87-3.98,5.79-3.17,4.53-6.41,9.24-9.21,14.07-10.91,18.76-18.53,36.66-23.3,54.73-.41,1.51-.75,2.55-1.07,3.55-.43,1.47-.87,2.82-1.46,5.42-.12,.24-.24,.51-.36,.77-2.17,5.13-4.21,10.13-7.04,14.63-2.87,4.55-6.24,8.77-9.69,12.96-3.47,4.16-7.17,8.25-10.95,11.95-1.9,1.82-3.88,3.51-6.03,4.9-2.09,1.37-4.39,2.46-6.77,3.32-2.38,.87-4.86,1.42-7.36,1.61-2.68,.2-5.22,.28-7.51-.17-2.11-.4-4.01-1.35-5.5-2.77-1.47-2.15-2.68-4.45-3.57-6.85-.18-.58-.4-1.18-.56-1.75-.83-4.18-.52-8.81,.13-13.31,.79-5.29,2.13-10.58,3.73-15.78,.81-2.6,1.65-5.19,2.58-7.77,.91-2.57,1.89-5.07,3.01-7.56,2.19-4.97,4.76-9.83,7.28-14.75,1.28-2.39,2.58-4.84,3.9-7.24,1.33-2.39,2.57-4.85,4-7.18,1.42-2.31,2.93-4.53,4.73-6.49,.75-.81,1.57-1.59,2.39-2.33,1.59-1.13,3.2-2.07,4.95-2.72l.24-.12c.98-.69,3.59-2.4,7.2-3.65,3.05-1.1,4.99-3.37,5.36-6.28,.36-3.22-1.37-6.51-4.55-8.56-3.84-2.51-8.52-4.67-13.61-6.3-10.8-3.45-19.6-.68-26.17,8.23-2.02,2.71-4.02,5.73-6.47,9.75-5.89,9.55-11.48,20.66-16.56,32.9-6.24,14.97-9.15,23.49-11.09,42.17-.04,.55-.15,1.23-.24,1.95-.12,.79-.22,1.68-.34,2.6-.38,2.14-1.12,4.85-3.17,7.5-.77,.99-1.52,1.99-2.34,3.05-2.99,4.08-6.68,9.11-14.19,16.68-5.36,5.38-8.89,8.92-10.73,8.2-.69-.24-2.77-2.5-1.61-20.88,1.55-24.13,2.36-36.05,4.41-43.45,2.55-9.38-.05-14.48-9.9-19.46-1.37-.69-2.89-1.12-4.24-1.42-.44-.13-.85-.25-1.24-.34-2.33-8.07-9.38-14.79-18.97-17.92-10.27-3.42-21.14-1.96-28.34,3.8-1.12,.87-1.9,2.04-2.66,3.2l-.29,.44c-1.45,2.13-2.89,4.23-4.38,6.34-3.39,4.91-6.94,10.02-10,15.28-11.87,20.44-20.13,39.92-25.36,59.57-.42,1.64-.79,2.76-1.12,3.87-.79,2.5-1.51,4.85-3.09,12.53-1.76,8.46-1.39,16.83,1.16,27.17,2.84,11.49,10.41,19.48,22.53,23.76,5.22,1.86,9.96,2.77,14.25,2.77,7.02,0,12.85-2.53,17.86-7.58,3.35-3.36,6.16-7.09,9.16-11.19,3.18-4.34,6.21-8.74,9.47-13.36,1.11-1.63,2.25-3.27,3.41-4.97,.26,.45,.54,.81,.73,1.2,.71,1.08,1.17,1.82,1.43,2.62,3.78,11.86,14.29,14.48,25.67,16.29,5.2,.83,10.22-1.55,12.8-6.04,2.07-3.63,3.99-7.36,5.87-10.99,1.72-3.34,3.52-6.84,5.42-10.17,2.08-3.65,4.33-7.25,6.9-11.33,.45-.69,.91-1.39,1.35-2.13,.04,.07,.06,.15,.11,.19l1.47,2.93c1.01,1.96,2.07,3.93,3.45,5.91,1.32,1.94,3.07,3.91,5.19,5.36,2.11,1.51,4.41,2.45,6.57,3.17,4.09,1.4,8.34,2.72,12.87,3.46,2.23,.36,4.66,.52,7.04,.41,2.39-.07,4.76-.57,7.02-1.22,4.51-1.43,8.5-3.59,12.21-5.87l2.8-1.71c.89-.63,1.87-1.31,2.79-1.97,1.78-1.33,3.48-2.72,5.13-4.14,3.32-2.85,6.47-5.77,9.55-8.79,5.11-4.94,9.96-10.06,14.77-15.26,1.66-1.67,3.22-3.3,4.77-4.87,3.42,7.53,9.73,12.97,18.76,16.17,4.84,1.71,9.17,2.55,13.12,2.55,6.47,0,11.83-2.33,16.48-6.97,3.1-3.11,5.74-6.67,8.41-10.32,2.87-3.93,5.62-7.89,8.55-12.07,.98-1.47,1.98-2.95,3.05-4.41,1.41,4.16,3.6,7.86,6.53,10.97,.32,.4,8.57,9.12,20.24,9.43,.33,0,.76,.03,1.2,.03,2.27,0,5.57-.29,8.36-2.47,1.28-.99,2.29-2.21,3.1-3.61l1.66-2.92c2.41-4.18,3.56-6.24,3.75-6.64,.38-.83,.51-1.02,6.3-9.99l1.85-2.83c8.09-12.48,10.15-15.67,10.75-16.59q.19-.34,.24-.42l.54-.74c1.39-1.87,3.12-4.28,4.89-7.29-.23,3.16-.47,6.28-.79,9.4-1.71,17.13-.46,19.03,16.72,25.29,.1,.02,.21,.09,.34,.14,.19,.1,.36,.19,.52,.22,1.41,.45,2.82,.69,4.12,.69,4.29,0,7.88-2.31,9.3-6.21,.86-2.35,1.24-5.15,1.23-8.54-.03-3.18-.19-6.38-.36-9.51-.27-5.21-.53-10.62-.13-15.86,.85-11.06,1.49-22.1,2.09-32.76,.76-13.97,1.54-28.4,2.95-42.92,.4-4.24,.88-11.24,1.36-18.66,.56-8.72,1.18-17.74,1.74-22.89,1.1-.38,2.76-.81,4.25-1.2,.87-.24,1.64-.44,2.2-.6,5.45-1.55,10.88-3.13,16.32-4.69,9.43-2.69,19.18-5.46,28.73-8.29ZM202.82,336.18c-2.73-1.2-1.35-8.51-.42-13.39,.22-1.01,.38-1.95,.52-2.79,3.91-24.1,15.25-46.39,25.57-65.34,.28-.53,.58-1.16,.89-1.83,.99-1.96,2.07-4.26,3.69-5.29,1.66-1.14,2.42-1.61,3.74-1.61,1.01,0,2.33,.26,4.67,.81,.79,.17,1.33,.94,1.23,1.76-1.9,13.64-26.29,84.91-39.89,87.69ZM467.43,197.43c-2.38,14.22-22.27,70.98-34.6,79.06-.61,.38-1.33,.45-1.97,.17-.61-.27-1.04-.8-1.16-1.45-.48-2.62,.28-6.76,.94-10.1,.17-.94,.34-1.81,.49-2.6,3.58-22.17,13.99-42.6,23.47-60,.3-.5,.57-1.09,.85-1.66,.89-1.82,1.87-3.9,3.35-4.86,1.53-1,2.2-1.49,3.4-1.49,.82,0,1.9,.21,3.67,.63,1.06,.24,1.76,1.25,1.57,2.3Z" class="cls-1"></path><path d="M194.94,119.97c5.56-21.22,11.5-40.5,17.71-60.9,1.98-6.42,3.97-12.94,5.95-19.6,.89-1.72,1.35-4.57,.48-6.42-4.06-8.49-12.25-10.2-20.3-11.21-3.65-.46-6.85,.1-9.45,1.69-2.52,1.51-4.45,3.98-5.84,7.51-15.02,37.83-35.58,141.19-35.77,142.18-4.47,16.93-8.57,33.99-12.24,50.75-2.35,10.81-4.22,20.24-6.07,29.33-3.63,18.22-7.07,35.38-13.39,58.95-1.76,6.53-3.63,13.14-5.54,19.64-.2,.41-.46,.6-.56,.6,0,0-.16-.07-.3-.34l-1.53-6.87c-.87-3.86-1.77-7.73-2.62-11.58-1.67-7.6-3.34-15.15-5.03-22.75-3.91-17.53-7.94-35.66-11.54-53.58-3.32-16.45-6.28-33.28-9.14-49.55-1.33-7.43-2.65-14.85-3.97-22.29-.11-.59-.24-1.22-.39-1.8-.15-.74-.27-1.5-.38-2.24-.61-3.26-1.12-6.49-1.69-9.79-1.29-7.72-2.66-15.73-4.18-23.51-.79-3.91-2.17-7.47-3.99-10.42-6.77-10.82-17.51-10.02-27.89-9.22-8.63,.69-13.58,4.29-15.16,11l-.04,.22,.06,.21c.96,2.42,1.95,4.76,2.91,7.02,1.99,4.74,3.9,9.2,5.07,13.83,4.29,16.86,8.25,34.11,12.04,50.81l2.06,9.04c2.67,11.71,5.31,23.42,7.96,35.12,3.09,13.83,6.3,28.06,9.53,42.09,4,17.25,8.05,34.47,12.08,51.71,3.52,15.14,7.08,30.3,10.57,45.48,.51,2.09,.99,4.22,1.49,6.28,2.08,8.72,4.21,17.77,5.6,26.75,2.35,14.99,7.1,20.21,19.68,20.21,1.28,0,2.63-.03,4.05-.15,4.66-.3,7.96-2.61,11.87-5.35,2.61-1.79,4.27-5.91,4.74-8.99,3.18-21.84,11.52-65.42,14.68-81.82,.76-4,1.26-6.59,1.37-7.12,2.33-13.86,22.08-97.98,35.16-153.65,5.64-24.13,10.12-43.16,11.96-51.26" class="cls-1"></path></g><g><path d="M886.01,28.37c2.69-1.13,4.12-3.38,3.72-6.06-.57-3.73-3.78-5.18-9.51-4.32l-3.04,.49c-.46,.07-.78,.51-.71,.98l2.58,17.22c.06,.43,.43,.73,.85,.73,.04,0,.08,0,.12-.01l2.36-.35c.23-.03,.43-.15,.57-.34,.13-.19,.19-.41,.16-.64l-.91-5.95,6.5,5.69c.2,.17,.46,.26,.7,.2l2.92-.46c.33-.05,.61-.3,.7-.62,.09-.33-.02-.67-.28-.89l-6.73-5.68Zm-.34-5.31c.2,1.3-.42,2.29-4.07,2.91l-.68-4.53c3.32-.47,4.49-.07,4.75,1.61Z" class="cls-1"></path><path d="M901.39,24.92c-.71-4.61-3.14-8.7-6.93-11.47-3.78-2.8-8.44-3.93-13.05-3.26-4.64,.71-8.72,3.14-11.5,6.93-2.8,3.77-3.97,8.4-3.29,13.04,1.34,8.72,8.83,14.97,17.38,14.97,.89,0,1.72-.06,2.63-.2,4.65-.67,8.71-3.16,11.51-6.93,2.79-3.74,3.96-8.4,3.26-13.09Zm-6.36,10.8c-2.19,2.94-5.36,4.88-8.98,5.37-3.6,.6-7.25-.35-10.14-2.54-2.98-2.17-4.9-5.34-5.45-8.94-.52-3.66,.39-7.25,2.55-10.2,2.18-2.92,5.36-4.83,8.97-5.35,3.65-.54,7.24,.35,10.2,2.49,2.91,2.16,4.82,5.38,5.36,8.98,.57,3.65-.31,7.25-2.51,10.19Z" class="cls-1"></path></g></g></svg>