<svg xmlns="http://www.w3.org/2000/svg" fill="none" viewBox="0 0 220 36" height="36" width="220">
<path fill="#333333" d="M217.391 28.6394L211.423 18.4416L214.158 15.705H216.395V10.2341H205.95V15.705H207.444L203.213 19.9334V0.283142H193.265V5.75645H195.999V28.6394H193.265V34.1103H205.95V28.6394H203.213V26.6496L205.701 24.1623L208.436 28.6394H206.946V34.1103H219.382V28.6394H217.391Z"></path>
<path fill="#333333" d="M154.712 18.6912C154.906 16.3165 155.684 14.5296 157.202 14.4628C158.793 14.3735 159.647 15.3833 159.687 18.6912H154.712ZM157.202 9.23827C153.101 9.18119 149.51 11.2622 147.251 14.4686V10.2344H138.049V15.7057H140.037L137.303 23.1689L134.815 15.7057H136.556V10.2344H124.37V15.7057H126.358L123.621 23.1689L120.887 15.7057H123.124V10.2344H110.44V15.7057H112.181L118.897 34.1111H124.866L128.846 23.6645L132.577 34.1111H138.795L145.264 15.7057H146.476C145.426 17.6121 144.802 19.819 144.766 22.1722C144.879 29.4495 150.344 35.3052 157.202 35.3555C162.64 35.3052 168.042 32.0949 168.394 25.9031H160.684C160.578 28.9085 158.559 29.6095 157.7 29.6334C156.692 29.6095 154.828 29.8422 154.712 23.6645H168.643C168.797 23.2781 168.817 22.6771 168.89 22.1722C168.817 14.9989 164.234 9.14314 157.202 9.23827Z"></path>
<path fill="#333333" d="M182.074 14.4628C183.742 14.3735 184.596 15.3833 184.56 18.6912H179.835C179.856 16.3165 180.633 14.5296 182.074 14.4628ZM185.803 25.9031C185.531 28.9085 183.509 29.6095 182.572 29.6334C181.645 29.6095 179.779 29.8422 179.836 23.6645H193.762C193.746 23.2781 193.766 22.6771 193.762 22.1722C193.766 14.9989 189.183 9.14314 182.074 9.23826C175.294 9.14314 169.832 14.9994 169.885 22.1722C169.832 29.4495 175.294 35.3052 182.074 35.3555C187.589 35.3052 192.993 32.0949 193.515 25.9031H185.803V25.9031Z"></path>
<path fill="#333333" d="M33.5764 0.283142H19.1502V7.2477H22.6342V14.9581L12.4364 0.283142H0V7.2477H3.23032V27.3945H0V34.1103H13.9262V27.3945H10.6934V16.7006L22.881 34.1103H29.8441V7.2477H33.5764V0.283142Z"></path>
<path fill="#333333" d="M41.5413 18.6912C41.655 16.3165 42.4321 14.5296 44.0292 14.4628C45.5414 14.3735 46.3956 15.3833 46.517 18.6912H41.5413ZM105.464 19.4356L100.74 17.9438C99.4081 17.5609 98.5051 17.0955 98.5012 16.2033C98.5905 15.2296 99.6793 14.9179 100.489 14.9584C101.311 14.9179 103.06 15.8511 103.225 17.6955H109.695V10.2344H103.723L102.979 11.2281C102.052 10.4871 100.068 9.55388 97.5051 9.48754C95.4207 9.54217 92.2889 10.5261 90.7888 13.2623V10.2344H81.3379V15.7057H83.577L80.8423 23.1688L78.1061 15.7057H80.0935V10.2344H67.9083V15.7057H69.8961L67.1595 23.1688L64.4272 15.7057H66.4146V10.2344H53.7314V14.934C51.7801 11.4588 48.2946 9.17973 43.7804 9.23826C37.0929 9.14314 31.6313 14.9994 31.5928 22.1722C31.6313 29.4495 37.0924 35.3052 43.7804 35.3555C49.3893 35.3052 54.7919 32.0949 55.2211 25.9031H47.5136C47.3312 28.9085 45.3068 29.6095 44.2789 29.6334C43.4453 29.6095 41.5784 29.8422 41.5423 23.6645H55.4729C55.546 23.2781 55.5699 22.6771 55.4729 22.1722C55.5051 19.819 55.0236 17.6121 54.1167 15.7057H55.7202L62.1896 34.1111H68.4078L72.1362 23.6645L75.869 34.1111H82.0872L88.8034 15.7057H90.0303C89.6054 20.1366 91.0425 22.7191 94.5241 24.163C97.9715 25.4884 98.37 25.7172 99.7466 26.1523C100.809 26.6543 101.975 28.1324 100.743 29.1383C99.4515 30.0871 96.9231 29.3744 96.0163 25.9035H89.7952L89.5464 34.1111H95.5177L96.0134 32.8681C97.4651 34.0379 99.5617 34.8945 102.978 34.8579C106.557 34.8945 109.046 32.4837 109.941 30.1315C110.755 27.8197 111.768 21.4478 105.464 19.4356Z"></path>
</svg>
