<svg xmlns="http://www.w3.org/2000/svg" fill="none" viewBox="0 0 137 37" height="37" width="137">
<path fill="#333333" d="M66.0533 10.4801C64.9137 10.4801 64.2987 10.6066 63.3759 11.0294C61.6958 11.7993 60.4326 13.0606 59.3059 15.0928L58.9538 15.7273L58.9988 14.5995C59.0235 13.9797 59.0655 12.8205 59.0921 12.0249L59.1393 10.5782H58.897C58.5873 10.5782 48.8713 12.5201 48.5778 12.6406C48.3864 12.7192 48.3569 12.8036 48.3569 13.2711C48.3569 13.7515 48.3813 13.8153 48.5778 13.8566C48.6994 13.882 49.1456 13.9694 49.5692 14.0509C50.4282 14.2157 50.6845 14.3491 51.0384 14.8177C51.6917 15.6827 51.8259 17.2087 51.8189 23.6707C51.813 28.954 51.7032 31.585 51.4532 32.4079C51.1453 33.417 50.6 33.9328 49.6507 34.1105C49.3435 34.1673 48.9376 34.2477 48.7492 34.2879L48.406 34.3605L48.3765 35.0381C48.3558 35.5138 48.3853 35.7405 48.4745 35.7973C48.5442 35.8415 51.868 35.8677 55.8594 35.8552L63.1167 35.8316L63.1451 35.0713C63.1609 34.6536 63.1392 34.3111 63.096 34.3111C62.5319 34.31 60.805 34.0736 60.5325 33.9601C59.7137 33.6179 59.3173 32.8832 59.1466 31.3925C58.9457 29.642 58.827 25.2896 58.8819 21.7207C58.938 18.1175 58.9387 18.1028 59.1643 17.8616C59.6901 17.2975 61.0218 16.8584 62.2145 16.8562C63.1727 16.8533 64.1582 17.1003 65.2105 17.6047C65.7145 17.8469 66.1794 18.0242 66.2432 17.9999C66.3744 17.9498 68.7558 11.6584 68.7558 11.3613C68.7562 10.9214 67.4045 10.4801 66.0533 10.4801Z"></path>
<path fill="#333333" d="M48.3657 21.4168C47.8528 17.0644 46.0079 13.879 42.9618 12.086C39.5772 10.094 34.4344 9.9786 30.7803 11.8136C28.1412 13.1375 25.9855 15.6892 25.0273 18.6199C24.0396 21.6443 24.0396 25.6136 25.0284 28.7006C25.6618 30.6779 26.5212 32.1213 27.8459 33.4335C29.4338 35.0067 31.5136 36.0129 33.892 36.3602C34.7433 36.4837 37.4296 36.4866 38.3093 36.3642C38.7263 36.3063 39.446 36.1485 39.9109 36.014C44.2212 34.7656 47.1645 31.4525 48.1743 26.7108C48.4206 25.5528 48.5224 22.7459 48.3657 21.4168ZM37.4503 34.4555C34.7699 35.2508 32.8505 32.698 32.1072 27.3483C31.8668 25.6191 31.8679 20.9088 32.1091 18.9318C32.6337 14.6303 33.9617 12.4455 36.0544 12.4425C36.9968 12.4407 37.5207 12.6719 38.2581 13.4144C40.0134 15.1826 40.8463 18.5591 40.8326 23.8671C40.8227 28.1019 40.4013 30.7686 39.4578 32.5719C39.0017 33.4457 38.1445 34.2487 37.4503 34.4555Z"></path>
<path fill="#333333" d="M12.9672 4.10529H16.0535C19.5999 4.10529 20.1802 4.17976 21.4367 4.79584C23.2569 5.68918 24.5879 7.45852 25.7482 10.529C26.2208 11.7796 26.2149 11.7755 27.2653 11.4558L27.9625 11.2439L27.8987 6.71893C27.8633 4.22991 27.8066 2.01629 27.7712 1.80061L27.7074 1.40832L14.1765 1.38104C6.73485 1.36556 0.500312 1.3792 0.322603 1.41054L0 1.46842L0.0283893 2.2718L0.0567783 3.07591L1.08653 3.19942C2.4234 3.35943 3.22161 3.73475 3.69537 4.42531C4.76347 5.98265 4.95666 8.10188 4.95445 18.1789C4.95261 28.9089 4.72881 31.5148 3.69722 32.8682C3.16483 33.5654 2.7331 33.7951 1.52785 34.0185C-0.0442427 34.3098 0.00774245 34.2737 0.00774245 35.0866C0.00774245 35.5386 0.0490359 35.7831 0.130148 35.8163C0.30675 35.8878 17.6145 35.8926 17.8 35.8211C18.0363 35.7307 18.0226 34.4521 17.7834 34.3282C17.6894 34.2792 17.1039 34.1634 16.4841 34.0702C15.8632 33.9769 15.1786 33.8239 14.9629 33.7299C13.8292 33.2365 13.1987 31.8724 12.9613 29.4029C12.7917 27.6317 12.6593 24.3688 12.6593 21.9561V19.7429L13.7134 19.7753C15.9584 19.8432 17.1194 19.9615 17.5883 20.1687C18.6044 20.6178 19.4262 21.8713 19.8528 23.6219L20.0803 24.5535L20.8807 24.5819L21.6819 24.6103V12.8255L20.8815 12.8539L20.0803 12.8823L19.8469 13.8129C19.3938 15.6165 18.6542 16.7248 17.5666 17.2277C17.1242 17.4327 16.8104 17.4887 15.7523 17.5521C15.0492 17.5934 14.0655 17.6307 13.5663 17.6336L12.6593 17.6384L12.6582 14.7213C12.6571 11.7969 12.8142 5.58594 12.9141 4.61998L12.9672 4.10529Z"></path>
<path fill="#333333" d="M135.77 24.8885C134.945 23.239 133.427 22.1101 130.246 20.7813C127.649 19.6966 126.346 18.9445 125.55 18.0736C124.904 17.3676 124.715 16.7969 124.778 15.7395C124.835 14.7647 125.075 14.184 125.686 13.5299C126.47 12.6915 127.549 12.398 128.84 12.6709C130.96 13.1192 132.319 14.5873 133.49 17.6884C133.908 18.7948 133.957 18.8298 134.707 18.5515L135.182 18.3749L135.166 17.0999C135.156 16.3987 135.121 14.9265 135.086 13.8282L135.023 11.8314L134.669 11.6813C132.731 10.8602 129.033 10.3496 126.623 10.569C123.887 10.8189 121.877 11.6879 120.331 13.2906C118.793 14.8834 118.099 16.7526 118.222 18.9699C118.324 20.8038 118.867 22.1219 119.997 23.2792C121.046 24.351 121.926 24.859 124.449 25.8449C128.522 27.4358 129.601 28.3781 129.591 30.3396C129.584 31.9961 128.706 33.2083 127.105 33.7732C126.533 33.9752 125.086 33.9734 124.313 33.7702C122.29 33.2367 120.739 31.4832 119.418 28.231L119.08 27.3974L118.682 27.4159C118.464 27.4258 118.163 27.4926 118.014 27.5641L117.742 27.6935L117.768 29.1144C117.781 29.896 117.821 31.5437 117.855 32.7766L117.917 35.0168L118.369 35.2111C119.295 35.6093 122.075 36.2183 123.823 36.4056C124.038 36.4281 125.23 36.4359 126.471 36.4222C128.623 36.3986 128.778 36.385 129.861 36.1015C133.057 35.2667 135.126 33.486 136.042 30.7809C136.324 29.9513 136.363 29.6973 136.403 28.4615C136.457 26.8145 136.305 25.9595 135.77 24.8885Z"></path>
<path fill="#333333" d="M111.059 11.4734C108.365 10.1229 104.203 10.221 101.16 11.7038C98.2768 13.11 96.2918 15.4552 95.1846 18.765C94.6069 20.489 94.4255 21.8767 94.4834 24.1121C94.5206 25.5253 94.5844 26.2549 94.7315 26.9082C95.8682 31.9825 99.3479 35.4327 104.213 36.3105C105.284 36.5037 107.716 36.5078 108.799 36.3183C110.344 36.0477 112.127 35.36 113.252 34.6009C114.623 33.674 116.031 32.2804 116.031 31.8479C116.031 31.5839 115.559 30.9771 115.354 30.9771C115.265 30.9771 114.883 31.1762 114.508 31.4195C113.165 32.2866 111.882 32.6435 110.097 32.6435C107.636 32.6435 106.075 32.0297 104.507 30.4469C103.813 29.7456 103.528 29.367 103.167 28.6728C102.378 27.1456 101.95 25.3885 101.887 23.4023L101.859 22.5444L109.117 22.5201L116.374 22.4946L116.406 22.0043C116.424 21.7348 116.389 21.0283 116.328 20.4351C115.875 16.0271 114.091 12.9928 111.059 11.4734ZM103.747 20.4137L101.908 20.4432L101.91 20.0462C101.911 19.8286 101.973 19.2527 102.048 18.7672C102.661 14.8178 104.134 12.4475 105.978 12.4453C107.675 12.4434 108.72 14.7783 108.937 19.0525L108.999 20.2648L107.292 20.3245C106.354 20.357 104.758 20.3972 103.747 20.4137Z"></path>
<path fill="#333333" d="M84.7611 11.0036C84.1823 10.8837 83.6606 10.8594 82.535 10.8985C80.843 10.9575 79.678 11.2111 78.4148 11.7948C77.9949 11.988 77.6292 12.1469 77.6019 12.1469C77.5735 12.1469 77.5776 9.58706 77.6107 6.45873C77.6579 2.05031 77.645 0.77059 77.554 0.768747C77.2343 0.763954 67.2181 2.67413 67.1082 2.76151C67.0268 2.8264 66.9917 3.03803 67.0102 3.35879C67.0426 3.91588 66.977 3.87164 68.1977 4.14631C68.5653 4.22853 68.9952 4.38854 69.1541 4.50136C69.5611 4.79152 69.9003 5.4194 70.1348 6.32047C70.3203 7.03057 70.3446 7.53862 70.4309 12.343C70.5183 17.2477 70.5006 22.2906 70.366 31.5278L70.3099 35.3655L71.0278 35.5284C72.0664 35.7648 75.0399 36.2599 76.0128 36.358C77.4397 36.5032 80.7663 36.4826 81.8256 36.3237C86.425 35.6302 89.8922 32.9627 91.5081 28.8732C91.9358 27.7896 92.3476 26.1202 92.4918 24.8807C92.6606 23.4262 92.5663 20.5235 92.3115 19.3551C91.3352 14.8774 88.5391 11.7852 84.7611 11.0036ZM77.7726 34.1488C77.6472 33.8192 77.4979 22.3242 77.5588 17.7325L77.6067 14.1481L78.257 13.9568C78.6906 13.8292 79.2005 13.7654 79.7937 13.7654C80.6233 13.7654 80.7313 13.7898 81.4307 14.1352C83.1167 14.9688 84.2718 17.039 84.8105 20.1884C85.0085 21.3523 85.0332 24.5319 84.8536 25.9266C84.4134 29.3521 83.2933 32.1158 81.8046 33.4557C81.2102 33.9903 80.6561 34.2734 79.9442 34.4091C79.4273 34.506 79.2724 34.509 78.3378 34.4356C77.9403 34.4047 77.853 34.3597 77.7726 34.1488Z"></path>
</svg>
