<svg xmlns="http://www.w3.org/2000/svg" fill="none" viewBox="0 0 129 34" height="34" width="129">
<path fill="#333333" d="M37.9933 0.274536C33.9341 0.274536 30.2831 2.52614 27.8566 5.67537C25.395 8.8831 24.2056 12.9313 24.2056 16.9554C24.2056 21.1427 25.5004 25.3775 28.1602 28.6554C30.493 31.5369 34.0979 33.648 37.8653 33.648C41.8894 33.648 45.5177 31.362 47.9208 28.2355C50.3706 25.0278 51.5718 20.9803 51.5718 16.9671C51.5718 12.7792 50.2536 8.53342 47.6055 5.25547C45.3071 2.40912 41.7256 0.274536 37.9933 0.274536ZM37.888 33.1703C31.6123 33.1703 29.9678 21.5984 29.9678 16.9561C29.9678 12.3132 31.6006 0.752943 37.888 0.752943C44.152 0.752943 45.8082 12.3249 45.8082 16.9561C45.8089 21.5867 44.152 33.1703 37.888 33.1703Z"></path>
<path fill="#333333" d="M27.4943 1.28911V0.96283H21.37V1.28911H24.1812L17.0306 24.4798L8.56176 1.28911H11.3496V0.96283H0V1.28911H2.98608L14.7095 33.3451L24.7877 1.28911H27.4943Z"></path>
<path fill="#333333" d="M70.316 19.8251H73.2326V28.3524V28.4336C73.2326 29.0056 73.2092 29.5653 72.9063 30.0671C71.7278 31.9917 69.3716 33.1117 67.1551 33.1117C64.3672 33.1117 62.8625 31.7935 61.8245 29.111C60.3431 25.2851 60.0162 21.0737 60.0162 16.9911C60.0162 12.4301 60.6226 0.473337 67.2948 0.473337C70.1997 0.473337 72.4272 3.01612 73.8273 5.27943C75.0058 7.21577 75.6817 9.35036 76.1601 11.5435H76.4169V0.403125H76.1601C75.3782 0.986161 74.4689 1.65111 73.4535 1.65111C72.6371 1.65111 71.8084 1.38265 71.0505 1.10249L70.3855 0.845737C69.4755 0.483663 68.5077 0.180786 67.5275 0.180786C65.0198 0.180786 62.6636 1.28904 60.7155 2.79378C56.3761 6.14194 54.3345 11.8691 54.3345 17.2238C54.3345 24.5492 58.7441 33.3795 67.0264 33.3795C68.8347 33.3795 70.3972 32.8542 72.0307 32.1315L72.7542 31.735C73.5588 31.2917 74.4572 30.9647 75.3789 30.9647C76.6503 30.9647 77.6422 31.6531 78.272 32.7028H78.4937V19.8251H80.9903V19.4864H70.3167V19.8251H70.316Z"></path>
<path fill="#333333" d="M128.524 20.6298C128.466 21.7966 128.373 22.9743 128.174 24.1294C127.812 26.1938 126.774 28.1074 125.281 29.5771C123.531 31.3034 121.07 32.3766 118.597 32.3766H113.826V16.6057C114.397 16.5589 114.957 16.5238 115.529 16.5238C119.156 16.5238 120.521 19.8368 121.023 22.9282H121.314V9.99129H121.023C120.848 13.3973 119.81 16.1507 115.809 16.1507C115.144 16.1507 114.479 16.1039 113.826 16.0344V1.2898H117.01C119.961 1.2898 122.831 1.52315 124.943 3.9145C127.03 6.28244 127.614 9.39724 127.952 12.4301H128.174V0.96283H98.7894V1.28911H102.358V25.7856C102.358 29.6232 99.1976 32.2362 95.4412 32.2362C91.9533 32.2362 87.9643 29.8799 87.9643 26.0072V1.28911H90.9855V0.96283H79.6001V1.28911H82.7149V24.8763C82.7149 30.7321 88.3608 33.2164 93.4821 33.2164C98.0081 33.2164 102.838 30.9648 102.838 25.8792V1.28911H108.483V32.3766H105.812V32.7036H128.78V20.6298H128.524Z"></path>
</svg>
