<svg xmlns="http://www.w3.org/2000/svg" fill="none" viewBox="0 0 239 37" height="37" width="239">
<path fill="#333333" d="M113.378 10.6234C113.378 15.5282 112.898 30.7325 112.898 30.7325C112.898 33.6749 113.857 34.9822 116.578 34.9822V36.2896H105.857V34.9822C108.577 34.9822 110.017 33.6748 110.017 30.7325L110.977 5.88234C110.177 3.91989 109.377 3.26617 107.297 3.10383V1.96022H115.458L124.099 25.1754L132.901 1.96022H140.261V3.10383C138.181 3.10383 137.062 4.08511 137.062 6.37373L138.022 30.4064C138.022 34.0038 138.662 34.9836 141.544 34.9836V36.291H129.222V34.9836C131.621 34.9836 132.743 34.1661 132.581 30.4064C132.581 30.4064 132.101 13.5671 131.942 10.6248L126.023 27.3003C125.134 29.6496 124.385 32.0517 123.781 34.4937L121.863 34.6574C121.382 32.8587 120.102 29.5902 120.102 29.5902C120.102 29.5902 115.137 15.3645 113.378 10.6234ZM103.296 36.4535C102.656 36.2897 102.016 36.2897 101.375 36.2897C100.096 36.2897 97.854 36.9435 95.1344 36.9435C84.7323 36.9435 77.0513 30.5675 77.0513 18.7968C77.0513 8.82478 84.2528 1.14149 95.2933 1.14149C97.8527 1.14149 100.734 1.63277 103.134 2.61266C103.614 2.12138 103.774 1.79521 104.254 1.30522H105.214C105.054 3.10394 104.414 8.98861 104.414 8.98861H103.454C102.814 5.55639 101.053 3.26638 95.4522 3.26638C88.7317 3.26638 82.651 8.66106 82.651 18.6345C82.651 29.9152 88.892 34.8186 95.7728 34.8186C100.254 34.8186 102.974 32.2038 104.735 28.9339L105.856 29.4252L103.296 36.4535ZM73.0507 8.33478H71.9313C71.771 5.22872 70.8105 4.24745 68.41 4.24745H63.7693V29.9151C63.7693 34.1647 64.5695 34.9823 67.2906 34.9823V36.2897H55.2882V34.9823C58.0093 34.9823 58.8095 34.1649 58.8095 29.75V4.24745H54.1688C51.1285 4.24745 50.6476 5.06489 49.8474 8.33478H48.728L49.5282 0.977554L50.3283 1.14128C50.6476 1.95872 51.2888 1.95872 53.2083 1.95872H68.7306C71.612 1.95872 72.2519 1.95873 72.8917 0.977448H73.8522L73.0507 8.33478Z" clip-rule="evenodd" fill-rule="evenodd"></path>
<path fill="#333333" d="M39.2452 36.9435C37.0028 36.9435 35.2403 36.6202 33.9594 36.1334C32.6783 35.8102 31.7169 35.3233 31.2369 35.0001C30.5964 35.6479 30.115 36.458 30.115 36.458L29.1535 36.1348L29.9545 28.5207L31.0764 28.6829C31.7169 32.2465 34.1198 34.8391 39.0862 34.8391C42.9306 34.8391 45.494 31.6001 45.494 28.0352C45.494 25.1194 44.3721 23.6601 40.5277 20.7443C39.2466 19.9342 38.1247 19.2864 37.1633 18.4763C33.6398 16.2097 31.396 13.6171 31.396 9.40429C31.396 4.54373 35.4009 1.30332 40.6867 1.30332C43.7301 1.30332 45.6531 2.27575 46.2935 2.59898L47.4141 1.30332L48.215 1.46557L47.4141 8.43186L46.2935 8.26961C46.2935 5.03058 44.3707 3.5713 41.1667 3.5713C38.1233 3.5713 35.8809 5.19145 35.8809 8.26961C35.8809 11.0244 37.9629 12.8056 40.3658 14.4272C41.6468 15.2373 42.6082 15.8851 43.5683 16.5329C49.1751 20.582 50.4562 23.1746 50.4562 27.0629C50.4588 32.7321 46.133 36.9435 39.2452 36.9435ZM20.9846 8.43059H19.7035C19.7035 5.5134 18.4224 4.3801 15.859 4.3801H8.65021V17.1794H13.2956C15.6986 17.1794 16.18 15.8837 16.4996 13.7767H17.6201V22.8501H16.4996C16.18 20.4198 15.6986 19.4475 13.1352 19.4475H8.65032V30.3033C8.65032 34.3524 9.6118 34.8392 12.1752 34.8392V36.1349H0V34.8392C3.04341 34.8392 3.52352 34.0291 3.52352 30.3033V6.48583C3.52352 4.21786 2.56204 3.24543 0 3.24543V2.11213H16.6587C19.5417 2.11213 20.1823 1.94988 20.6636 0.977448H21.7855L20.9846 8.43059ZM193.827 10.374V29.8149C193.827 34.0263 194.786 34.8365 197.349 34.8365V36.1321H178.449V34.8365C179.892 34.8365 181.172 34.3496 181.172 33.3786C181.172 32.7294 181.013 31.5961 180.69 30.4614L179.248 25.7631H168.677C168.515 26.4123 166.595 31.7569 166.595 33.2162C166.595 34.5119 168.038 34.8364 168.997 34.8364V36.132H160.186V34.8364C161.788 34.8364 163.07 34.6741 164.191 31.2727L172.361 4.86409C171.88 3.73079 171.241 3.40619 170.12 3.24394V2.11075H177.329L185.976 29.8149C186.779 32.7307 187.578 34.19 188.861 34.8365C190.784 34.1886 191.265 33.5408 191.265 29.8149V6.48583C189.822 4.54108 189.66 3.24543 186.938 3.24543V2.11213H195.108L208.564 25.279V7.62051C208.564 4.0555 207.765 3.24543 205.039 3.24543V2.11213H222.98V3.24543C221.86 3.24543 220.898 3.73228 220.898 4.86558C220.898 5.67565 221.219 6.48573 221.539 7.45816L226.666 18.6372L231.632 7.78276C232.432 6.32486 232.593 5.51478 232.593 4.70471C232.593 3.73228 231.95 3.24543 230.511 3.24543V2.11213H239V3.24543C236.918 3.24543 235.634 5.19018 234.676 7.45678L228.107 21.0661V29.9772C228.107 33.8668 229.069 34.8377 231.632 34.8377V36.1334H219.457V34.8377C222.02 34.8377 222.982 33.8667 222.982 29.9772V22.3631L215.932 7.2958C214.653 4.38 214.171 3.73217 213.369 3.24532C211.767 3.89315 211.287 5.02783 211.287 7.62041V32.5698C211.287 32.5698 211.449 34.5145 211.608 36.7811L209.526 36.9434L193.827 10.374ZM173.804 8.75381L169.318 23.4978H178.608L173.804 8.75381Z" clip-rule="evenodd" fill-rule="evenodd"></path>
<path fill="#333333" d="M153.423 23.2867H151.023V30.1749C151.023 33.7007 151.981 34.5019 154.705 34.5019V35.7833H142.379V34.5019C144.941 34.5019 145.902 33.5415 145.902 30.0158V7.42347C145.902 3.89906 144.941 3.25846 142.379 3.25846V2.13763H151.663C160.627 2.13763 165.908 4.86079 165.908 12.2307C165.909 19.9214 159.507 23.2867 153.423 23.2867ZM151.822 4.37929H151.023V20.8817H152.463C157.747 20.8817 160.468 18.4781 160.468 12.3898C160.468 6.30139 158.065 4.37929 151.822 4.37929ZM97.5575 29.3738C91.4748 29.3738 87.3124 25.0468 87.3124 18.7993C87.3124 12.8714 91.6352 8.22474 97.5575 8.22474C103.321 8.22474 107.642 12.7108 107.642 18.7993C107.643 24.7272 103.16 29.3738 97.5575 29.3738ZM97.5575 10.1467C93.3964 10.1467 91.9546 14.1526 91.9546 18.7993C91.9546 23.1262 93.2361 27.4518 97.5575 27.4518C101.72 27.4518 103 23.1248 103 18.6388C103.001 14.3131 101.4 10.1467 97.5575 10.1467ZM27.1265 27.4517V26.3295C28.7273 26.3295 29.048 25.8493 29.048 25.3691C29.048 24.727 28.8877 24.2469 28.7273 23.7668C28.7273 23.7668 28.4066 22.4841 28.0872 21.5238H21.8443L21.2042 23.6063C21.0452 24.0878 20.8848 24.5681 20.8848 25.2086C20.8848 25.8507 21.5249 26.3295 22.4856 26.3295V27.4517H16.2427V26.3295C17.8435 26.3295 18.4835 25.8493 19.1236 24.0878L23.9261 9.6666C23.7658 9.02454 23.2846 8.54441 22.3253 8.54441V7.42222H27.4458C29.1925 12.5546 30.9533 17.6823 32.7279 22.8052C33.5283 25.5283 34.3287 26.3296 35.6089 26.3296V27.4518H27.1265V27.4517ZM24.8842 11.9096L22.4829 19.761H27.4458L24.8842 11.9096Z" clip-rule="evenodd" fill-rule="evenodd"></path>
</svg>
