<svg xml:space="preserve" style="enable-background:new 0 0 861 564;" viewBox="0 0 861 564" y="0px" x="0px" xmlns:xlink="http://www.w3.org/1999/xlink" xmlns="http://www.w3.org/2000/svg" id="Layer_1" version="1.1">
<style type="text/css">
	.st0{fill:#333333;}
</style>
<path d="M352.88,52.53c-4.56,0.06-9.14,0.42-13.67,0.09c-3.63-0.26-5.44,1.34-6.11,4.47
	c-1.26,5.9-2.73,11.81-3.32,17.79c-2.94,30.08-5.64,60.19-8.41,90.29c-2.84,30.9-5.65,61.79-8.49,92.69
	c-2.64,28.74-5.3,57.47-7.96,86.21c-3.58,38.73-7.16,77.46-10.72,116.19c-2.83,30.78-5.63,61.57-8.43,92.35
	c-0.1,1.12-0.02,2.26-0.02,3.4c-23.75,0-47.49,0-71.24,0c-0.19-0.65-0.48-1.28-0.56-1.94c-3.44-29.34-6.87-58.67-10.27-88.01
	c-5.6-48.26-11.17-96.52-16.76-144.78c-0.1-0.86-0.38-1.69-0.57-2.54c-0.14,0.03-0.27,0.07-0.41,0.1
	c-7.14,79.06-14.29,158.11-21.43,237.17c-23.75,0-47.49,0-71.24,0c-1.9-16.89-3.77-33.79-5.72-50.68
	c-3.32-28.79-6.69-57.58-10.02-86.37c-4.26-36.73-8.51-73.45-12.75-110.18c-4.01-34.69-7.99-69.38-12-104.06
	c-4.21-36.39-8.45-72.77-12.67-109.15c-1.51-13.04-3.06-26.07-4.41-39.12c-0.29-2.79-1.04-3.92-4.09-3.81
	c-6.15,0.22-12.32-0.04-18.47-0.1c0-14.84,0-29.68,0-44.53c35.62,0,71.24,0,106.86,0c9.33,79.83,18.67,159.66,28,239.49
	c1.79-12.99,2.97-25.94,4.14-38.89c2.42-26.71,4.86-53.41,7.24-80.12c0.75-8.4,2.38-16.9,1.77-25.21
	c-1.34-18.19-3.87-36.3-5.88-54.44c-1.51-13.61-2.97-27.22-4.45-40.82c36.31,0,72.61,0,108.92,0c0,14.8,0,29.59,0,44.87
	c-4.47,0-8.59,0-12.92,0c7.63,66.3,15.2,132.11,22.77,197.91c0.71-0.64,0.89-1.27,0.96-1.92c0.71-7.38,1.38-14.76,2.11-22.14
	c4.99-50.63,10.04-101.26,14.92-151.9c0.52-5.42,0.41-10.95,0.02-16.39c-0.34-4.85-1.73-5.72-6.57-5.72c-4.5,0-9.01,0-13.75,0
	c0-15.3,0-30.01,0-44.71c28.47,0,56.93,0,85.62,0C352.88,22.84,352.88,37.68,352.88,52.53z M270.68,307.6
	c-0.21,0.04-0.41,0.08-0.62,0.12c-10-86.86-19.99-173.72-30.04-261.01c4.93,0,9.22,0,13.5,0c0-11.13,0-21.89,0-32.69
	c-32.11,0-63.92,0-95.85,0c0,1.18-0.1,2.18,0.01,3.17c2.37,21.09,4.8,42.18,7.13,63.27c0.95,8.61,2.72,17.3,2.27,25.86
	c-1.02,19.13-3.18,38.21-4.9,57.3c-3.34,37.05-6.7,74.1-10.05,111.16c-0.93,10.28-1.87,20.56-2.81,30.83
	c-0.2,0.01-0.39,0.01-0.59,0.02c-11.34-97.18-22.68-194.36-34.03-291.59c-32.08,0-63.75,0-95.52,0c0,10.97,0,21.74,0,32.93
	c7.24,0,14.24,0,21.31,0c19.42,167.91,38.8,335.41,58.18,502.98c20.27,0,40.19,0,60.42,0c8.7-96.41,17.38-192.64,26.06-288.87
	c0.22,0,0.44,0,0.66,0c11.22,96.27,22.44,192.55,33.66,288.81c20.38,0,40.4,0,60.52,0c0.1-1.04,0.19-1.82,0.26-2.6
	c2.65-28.75,5.29-57.5,7.94-86.25c3.26-35.34,6.53-70.68,9.77-106.03c3.11-33.87,6.16-67.74,9.27-101.6
	c3.54-38.52,7.1-77.05,10.67-115.57c2.05-22.16,3.98-44.33,6.31-66.46c0.61-5.84,2.09-11.68,3.89-17.29
	c1.79-5.58,4.81-7.22,10.58-7.23c2.69,0,5.39,0,8.09,0c0-11.26,0-22.04,0-32.84c-24.53,0-48.8,0-73.25,0c0,10.95,0,21.72,0,32.84
	c3.27,0,6.32-0.01,9.38,0c5.23,0.03,8.57,2.2,9.68,7.34c0.95,4.41,1.66,9.09,1.27,13.54c-2.39,27.74-5.07,55.45-7.76,83.17
	c-3.75,38.62-7.58,77.23-11.39,115.85C273.39,280.37,272.03,293.99,270.68,307.6z" class="st0"></path>
<path d="M271.63,386.78c0.56-5.61,1.13-11.21,1.68-16.82c3.37-34.41,6.75-68.83,10.11-103.24
	c3.12-32.03,6.2-64.07,9.32-96.1c3.22-33.05,6.5-66.1,9.7-99.15c0.71-7.34,0.23-14.61-2.22-21.63c-3.12-8.94-7.73-12.3-17.2-12.68
	c-0.55-0.02-1.1-0.13-2.04-0.24c0-2.22,0-4.35,0-6.48c0-2.15,0-4.29,0-6.67c18.82,0,37.36,0,56.13,0c0,4.35,0,8.62,0,13.17
	c-12.23-0.01-15.97,9.09-18.16,18.45c-2.3,9.83-3.33,20.01-4.3,30.09c-3.53,36.81-6.82,73.64-10.18,110.46
	c-2.83,30.91-5.62,61.83-8.45,92.74c-3.56,38.87-7.16,77.73-10.71,116.6c-3.11,33.98-6.17,67.97-9.25,101.95
	c-0.93,10.23-1.82,20.46-2.87,30.68c-0.09,0.9-1.24,2.42-1.9,2.43c-14.59,0.14-29.19,0.11-44.1,0.11
	c-14.01-120.2-28-240.13-41.98-360.07c-0.21,0.01-0.41,0.02-0.62,0.03c-10.83,119.84-21.65,239.68-32.5,359.78
	c-15.25,0-30.35,0-45.72,0c-1.15-9.76-2.3-19.48-3.44-29.2c-3.82-32.76-7.65-65.51-11.45-98.27c-4.01-34.57-7.99-69.15-12.01-103.72
	c-3.74-32.19-7.54-64.37-11.29-96.56c-3.76-32.3-7.48-64.61-11.23-96.92c-2.92-25.16-5.91-50.32-8.74-75.49
	c-0.28-2.48-1.29-2.94-3.46-2.89c-5.23,0.12-10.46,0.04-15.89,0.04c0-4.64,0-8.92,0-13.44c1.22-0.07,2.33-0.18,3.43-0.18
	c24.09-0.01,48.18,0.03,72.26-0.07c2.68-0.01,3.64,0.62,3.96,3.46c5.28,46.49,10.71,92.95,16.07,139.43
	c5.6,48.52,11.16,97.04,16.73,145.56c2.78,24.26,5.54,48.52,8.33,72.78c0.07,0.62,0.32,1.23,0.94,1.76
	c0.96-10.52,1.94-21.03,2.89-31.55c3.38-37.39,6.75-74.79,10.12-112.19c2.6-28.87,5.18-57.75,7.77-86.62
	c1.47-16.37,3.36-32.71,4.21-49.11c0.42-8-0.92-16.12-1.79-24.15c-2.04-18.83-4.28-37.64-6.42-56.46c-0.09-0.78-0.01-1.57-0.01-2.61
	c26.1,0,52.18,0,78.51,0c0,4.26,0,8.54,0,13.3c-4.89,0-9.83,0-15.3,0c13.49,116.9,26.93,233.26,40.36,349.62
	C271.16,386.73,271.4,386.75,271.63,386.78z" class="st0"></path>
<g>
	<path d="M349.1,482.75h-0.34v53.76c0,10.61,1.37,14.15,8.56,14.15h0.34v1.83h-20.2v-1.83h0.57
		c6.16,0,8.1-3.31,8.1-14.15v-53.3c0-5.14-1.6-6.96-5.94-6.96h-2.17v-1.83h20.66l16.44,57.98l16.09-57.98h19.97v1.83h-1.6
		c-4.11,0-6.05,1.83-6.05,6.96v60.49c0,5.14,1.71,6.96,6.05,6.96h1.6v1.83h-27.96v-1.83h2.74c4.22,0,5.82-1.94,5.82-6.96v-60.95
		h-0.34l-19.4,71.11h-2.4L349.1,482.75z" class="st0"></path>
	<path d="M414.38,550.66c4.91-0.57,6.96-4.22,9.36-12.1l20.77-65.97h2.74l22.03,69.96c1.83,5.71,3.88,7.76,8.45,8.1
		v1.83h-28.53v-1.83h2.74c3.54,0,5.14-2.05,5.25-4.34c0-2.05-0.46-4.45-1.6-8.22l-3.54-11.64h-21.8l-2.4,7.76
		c-1.25,4.22-2.05,8.1-2.05,10.96c0.11,3.42,1.83,5.48,5.36,5.48h1.83v1.83h-18.6V550.66z M451.47,524.29l-10.39-33.33l-10.16,33.33
		H451.47z" class="st0"></path>
	<path d="M478.86,513.79c0-24.42,13.12-40.52,27.62-40.52c5.14,0,9.13,2.17,12.67,5.02c1.25,0.91,2.28,1.6,3.42,1.6
		c1.37,0,2.74-1.48,3.65-6.73h1.6l0.8,30.93h-1.94c-3.77-19.86-11.53-28.99-19.97-28.99c-10.27,0-14.72,14.72-14.72,38.24
		c0,22.83,3.77,38.35,15.07,38.35c6.96,0,10.39-5.59,10.39-14.95v-10.39c0-5.02-1.94-6.96-5.94-6.96h-2.51v-1.83h25.68v1.83h-0.69
		c-3.99,0-5.59,1.48-5.59,6.96v27.05h-1.6c-1.25-4.57-2.74-7.65-4.57-7.65c-1.25,0-2.28,1.03-3.31,2.05
		c-3.42,3.31-6.85,5.71-12.21,5.71C491.42,553.51,478.86,536.85,478.86,513.79z" class="st0"></path>
	<path d="M536.72,550.66c4.91-0.57,6.96-4.22,9.36-12.1l20.77-65.97h2.74l22.03,69.96c1.83,5.71,3.88,7.76,8.45,8.1
		v1.83h-28.53v-1.83h2.74c3.54,0,5.14-2.05,5.25-4.34c0-2.05-0.46-4.45-1.6-8.22l-3.54-11.64h-21.8l-2.4,7.76
		c-1.25,4.22-2.05,8.1-2.05,10.96c0.11,3.42,1.83,5.48,5.36,5.48h1.83v1.83h-18.6V550.66z M573.82,524.29l-10.39-33.33l-10.16,33.33
		H573.82z" class="st0"></path>
	<path d="M603.95,550.43l39.72-74.19h-14.72c-13.92,0-16.78,9.93-18.6,27.39h-1.71l0.91-29.22h46.8v2.05l-39.83,74.19
		h19.4c13.92,0,16.44-12.21,18.6-29.9h1.71l-1.6,31.73h-50.68V550.43z" class="st0"></path>
	<path d="M662.83,550.66h1.71c4.34,0,6.05-1.83,6.05-6.96V483.2c0-5.14-1.71-6.96-6.05-6.96h-1.71v-1.83H690v1.83h-1.71
		c-4.34,0-5.94,1.83-5.94,6.96v60.49c0,5.14,1.6,6.96,5.94,6.96H690v1.83h-27.16V550.66z" class="st0"></path>
	<path d="M705.86,486.17v49.88c0,11.3,1.25,14.61,8.45,14.61h0.46v1.83h-19.97v-1.83h0.46c6.28,0,7.99-3.31,7.99-14.61
		v-53.76c-2.85-4.22-5.14-5.82-8.67-6.05v-1.83h18.49l32.76,56.5v-40.06c0-11.19-1.6-14.61-8.67-14.61h-0.46v-1.83h20.43v1.83h-0.57
		c-5.93,0-8.22,3.54-8.22,14.61v63h-3.08L705.86,486.17z" class="st0"></path>
	<path d="M760.98,550.66h1.71c4.34,0,5.93-1.83,5.93-6.96V483.2c0-5.02-1.6-6.96-5.93-6.96h-1.71v-1.83h48.39
		l0.91,28.65h-1.83c-1.37-15.98-5.48-26.71-17.46-26.71h-4.56c-4.34,0-5.94,1.71-5.94,6.85v27.74h3.31
		c8.56,0,10.96-6.85,11.07-16.55h1.71v36.07h-1.71c-0.11-9.7-2.4-17.46-11.07-17.46h-3.31v30.7c0,5.25,1.6,6.85,5.94,6.85h5.59
		c12.21,0,16.66-13.13,18.26-29.1h1.83l-1.71,31.04h-49.42V550.66z" class="st0"></path>
</g>
<g>
	<g>
		<path d="M814.42,438.92c0-8.41,5.82-14.87,13.09-14.87s13.09,6.47,13.09,14.87c0,8.41-5.82,14.95-13.09,14.95
			S814.42,447.32,814.42,438.92z M839,438.92c0-7.6-4.77-13.58-11.48-13.58s-11.56,5.98-11.56,13.58c0,7.68,4.85,13.74,11.56,13.74
			S839,446.6,839,438.92z M829.3,443.04c-0.32-2.34-0.65-3.96-2.26-3.96h-1.05v6.14c0,0.73,0.24,0.97,1.05,0.97h0.81v0.89h-7.03
			v-0.89h0.65c0.81,0,1.21-0.16,1.21-0.97v-13.17c0-0.81-0.4-1.05-1.21-1.05h-0.65v-1.05h6.63c3.64,0,5.9,1.37,5.9,4.45
			c0,2.51-2.02,3.96-4.53,4.28c1.62,0.4,2.67,2.18,3.31,3.8c0.97,2.42,1.21,2.67,1.86,2.67c0.4,0,0.97-0.57,0.89-2.26h0.73
			c0.16,2.75-0.81,4.61-2.59,4.61C831.4,447.48,829.78,446.6,829.3,443.04z M826.95,438.27c2.02,0,2.83-1.29,2.83-3.8
			c0-2.26-0.81-3.48-2.18-3.48h-0.57c-0.65,0-1.05,0.24-1.05,1.05v6.22C825.98,438.27,826.79,438.27,826.95,438.27z" class="st0"></path>
	</g>
</g>
</svg>
