<svg viewBox="0 0 1179.55 177.24" xmlns="http://www.w3.org/2000/svg" data-name="Layer 1" id="Layer_1"><defs><style>.cls-1{fill:#333;}</style></defs><path transform="translate(-10.27 -9.93)" d="M89.58,9.93a33.57,33.57,0,0,0,4.58,1.82,45.23,45.23,0,0,1,28.24,68c-2.77,4.49-7.06,8-10.75,12.15.09.2.19,1.06.52,1.17,22.5,7,31.75,18.52,32.52,40.74.85,24.25-8.78,39.71-29.91,47.69-5.61,2.11-11.37,3.8-17.06,5.68H10.27V9.93ZM56.79,113.29v39.5c9.72-.91,18.73-1.16,27.51-2.74s14.21-7.49,14.2-17c0-9.25-4.43-15.89-13.63-17.46C76,114.08,66.94,114.05,56.79,113.29Zm0-34.17c10.75.38,21.63,2,26.84-8.42,2.4-4.81,2.09-13.36-.72-17.88-5.65-9-16-7.76-26.12-7.31Z" class="cls-1"></path><path transform="translate(-10.27 -9.93)" d="M774.94,9.93c9.17,3.2,18.78,5.5,27.43,9.77,35,17.28,52.72,51.91,48,92.49-3.94,33.9-32.26,64.26-67.76,72.7-2.59.62-5.11,1.51-7.66,2.27H697.66c-.25-8.75-.72-17.51-.73-26.26q-.12-69.45,0-138.9c0-4,.48-8,.73-12.07ZM743.12,49.16V148c20.62,1.23,39.61-1.06,51.86-19.28s12.31-38.16,2-57C785.62,51.16,765.68,47.76,743.12,49.16Z" class="cls-1"></path><path transform="translate(-10.27 -9.93)" d="M545.13,9.93a31.07,31.07,0,0,0,4.55,1.86C586,20.34,602.86,54.94,587.23,89c-6.36,13.85-17.68,21.66-32.63,25.91l53.58,72.25H551.23Q531,154.3,510.68,121.44l-2.15,1v64.75H461.75c.2-34.1.53-68.2.56-102.3,0-25-.36-50-.56-74.93Zm-36.24,79c12.49.72,24.5,1.31,32.42-9.86,5.35-7.54,5.3-16.4-.15-23.81-8-10.92-20.07-10.13-32.27-9.94Z" class="cls-1"></path><path transform="translate(-10.27 -9.93)" d="M1090.17,187.16a53.31,53.31,0,0,1-.87-7q-.08-81.64,0-163.3a53.37,53.37,0,0,1,.87-7h99.65v38.7h-54.26V79h50.19v39.33H1135.6v30.14h54.22v38.71Z" class="cls-1"></path><path transform="translate(-10.27 -9.93)" d="M266.52,187.16c-.13-25.68,0-51.36-.57-77a26.88,26.88,0,0,0-4.35-13.85c-19.82-28.95-40.06-57.61-60.16-86.35h54.91L289,58.39c11.54-17.25,22-32.86,32.43-48.46h54.91c-19.69,28.2-39.6,56.25-58.86,84.74A34.65,34.65,0,0,0,312,112.2c-.74,25-.56,50-.71,75Z" class="cls-1"></path><path transform="translate(-10.27 -9.93)" d="M988.48,9.93V187.16H943.74q-.25-69.39-.49-138.77c0-12.82.32-25.64.49-38.46Z" class="cls-1"></path></svg>