<svg xmlns="http://www.w3.org/2000/svg" fill="none" viewBox="0 0 159 37" height="37" width="159">
<path fill="#333333" d="M0.955001 1.648H0V0.952316H8.65838V1.648H6.29516L11.0376 25.8594L15.7792 1.648H12.9793V0.952316H18.1421V1.648H16.6208L9.8884 35.8609H7.68739L0.955001 1.648Z"></path>
<path fill="#333333" d="M17.7206 24.3535H22.9643L20.3423 10.8564L17.7206 24.3535ZM13.2378 35.1644H14.7588L21.4915 0.951462H23.6922L30.4246 35.1644H31.3311V35.8603H22.7212V35.1644H25.0842L23.0933 25.0492H17.5907L15.6002 35.1644H18.3997V35.8603H13.2378V35.1644Z"></path>
<path fill="#333333" d="M31.8101 35.1643H32.9672V1.64743H30.8237V0.951752H38.3559L46.1157 22.0388V1.64743H43.8338V0.951752H48.8664V1.64743H46.9977V35.9574H45.606L33.8492 3.42807V35.1643H36.131V35.8603H31.8101V35.1643Z"></path>
<path fill="#333333" d="M49.6191 35.8603V35.1643H51.1242V1.64743H49.6191V0.951752H58.0668V1.64743H56.5132V35.1643H58.0668V35.8603H49.6191Z"></path>
<path fill="#333333" d="M63.3588 35.8603V35.1643H64.9612V1.5826H64.8641C62.582 1.5826 60.2356 4.01066 59.7984 14.5948H59.0864V0.951752H76.2735V14.5948H75.5616C75.0761 4.01066 72.5352 1.5826 70.4961 1.5826H70.3502V35.1646H72.0012V35.8606H63.3588V35.8603V35.8603Z"></path>
<path fill="#333333" d="M81.6406 35.8603V35.1643H83.2427V19.6116L78.1607 1.64743H77.0767V0.951752H85.8644V1.64743H83.4047L88.13 18.1066L92.1761 1.64743H89.6193V0.951752H94.2963V1.64743H93.0175L88.6317 19.5468V35.1643H90.2342V35.8603H81.6406Z"></path>
<path fill="#333333" d="M99.2397 35.8603V35.1643H100.648V1.64743H99.2397V0.951752H114.533V11.3902H113.821C113.384 4.01037 110.989 1.64714 107.202 1.64714H106.037V17.4106H106.554C109.484 17.4106 110.422 16.1161 110.714 11.3902H111.377V24.4666H110.714C110.422 19.3041 109.484 18.1063 106.83 18.1063H106.037V35.1643H108.173V35.8603H99.2397Z"></path>
<path fill="#333333" d="M116.168 24.3535H121.412L118.79 10.8564L116.168 24.3535ZM111.685 35.1644H113.206L119.939 0.951462H122.139L128.872 35.1644H129.778V35.8603H121.168V35.1644H123.532L121.541 25.0492H116.038L114.048 35.1644H116.847V35.8603H111.685V35.1644H111.685Z"></path>
<path fill="#333333" d="M130.287 35.8603V35.1643H131.695V1.64743H130.287V0.951752H138.541V1.64743H137.085V35.1643H138.541V35.8603H130.287Z"></path>
<path fill="#333333" d="M146.334 1.64743V16.7635H147.062C149.685 16.7635 151.578 16.8769 151.578 10.4677V8.76852C151.578 2.55389 149.684 1.64743 147.354 1.64743H146.334ZM151.287 31.3938V22.8485C151.287 18.2845 149.976 17.4592 147.256 17.4592H146.334V35.1643H148.471V35.8603H139.537V35.1643H140.945V1.64743H139.537V0.951752H147.354C153.083 0.951752 156.772 3.57343 156.772 9.5456C156.772 14.7889 153.6 16.6341 149.555 17.1196V17.1682C153.795 17.7993 156.627 19.4988 156.627 25.6649V33.789C156.627 34.8573 156.983 35.1486 157.566 35.1486C157.955 35.1486 158.31 35.0193 158.569 34.9222V35.6181C158.278 35.8123 157.355 36.1522 156.092 36.1522C153.082 36.1516 151.287 35.0835 151.287 31.3938Z"></path>
</svg>
