<svg xml:space="preserve" style="enable-background:new 0 0 174.1 80;" viewBox="0 0 174.1 80" y="0px" x="0px" xmlns:xlink="http://www.w3.org/1999/xlink" xmlns="http://www.w3.org/2000/svg" id="Layer_1" version="1.1">
<style type="text/css">
	.st0{fill-rule:evenodd;clip-rule:evenodd;fill:#333333;}
	.st1{fill:none;}
</style>
<path d="M0,64.1c7.2-0.3,9-1.4,9-4.8V11c0-3.4-1.7-4.8-9-5.2V4.5h29.3c19,0,24.1,7.6,24.1,14.5
	c0,6.6-5.2,12.4-18.3,14.1v0.3c14.1,0.3,20.7,6.6,20.7,14.8c0,8.6-6.2,17.2-25.5,17.2H0V64.1z M27.9,32.8c9.3,0,12.1-5.2,12.1-13.1
	c0-7.6-2.1-13.4-12.4-13.4h-5.9v26.6L27.9,32.8L27.9,32.8z M29,63.8c11.4,0,13.1-5.5,13.1-15.5c0-7.6-3.4-14.1-14.1-14.1h-6.2v29.7
	H29L29,63.8L29,63.8z M74.1,1.4c-0.7,0.3-1.4,1-1.4,1.7c0,0.3,0,0.3,0.3,1c0.7,1.4,2.1,1.4,2.4,1.4c1,0,1.7-0.3,3.8-0.7
	C80,4.5,81,4.5,82.1,4.1c1.4-0.3,5.5-1.4,10-1.4c3.1,0,10.7,0.3,17.6,6.2c7.6,6.2,10.3,15.2,10.3,24.1c0,10.3-3.8,17.6-6.2,20.3
	C108.6,61,100,66.6,90.7,66.6c-1,0-3.1,0-5.9-0.7c-6.6-1.4-10.3-4.1-12.4-5.5C71,62.1,70,63.8,70,66.2c0,1.4,0.3,2.8,0.7,3.4
	c0.7,1.4,2.1,3.4,5.5,5.2c4.5,2.1,8.6,2.1,10.3,2.1c1.4,0,11.4-0.3,17.6-4.1c2.4-1.7,3.4-3.4,4.1-4.5l1,0.3
	c-1.4,2.8-2.8,4.5-5.5,6.6c-2.4,1.7-7.9,4.8-15.5,4.8c-1.4,0-8.6-0.3-13.1-3.4c-0.3-0.3-2.4-1.4-3.4-3.4c-2.1-2.8-2.4-5.5-2.4-6.9
	c0-3.4,2.4-6.6,2.8-7.2c-1-1-2.4-2.4-3.4-3.4c-2.4-2.8-7.6-8.6-7.6-19c0-4.1,0.7-12.4,9.3-19c2.4-1.4,5.2-3.1,7.9-4.5
	c-0.7-0.3-1.4-0.7-2.4-1.4c-3.8-1.7-5.2-4.8-5.2-7.2c0-2.8,1.4-4.1,2.4-4.5L74.1,1.4L74.1,1.4L74.1,1.4z M88.6,60.7l0.7-1
	c-0.3-0.3-0.7-1-1.4-1.4c-0.7-0.7-2.8-1.7-5.5-1.7c-1.4,0-3.1,0.3-3.4,0.3c0.3,0.3,1.4,2.4,3.1,3.8c1.4,1.4,5.2,4.5,11,4.5
	c2.4,0,7.2-0.7,11.7-5.2c5.2-4.8,7.2-12.4,7.2-19.3c0-3.1-0.3-11-6.2-17.9c-1-1-3.1-3.4-6.6-5.2c-2.4-1-4.8-1.7-10-1.7
	c-6.6-0.3-5.9,0-10-1.4c-3.4,5.2-5.9,8.6-5.9,20.3c0,1.7,0,3.4,0.3,5.2c0.3,6.2,1.7,9.7,4.5,15.5c0.7-0.3,3.4-1.4,6.6-1.4
	c2.8,0,4.5,0.3,6.9,1.4c0.7-1.4,1.4-2.8,1.4-4.5c0-1.4-0.3-2.4-0.3-2.4c-0.7-1.4-2.4-2.4-4.5-5.5c-0.7-1-4.5-6.6-4.5-12.4
	c0-4.1,2.4-8.6,5.2-11.7c0.7-0.7,1.4-1.4,3.4-2.4c-0.7,2.1-1,3.1-1,4.5c0,3.4,2.4,6.6,4.5,8.6c0.3,0.7,1,1.4,1.4,2.1
	c1,1.4,3.4,4.5,3.4,9.3c0,2.4-0.3,4.5-2.8,9c-2.8,4.8-5.5,7.6-9.3,11.4V60.7L88.6,60.7L88.6,60.7z M121.7,64.1c7.2-0.3,9-1.4,9-4.8
	V11c0-3.4-1.7-4.8-9-5.2V4.5h52.1l0.3,21l-1.4,0.3c-6.2-13.8-10.3-19.7-21-19.7h-8.6v27.6h3.4c6.9,0,10.7-2.8,13.1-11.7h1v25.5H160
	c-2.4-9-6.2-12.1-13.1-12.1h-3.4v24.1c0,3.4,1.4,4.8,9.3,5.2v1h-31.4v-1.7H121.7z" class="st0" id="Layer_x0020_1"></path>
<rect height="38.4" width="53.8" class="st1" y="-8.9" x="60.3"></rect>
</svg>
