<svg xml:space="preserve" style="enable-background:new 0 0 265.8 40;" viewBox="0 0 265.8 40" y="0px" x="0px" xmlns:xlink="http://www.w3.org/1999/xlink" xmlns="http://www.w3.org/2000/svg" id="Layer_1" version="1.1">
<style type="text/css">
	.st0{fill-rule:evenodd;clip-rule:evenodd;fill:#333333;}
</style>
<path d="M126.1,10.7c0,5.5-0.5,22.4-0.5,22.4c0,3.3,1.1,4.7,4.1,4.7v1.5h-11.9v-1.5c3,0,4.6-1.5,4.6-4.7l1.1-27.6
	c-0.9-2.2-1.8-2.9-4.1-3.1V1.1h9.1l9.6,25.8l9.8-25.8h8.2v1.3c-2.3,0-3.6,1.1-3.6,3.6l1.1,26.7c0,4,0.7,5.1,3.9,5.1v1.5h-13.7v-1.5
	c2.7,0,3.9-0.9,3.7-5.1c0,0-0.5-18.7-0.7-22l-6.6,18.5c-1,2.6-1.8,5.3-2.5,8l-2.1,0.2c-0.5-2-2-5.6-2-5.6S128.1,16,126.1,10.7z
	 M114.9,39.5c-0.7-0.2-1.4-0.2-2.1-0.2c-1.4,0-3.9,0.7-6.9,0.7c-11.6,0-20.1-7.1-20.1-20.2c0-11.1,8-19.6,20.3-19.6
	c2.8,0,6.1,0.5,8.7,1.6c0.5-0.5,0.7-0.9,1.2-1.5h1.1c-0.2,2-0.9,8.5-0.9,8.5h-1.1c-0.7-3.8-2.7-6.4-8.9-6.4c-7.5,0-14.2,6-14.2,17.1
	c0,12.5,6.9,18,14.6,18c5,0,8-2.9,10-6.5l1.2,0.5L114.9,39.5z M81.2,8.2H80c-0.2-3.5-1.2-4.5-3.9-4.5h-5.2v28.5
	c0,4.7,0.9,5.6,3.9,5.6v1.5H61.5v-1.5c3,0,3.9-0.9,3.9-5.8V3.6h-5.2c-3.4,0-3.9,0.9-4.8,4.5h-1.2L55.1,0L56,0.2
	c0.4,0.9,1.1,0.9,3.2,0.9h17.3c3.2,0,3.9,0,4.6-1.1h1.1L81.2,8.2z M43.6,40c-2.5,0-4.5-0.4-5.9-0.9c-1.4-0.4-2.5-0.9-3-1.3
	c-0.7,0.7-1.2,1.6-1.2,1.6l-1.1-0.4l0.9-8.5l1.2,0.2c0.7,4,3.4,6.8,8.9,6.8c4.3,0,7.1-3.6,7.1-7.6c0-3.2-1.2-4.9-5.5-8.1
	c-1.4-0.9-2.7-1.6-3.7-2.5c-3.9-2.5-6.4-5.4-6.4-10.1c0-5.4,4.5-9,10.3-9c3.4,0,5.5,1.1,6.2,1.4l1.2-1.4l0.9,0.2l-0.9,7.7l-1.2-0.2
	c0-3.6-2.1-5.2-5.7-5.2c-3.4,0-5.9,1.8-5.9,5.2c0,3.1,2.3,5,5,6.8c1.4,0.9,2.5,1.6,3.6,2.3c6.2,4.5,7.7,7.4,7.7,11.7
	C56.1,35.3,51.3,40,43.6,40z M23.3,8.3h-1.4c0-3.2-1.4-4.5-4.3-4.5h-8V18h5.2c2.7,0,3.2-1.4,3.6-3.8h1.2v10.1h-1.2
	c-0.4-2.7-0.9-3.8-3.7-3.8h-5v12.1c0,4.5,1.1,5,3.9,5v1.4H0v-1.4c3.4,0,3.9-0.9,3.9-5V6.1c0-2.5-1.1-3.6-3.9-3.6V1.3h18.5
	c3.2,0,3.9-0.2,4.5-1.3h1.2L23.3,8.3z M215.6,10.5v21.6c0,4.7,1.1,5.6,3.9,5.6v1.4h-21v-1.4c1.6,0,3-0.5,3-1.6c0-0.7-0.2-2-0.5-3.2
	l-1.6-5.2h-11.8c-0.2,0.7-2.3,6.7-2.3,8.3c0,1.4,1.6,1.8,2.7,1.8v1.4h-9.8v-1.4c1.8,0,3.2-0.2,4.5-4l9.1-29.4
	c-0.5-1.3-1.2-1.6-2.5-1.8V1.3h8l9.6,30.8c0.9,3.2,1.8,4.9,3.2,5.6c2.1-0.7,2.7-1.4,2.7-5.6V6.1c-1.6-2.2-1.8-3.6-4.8-3.6V1.3h9.1
	L232,27V7.4c0-4-0.9-4.9-3.9-4.9V1.3h20v1.3c-1.2,0-2.3,0.5-2.3,1.8c0,0.9,0.4,1.8,0.7,2.9l5.7,12.4l5.5-12.1
	c0.9-1.6,1.1-2.5,1.1-3.4c0-1.1-0.7-1.6-2.3-1.6V1.3h9.4v1.3c-2.3,0-3.7,2.2-4.8,4.7l-7.3,15.1v9.9c0,4.3,1.1,5.4,3.9,5.4v1.4h-13.5
	v-1.4c2.9,0,3.9-1.1,3.9-5.4v-8.5L240.2,7c-1.4-3.2-2-4-2.9-4.5c-1.8,0.7-2.3,2-2.3,4.9v27.7c0,0,0.2,2.2,0.4,4.7L233,40L215.6,10.5
	z M193.3,8.6l-5,16.4h10.3L193.3,8.6z M170.6,24.8H168v7.7c0,3.9,1.1,4.8,4.1,4.8v1.4h-13.7v-1.4c2.8,0,3.9-1.1,3.9-5V7.2
	c0-3.9-1.1-4.6-3.9-4.6V1.3h10.3c10,0,15.8,3,15.8,11.2C184.5,21.1,177.4,24.8,170.6,24.8z M168.9,3.8H168v18.4h1.6
	c5.9,0,8.9-2.7,8.9-9.4C178.5,5.9,175.8,3.8,168.9,3.8z M108.5,31.6c-6.8,0-11.4-4.8-11.4-11.8c0-6.6,4.8-11.8,11.4-11.8
	c6.4,0,11.2,5,11.2,11.8C119.7,26.4,114.7,31.6,108.5,31.6z M108.5,10.2c-4.6,0-6.2,4.5-6.2,9.6c0,4.8,1.4,9.6,6.2,9.6
	c4.6,0,6.1-4.8,6.1-9.8C114.6,14.8,112.8,10.2,108.5,10.2z M30.2,29.4v-1.2c1.8,0,2.1-0.5,2.1-1.1c0-0.7-0.2-1.2-0.4-1.8
	c0,0-0.4-1.4-0.7-2.5h-6.9l-0.7,2.3c-0.2,0.5-0.4,1.1-0.4,1.8c0,0.7,0.7,1.2,1.8,1.2v1.2h-6.9v-1.2c1.8,0,2.5-0.5,3.2-2.5l5.3-16
	c-0.2-0.7-0.7-1.2-1.8-1.2V7.2h5.7c1.9,5.7,3.9,11.4,5.9,17.1c0.9,3,1.8,3.9,3.2,3.9v1.2L30.2,29.4L30.2,29.4z M27.7,12.2L25,20.9
	h5.5L27.7,12.2z" class="st0"></path>
</svg>
