<svg viewBox="0 0 272.7 80" version="1.1" xmlns="http://www.w3.org/2000/svg" id="Layer_1">
  
  <defs>
    <style>
      .st0 {
        fill: none;
      }

      .st1 {
        fill: #333;
        fill-rule: evenodd;
      }
    </style>
  </defs>
  <rect height="38.4" width="72.6" y="-8.5" x="93.5" class="st0"></rect>
  <g>
    <path d="M6.1,78.8H0v1.2h33.7v-21.3h-1s0,12.3-4.1,16.3c-3.4,3.4-7,3.8-13,3.8v-39.1s4.1-.3,6.1,1.7c3.1,3.1,3.4,7.1,3.4,12.6h1.1v-30h-1.1c0,5.5-.3,9.5-3.4,12.6-2,2-6.1,1.7-6.1,1.7V1.2c5.9,0,8.7.3,12.2,3.8,4,4,4.1,16.3,4.1,16.3h1V0H0v1.2h6.1v77.7h0Z" class="st1"></path>
    <path d="M95.7,1.2v77.6c5.9,0,9.5-.3,13-3.8,4-4,4.1-16.3,4.1-16.3h1v21.3h-33.7v-1.2h6.1V1.2h-6.1V0h21.2v1.2h-5.5Z" class="st1"></path>
    <path d="M175.1,1.2v77.6c5.9,0,9.5-.3,13-3.8,4-4,4.1-16.3,4.1-16.3h1v21.3h-33.7v-1.2h6.1V1.2h-6.1V0h21.2v1.2h-5.5Z" class="st1"></path>
    <path d="M245.1,78.8h-6.1v1.2h33.7v-21.3h-1s0,12.3-4.1,16.3c-3.4,3.4-7,3.8-13,3.8v-39.1s4.1-.3,6.1,1.7c3.1,3.1,3.4,7.1,3.4,12.6h1.1v-30h-1.1c0,5.5-.3,9.5-3.4,12.6-2,2-6.1,1.7-6.1,1.7V1.2c5.9,0,8.7.3,12.2,3.8,4,4,4.1,16.3,4.1,16.3h1V0h-32.9v1.2h6.1v77.7h0Z" class="st1"></path>
    <path d="M268,76.7c0-1.1.9-1.9,1.9-1.9s1.9.9,1.9,1.9-.9,1.9-1.9,1.9-1.9-.9-1.9-1.9h0ZM271.6,76.7c0-.9-.7-1.7-1.7-1.7s-1.7.7-1.7,1.7.7,1.7,1.7,1.7,1.7-.7,1.7-1.7h0ZM270.8,77.7h-.3l-.6-1h-.5v1h-.2v-2.1h.9c.6,0,.7.2.7.6s-.3.6-.7.6l.6,1h0ZM269.8,76.5c.3,0,.8,0,.8-.3s-.3-.3-.6-.3h-.6v.7h.4Z" class="st1"></path>
  </g>
</svg>