<svg xml:space="preserve" style="enable-background:new 0 0 283.3 40;" viewBox="0 0 283.3 40" y="0px" x="0px" xmlns:xlink="http://www.w3.org/1999/xlink" xmlns="http://www.w3.org/2000/svg" id="Layer_1" version="1.1">
<style type="text/css">
	.st0{fill-rule:evenodd;clip-rule:evenodd;fill:#333333;}
	.st1{fill:none;}
</style>
<path d="M8.2,22.2V11.5l-3.3,1.4c0,0-0.8,1.9-0.8,4.7c0.3,2.2,1.4,4.7,2.2,5.5L8.2,22.2 M17.5,0.3c0.8,0,1.9,0.5,3,1.4
	c1.1,1.1,1.4,2.5,0.8,3.8c-0.3,1.1-0.8,1.9-1.9,2.5c-1.4,0.8-2.7,0.8-2.7,0.8V14l2.5,1.9l-2.5,2.2v6.8c0,0,2.5-1.4,4.1-4.7
	c0,0,0-0.3,0.3-0.5c0.3,0.8,0,2.5-0.8,4.9c-0.8,1.6-2.2,3.3-3.8,4.4c-3,1.6-5.2,1.9-7.7,1.4c-2.7-0.5-5.2-2.2-7.1-4.9
	C0.3,23.6,0,21.4,0,18.9c0.3-4.7,3.6-8.8,7.7-10.4C8.2,8.2,8.5,8.2,9,7.9C8.8,8.2,8.2,8.5,7.9,8.8c-1.4,0.8-2.5,2.5-2.7,3.8L13.2,9
	v11.2l-6.3,3c0.8,1.1,3,2.5,4.9,2.7c3,0.5,4.9-0.8,4.9-0.8v-7.1l-2.5-1.9l2.5-1.9V9c-1.4-0.3-3-0.5-4.1-0.8c-1.4-0.3-6-1.6-6.8-1.9
	C4.9,6,4.1,6,3.6,6.8S2.7,8.2,2.7,9C3,9.6,3.3,9.9,3.6,10.1c0,0-0.3,0-0.8-0.3C1.9,9.3,1.1,8.2,1.1,7.1c0-1.9,0.8-3.3,1.9-4.4
	c1.4-0.8,2.5-1.4,4.1-1.1c2.2,0.3,5.5,1.6,8.2,2.2c1.1,0.3,1.9,0.3,2.7-0.3c0.3-0.3,1.1-0.8,0.5-1.9c-0.5-1.1-1.6-1.1-2.7-1.1
	C17,0.3,17,0.3,17.5,0.3z M48.5,19.5l-3.6,2.5v-8.5L48.5,19.5 M48.5,11.2c0,0-2.5,1.4-4.1,2.5s-3.8,1.9-3.8,1.9v10.1l-1.4,1.1
	l0.3,0.3l1.4-1.1l4.4,4.1l7.7-6l-0.3-0.3l-4.1,3.3l-3.6-3.3v-1.4l7.1-5.2L48.5,11.2z M27.9,34c1.4-0.5,1.6-0.5,3-1.9
	s1.4-4.4,1.4-6.6s0-8.8,0-8.8L30.1,14l-1.4,1.4v10.1l1.4,1.4l1.1-1.1l0.3,0.3l-5.2,3.8l-3-3l-1.1,0.8l-0.3-0.3l2.5-1.6V7.4
	c0-1.1-0.8-1.4-1.1-1.4l5.5-4.4v12.9l4.4-3.8l3.3,3.8l1.6-1.1l0.3,0.3l-1.6,1.4v8.2l-0.3,3.8c0,2.5-1.1,5.2-3.6,6.3
	C31,34.2,29,34,27.9,34 M62.7,32.9c-2.5,0.5-4.1-0.8-4.9-1.9c-0.8-1.4-1.1-3-0.3-4.7c1.4-2.7,4.4-2.7,5.5-2.7V17
	c-0.3-0.5-2.2-0.3-2.2,0.8c-0.3,1.1,0.8,1.6,0.8,1.6s-0.8,0-1.6-0.5c-0.8-0.5-1.4-1.6-1.4-3c0.3-3.3,3.3-3.3,4.7-3.6V7.7
	c-0.5-0.8-1.1-1.9-2.2-1.9c-1.4,0-1.6,2.2-1.6,2.2s-0.3-0.5,0-2.2c0.3-1.6,1.6-3.6,4.1-3.6c1.9,0,3,1.1,4.1,2.5l8.8,16.2V7.9
	c-1.4-0.3-2.5-0.3-4.1-1.6l-1.6,1.6l-0.3-0.3l4.7-5.5c0,0,1.1,1.4,3,1.4c1.4,0,2.2-1.1,2.5-2.2c0.3,0.3,1.1,2.7-1.1,5.2
	c-0.8,0.8-2.2,1.4-3,1.4v21.9c0,0,0.3,0.3-0.3,0.3c-0.5,0-0.8-0.3-0.8-0.3L63.3,7.9v15.6c1.6,0.3,3.6,1.1,4.9,2.5l1.4-1.4l0.3,0.3
	l-4.7,5.2c-1.1-1.4-2.2-1.9-3.6-1.6s-1.6,1.4-1.9,1.9C60,31.5,60.5,32.9,62.7,32.9 M88.2,19.5l-3.6,2.5v-8.5L88.2,19.5 M87.9,11.2
	c0,0-2.5,1.4-4.1,2.5S80,15.6,80,15.6v10.1l-1.4,1.1l0.3,0.3l1.4-1.1l4.4,4.1l7.7-6l0-0.3l-4.4,3.3l-3.3-3.3v-1.4l7.1-5.2L87.9,11.2
	z M98.9,30.1l-3.8-3.3l-1.6,1.4l-0.3-0.3l1.6-1.4v-8.8c0.3-3.6-3.3-2.7-3-6.6c0.3-1.6,1.6-3,2.5-3.3c0.8-0.3,1.9-0.5,1.9-0.5
	s-1.6,1.1-1.1,2.5c0.5,2.2,4.4,2.2,4.4,5.2v9.9l2.7,2.2l0.8-0.5v-11l-1.4-1.4l3.8-3.3l3.3,3l-1.4,1.4v9.6l3.3,2.7l0.5-0.5V15.6
	l-1.4-1.4l3.8-3.3l3.6,3l1.4-1.4l0.3,0.3l-3,2.7v9.3l-8.2,4.9l-4.1-3.3L98.9,30.1 M265.2,19.5l-3.6,2.5v-8.5L265.2,19.5 M265.2,11.2
	c0,0-2.5,1.4-4.1,2.5s-3.8,1.9-3.8,1.9v10.1l-1.4,1.1l0.3,0.3l1.4-1.1l4.4,4.1l7.7-6l-0.3-0.3l-4.4,3.3l-3.6-3.3v-1.4l7.1-5.2
	L265.2,11.2z M228.8,15.3l4.7-4.1l3.3,3.3l4.4-3.3l3.3,3.6l4.7-3.6l3,3.6l1.6-1.4l0.3,0.3l-1.6,1.4v9.6l1.6,1.9l1.1-1.1l0.3,0.3
	l-4.7,4.4l-3.6-3.8l0.8-0.8V17l-2.5-2.7l-0.8,0.8v10.1l1.4,1.4l-3.3,3.3l-3-3.6l0.8-0.8V17l-2.5-2.7l-0.8,0.8v9.9l1.4,1.4l-3.8,3.6
	l-3.3-3.8l1.1-1.1v-8.5l-2.2-2.5L228.8,15.3L228.8,15.3 M219.2,15.1l4.4-3.8l3.3,3.8l1.4-1.4l0.3,0.3l-1.6,1.4v9.3l1.9,2.2l1.4-1.1
	l0.3,0.3l-4.7,4.1l-3-3.6l-1.6,1.4v-0.3l1.4-1.1v-9.9l-1.9-2.2L219.2,15.1L219.2,15.1 M220.5,7.1l3.3-3l2.7,3l-3.3,3L220.5,7.1
	 M206.6,22.2V11.5l-3.3,1.4c0,0-0.8,1.9-0.8,4.7c0.3,2.2,1.4,4.7,2.2,5.5L206.6,22.2 M216.2,0.3c0.8,0,1.9,0.5,3,1.4
	c1.1,1.1,1.4,2.5,0.8,3.8c-0.3,1.1-0.8,1.9-1.9,2.5c-1.4,0.8-2.7,0.8-2.7,0.8V14l2.5,1.9l-2.5,1.9v6.8c0,0,2.5-1.4,4.1-4.7
	c0,0,0-0.3,0.3-0.5c0.3,0.8,0,2.5-0.8,4.9c-0.8,1.6-2.2,3.3-3.8,4.4c-3,1.6-5.2,1.9-7.7,1.4c-2.7-0.5-5.2-2.2-7.1-4.9
	c-1.4-1.9-1.6-4.1-1.6-6.6c0.3-4.7,3.6-8.8,7.7-10.4c0.5-0.3,0.8-0.3,1.4-0.5c-0.3,0.3-0.8,0.5-1.1,0.8c-1.4,0.8-2.5,2.5-2.7,3.8
	l7.9-3.6V20l-6.3,3c0.8,1.1,3,2.5,4.9,2.7c3.3,0.3,5.2-1.1,5.2-1.1v-7.1l-2.7-1.9l2.5-1.9V8.5c-1.4-0.3-3-0.5-4.1-0.8
	c-1.4-0.3-6-1.6-6.8-1.9c-0.8-0.3-1.6-0.3-2.2,0.5c-0.5,0.5-0.8,1.4-0.8,2.2c0.3,0.5,0.5,0.8,0.8,1.1c0,0-0.3,0-0.8-0.3
	c-0.8-0.5-1.6-1.6-1.6-2.7c-0.3-1.6,0.5-3.3,1.9-4.4c1.4-0.8,2.5-1.4,4.1-1.1c2.2,0.3,5.5,1.6,8.2,2.2c1.1,0.3,1.9,0.3,2.7-0.3
	c0.3-0.3,1.1-0.8,0.5-1.9S215.6,0,214.5,0C215.1,0.3,215.3,0.3,216.2,0.3z M275.3,13.2v5.2l1.6,1.4c0,0,3.8-3,4.9-5.8
	c0,0-1.6,2.2-3.8,1.6C276.2,15.1,275.3,13.2,275.3,13.2 M271.2,26.6c0,0,1.6-2.7,4.4-2.2s3.6,3.3,3.6,3.3v-6.3l-1.9-1.6
	C275.3,21.9,271.5,24.7,271.2,26.6z M274,31.5c-0.5,0.3-2.7-0.5-3.3-2.7s1.1-3.8,3.3-6l-2.7-2.5v-4.9c0,0,1.9-1.1,3.8-1.9
	c1.6-1.1,3.3-2.2,3.3-2.2s1.1,1.6,2.5,1.4c2.2-0.3,1.9-1.9,1.9-2.2c0.5,0.8,1.4,2.5-2.5,6.8l3,2.5V26c0,0-3.6,1.9-6.8,4.4
	c0,0-1.9-2.2-3.3-1.4C271.8,29.6,272.3,31,274,31.5z M151.8,24.4l4.1,3.6V17l-4.1-3.6V24.4 M160,15.3l1.4-1.4l0.3,0.3l-1.4,1.4v10.1
	c0,0-2.5,1.4-4.4,2.2c-1.6,1.1-3.8,2.2-3.8,2.2l-4.7-3.8l-1.4,1.1l-0.3-0.3l1.4-1.1V15.3l0,0c0,0,2.2-1.1,4.1-1.9
	c1.6-1.1,3.6-1.9,3.6-1.9L160,15.3z M169,14.2l3-3c0,0,0.5,0.3,0.8,0.5c0.3,0.3,1.1,0.5,1.9,0.3c0.5-0.3,0.5-0.3,1.1-0.8
	c0.3,2.2-1.1,4.1-2.5,4.7c-0.5,0.3-2.2,0.8-4.1-1.4v11l1.9,1.6l1.6-1.4l0.3,0.3l-4.9,4.1l-3.8-3.3l-1.4,1.4l-0.3-0.3l1.9-1.9v-9.3
	l-1.6-2.2l-1.4,1.1l-0.3-0.3L166,11L169,14.2 M181.4,18.9l5.5-7.9c0,0,0.8,0.8,1.9,1.1c1.6,0.5,3-1.1,3-1.1
	c-0.3,2.2-1.4,4.7-3.6,4.9c-1.9,0.3-3.8-1.1-3.8-1.1l-0.3,0.5l7.7,11.5l1.6-1.4l0.3,0.3l-5.2,4.7L181.4,18.9 M177,8.2
	c0-1.6-0.8-2.7-1.6-2.7l6-4.1v23.6l0,0l1.6,1.6l1.1-1.1l0.3,0.3l-4.9,4.1l-3.3-3l-1.4,1.1l-0.3-0.3l2.2-1.9L177,8.2 M138.9,14.8
	c0,0-0.8,0.8-1.6,0.8c-1.1,0-1.6-0.8-1.6-0.8v3.3c0,0,0.8-0.8,1.6-0.8c1.1,0,1.6,0.8,1.6,0.8V14.8 M138.9,7.9L136.7,6l-1.1,0.8v7.7
	c0,0,0.8,0.8,1.6,0.8c1.1,0,1.6-0.8,1.6-0.8L138.9,7.9z M135.3,29.3c0,0,1.4,0.5,2.5-0.5c1.1-0.8,1.1-2.2,1.1-2.2v-8.2
	c0,0-0.8-0.8-1.6-0.8c-1.1,0-1.6,0.8-1.6,0.8v11H135.3z M127.4,7.9c0-1.6-0.8-2.5-1.6-2.5c-1.6,0-1.9,2.2-1.9,2.2s-0.3-1.6,1.1-3
	c0.8-0.8,2.2-1.9,4.4-1.4c2.2,0.5,3,2.5,3,4.1v21.9c0,0,0.8,0.3,1.4,0.3c0.8,0.3,1.4,0.3,1.4,0.3V3.3h0.3v3.6L140,3l3.6,3l1.6-1.4
	l0.3,0.3l-1.6,1.4v20.3c-0.3,1.4-0.3,2.7-1.6,3.3c-2.7,1.6-6-0.3-9.3-0.8c-2.2-0.3-5.8-0.8-6.6,1.4c-0.3,0.8-0.3,1.6,0.8,2.5
	c1.9,1.4,11.2-2.2,14.2-0.8c2.7,1.4,2.7,3.3,2.5,4.9c-0.8,2.7-4.1,3-4.1,3s1.6-1.1,1.1-2.5c-0.3-0.8-0.8-1.1-2.5-0.8
	c-3.8,0.5-8.5,2.2-11.8,1.1c-1.6-0.8-2.7-2.7-2.7-4.7c0.3-2.7,3.3-4.1,3.3-4.1V18.6c-0.3-0.5-1.9-0.3-2.2,0.5
	c-0.3,1.4,1.1,1.9,1.1,1.9s-1.1,0.3-1.9-0.8c-0.5-0.5-1.4-2.2-0.3-4.1c1.1-1.4,2.2-1.6,3.8-1.6L127.4,7.9L127.4,7.9z" class="st0"></path>
<rect height="38.4" width="124" class="st1" y="-13.1" x="79.6"></rect>
</svg>
