<svg xml:space="preserve" style="enable-background:new 0 0 180.2 40;" viewBox="0 0 180.2 40" y="0px" x="0px" xmlns:xlink="http://www.w3.org/1999/xlink" xmlns="http://www.w3.org/2000/svg" id="Layer_1" version="1.1">
<style type="text/css">
	.st0{fill:#333333;}
</style>
<path d="M1.1,0.8H0V0h9.8v0.8H7.2l5.4,27.5l5.4-27.5h-3.2V0h5.9v0.8h-1.7l-7.7,38.9H8.7L1.1,0.8z M20.1,26.6h6l-3-15.3
	L20.1,26.6z M15,38.9h1.7L24.4,0h2.5l7.7,38.9h1v0.8h-9.8v-0.8h2.7l-2.3-11.5H20l-2.3,11.5h3.2v0.8H15V38.9z M36.1,38.9h1.3V0.8H35
	V0h8.6l8.8,24V0.8h-2.6V0h5.7v0.8h-2.1v39h-1.6l-13.4-37v36.1h2.6v0.8h-4.9V38.9z M56.4,39.7v-0.8h1.7V0.8h-1.7V0H66v0.8h-1.8v38.1
	H66v0.8H56.4z M72,39.7v-0.8h1.8V0.7h-0.1c-2.6,0-5.3,2.8-5.8,14.8h-0.8V0h19.5v15.5h-0.8c-0.6-12-3.4-14.8-5.8-14.8h-0.2v38.2h1.9
	v0.8L72,39.7L72,39.7L72,39.7z M92.8,39.7v-0.8h1.8V21.2L88.8,0.8h-1.2V0h10v0.8h-2.8l5.4,18.7l4.6-18.7h-2.9V0h5.3v0.8h-1.5
	l-5,20.3v17.7h1.8v0.8H92.8z M112.8,39.7v-0.8h1.6V0.8h-1.6V0h17.4v11.9h-0.8c-0.5-8.4-3.2-11.1-7.5-11.1h-1.3v17.9h0.6
	c3.3,0,4.4-1.5,4.7-6.8h0.8v14.9h-0.8c-0.3-5.9-1.4-7.2-4.4-7.2h-0.9v19.4h2.4v0.8H112.8z M132,26.6h6l-3-15.3L132,26.6z
	 M126.9,38.9h1.7L136.3,0h2.5l7.7,38.9h1v0.8h-9.8v-0.8h2.7l-2.3-11.5h-6.3l-2.3,11.5h3.2v0.8h-5.9V38.9L126.9,38.9z M148.1,39.7
	v-0.8h1.6V0.8h-1.6V0h9.4v0.8h-1.7v38.1h1.7v0.8H148.1z M166.3,0.8V18h0.8c3,0,5.1,0.1,5.1-7.2V8.9c0-7.1-2.2-8.1-4.8-8.1H166.3z
	 M171.9,34.6v-9.7c0-5.2-1.5-6.1-4.6-6.1h-1v20.1h2.4v0.8h-10.2v-0.8h1.6V0.8h-1.6V0h8.9c6.5,0,10.7,3,10.7,9.8c0,6-3.6,8.1-8.2,8.6
	v0.1c4.8,0.7,8,2.6,8,9.7v9.2c0,1.2,0.4,1.5,1.1,1.5c0.4,0,0.8-0.1,1.1-0.3v0.8c-0.3,0.2-1.4,0.6-2.8,0.6
	C174,40,171.9,38.8,171.9,34.6z" class="st0"></path>
</svg>
