<svg xmlns="http://www.w3.org/2000/svg" id="Artwork" viewBox="0 0 701.25 181.88"><defs><style>.cls-1{fill:#000610;}</style></defs><path class="cls-1" d="M409.21,106.35ZM76.6,124.46h-.06l0-.06c-.84.27-1.71.48-2.52.82-1.41.59-2.79,1.26-4.18,1.91H69.8l.06,0-2.48.87h2.48v-.84c.46-.11.91-.23,1.37-.31s1-.14,1.89-.25c-1.52,1.19-2,1.37-3.3,1.46a5.73,5.73,0,0,1-1,.73c-2.22.9-4.46,1.75-6.75,2.64v1.39c-1.67.22-2.09,2-3.29,2.59-1.51.72-1.58,2.19-2.41,3.22-1.21-.1-1.29,1-1.73,1.66-.27.42-.53.84-.8,1.25l.36.05-.88.86c-.32.19-.79.31-.94.6-.75,1.43-2.2,2.33-2.93,3.73s-2.26,2.58-2.89,4.21c-.7.14-1.18.44-.91,1.27-.52.69-.82,1.55-1.69,2-.27.13-.41.52-.59.8a15.75,15.75,0,0,1-1.58,2.52c-1.72,1.82-2.89,4-4.5,5.94-1.38,1.62-2.61,3.35-3.85,5.08-.43.59-1.17.86-1.32,1.77-.11.67-1.21.76-1.5,1.66a7.41,7.41,0,0,1-1.47,2c-.47.63-.91,1.27-1.39,1.9s-1.05,1.31-1.56,2a49.1,49.1,0,0,1-3.38,4.32c-2.51,2.58-4.17,5.79-6.52,8.48a6.17,6.17,0,0,1-1.44,1.2c.62-.87.05-1.91.42-2.66a4.91,4.91,0,0,0,.47-3l-1.61,1.21c.13-1.09.23-2.31.45-3.5.1-.53.58-1,.7-1.51a9.69,9.69,0,0,1,1.94-3.58,18,18,0,0,0,1.5-3.12,9.9,9.9,0,0,1,.57-1c1.73-2.79,3.42-5.61,5.2-8.37,1.06-1.65,2.29-3.18,3.4-4.8,1.77-2.57,3.49-5.19,5.26-7.76.86-1.24,1.79-2.44,2.7-3.65,1.62-2.15,3.45-4.17,4.84-6.46,1.87-3.08,4.17-5.82,6.2-8.76,2.22-3.21,4.29-6.53,6.51-9.75,1.77-2.57,3.69-5.06,5.53-7.59s3.45-4.81,5.22-7.19c2.76-3.67,5.52-7.35,8.34-11,4.83-6.18,9.67-12.36,14.6-18.46,1.93-2.39,4.16-4.53,6.19-6.85,1.22-1.38,2.33-2.87,3.47-4.31,1.33-1.67,2.66-3.33,4-5,.5-.66.94-1.37,1.38-2.07.89-1.44,1.23-1.45,3-1.24a2.77,2.77,0,0,1,2.56,2.18c0,.14.17.4.13.42-.83.59-.11.89.19,1.29s.45.76.7,1.19l-.76.91c.35,2.06.68,4,1,6.13l-1.29-.54c-3.12,2.55-5.39,5.82-7.8,9-4.36,5.75-8.92,11.36-13.37,17-2.49,3.18-4.91,6.41-7.4,9.58-1.48,1.89-3.09,3.68-4.54,5.59a23.5,23.5,0,0,0-2.45,4.2l9-4.27c1.27-.59,2.58-1.08,3.81-1.73,2.3-1.23,4.55-2.54,6.81-3.82.34-.19.64-.45,1-.62,3.82-1.85,7.66-3.67,11.47-5.52,2.47-1.2,4.95-2.4,7.37-3.69s5-2.8,7.46-4.15c4.53-2.43,9.11-4.77,13.63-7.23,2.22-1.2,4.35-2.55,6.5-3.87,2.44-1.48,4.91-2.92,7.27-4.53,3.84-2.61,7.72-5.22,10.89-8.68a26.85,26.85,0,0,0,2.53-3.52,2,2,0,0,0-.25-2.49,12.18,12.18,0,0,0-1.3-1.29c-3-2.5-6.56-3.83-10.2-5a72.69,72.69,0,0,0-21.15-3.5c-3.81-.07-7.62-.27-11.42-.11-4.87.2-9.72.65-14.57,1.13-2.89.28-5.78.73-8.64,1.29-3.11.61-6.19,1.42-9.28,2.17-1.62.39-3.27.73-4.85,1.28-2.45.86-4.84,1.89-7.28,2.81a15.42,15.42,0,0,1-2.06.47l-.12-.39L76,60.41l0-.21a6.86,6.86,0,0,0-1.29.26q-6.78,2.7-13.56,5.46c-.22.1-.37.35-.55.55L66,64.26c.54-.21,1.1-.37,1.64-.56,0,.1.09.21.14.31a5,5,0,0,1-.77.56c-2,.88-4.25,1.45-6,2.67-2.11,1.43-4.59,1.89-6.71,3.25S50,72.82,47.83,74a3.84,3.84,0,0,0-.69.65,5,5,0,0,1-.92.87,47.51,47.51,0,0,0-11.43,8.32c-.86.88-1.77,1.71-2.62,2.61-.48.51-.78,1.11-.2,1.76L30.8,89l-2.18-1.45c-1.34.4-1.67.16-2-1.71-1.37,0-1.71-.24-2.24-1.39a10.87,10.87,0,0,1-.63-4,6.7,6.7,0,0,1,2.46-5.57c1.21-1.15,2.25-2.48,3.37-3.72a32.59,32.59,0,0,1,5.28-4.38A107.44,107.44,0,0,1,49.6,58.1c4.88-2.49,9.94-4.63,14.93-6.9.71-.32,1.49-.5,2.23-.75,2.91-1,5.8-2,8.74-2.89,1.49-.44,3.08-.56,4.61-.85,2-.39,3.93-.87,5.92-1.19s3.77-.42,5.65-.65c.83-.11,1.65-.28,2.47-.44,2.64-.51,5.32-.41,8-.68,1.84-.19,3.69-.23,5.54-.32s3.41-.19,5.12-.19c1,0,2.11.35,3.13.26,2.69-.23,5.37.15,8,0a1.94,1.94,0,0,1,.34,0c4.83.51,9.73.58,14.43,2,1.91.58,3.75,1.42,5.62,2.14.47.17,1,.32,1.42.51,3.41,1.42,6.88,2.72,10.2,4.32,2.79,1.33,5,3.54,7.29,5.61a17.47,17.47,0,0,1,3.45,4.91,14.8,14.8,0,0,1,1.17,4.34,41.76,41.76,0,0,1,.61,4.47c0,2.23-3.37,5.8-4.32,6.85A18.45,18.45,0,0,1,159.92,82c-1.47.89-2.87,1.9-4.27,2.91S152.94,87,151.53,88c-1.79,1.23-3.66,2.36-5.47,3.57-.31.2-.5.57-.79.82-.65.58-1.19,1.33-2.21,1.32a1.53,1.53,0,0,0-.79.25c-2.49,1.36-5,2.77-7.46,4.12-4,2.15-8,4.33-12,6.38-1.53.77-3.24,1.2-4.64,2.28-.28.22-.74.19-1.12.28s-.71.08-.93.28a15.92,15.92,0,0,1-4.28,2.38c-.89.4-1.86.63-3,1-.15,1.22-1.57,1.11-2.55,1.62-.68.36-1.41.62-2.1,1-.35.17-.65.45-1,.61-1.6.73-3.35,1.09-4.86,2.1a8.46,8.46,0,0,1-2.89.7c-.15.2-.26.48-.47.57-1.68.82-3.15,2.06-5.12,2.32-.72.1-1.33.78-2,1.08-1.47.62-3,1.18-4.47,1.76-.1-.22-.21-.44-.32-.66l5.4-2.39c-1.47.57-3,1.12-4.42,1.72a4.76,4.76,0,0,0-1,.65v0l-.06,0,0,0a10.45,10.45,0,0,0-4.07,1.7ZM60.36,66.56a2.83,2.83,0,0,0-2.26,1.25ZM70,61.71l-.15-.35-1.23.46.09.26Zm12.13-3.29a19.18,19.18,0,0,0-4.19,1c0,.13.07.26.11.39ZM84.71,58a2.29,2.29,0,0,0-2.32.33ZM86,56.54l-.09-.24-1.71.42.1.3c.32-.06.64-.1,1-.19A7.71,7.71,0,0,0,86,56.54Zm1.35-.61.05.34L89.13,56,89,55.59Zm4.74.48c0-.14,0-.27-.08-.41l-5.68,1.13c0,.14.06.27.08.41Zm7.16-1.2-.09-.12H97.87l-.06.21h1.31S99.21,55.24,99.25,55.21Zm7.63-.93-1.52.1v.2h1.49Zm28.33.29v-.14H134v.14ZM96.35,115.82l.09.21,1.06-.46-.09-.21ZM91.47,118c.65-.08,1.37,0,1.65-.84ZM570.21,28.18c-1.22.37-2.61,0-3.74.77l3.82-.42C570.26,28.41,570.24,28.29,570.21,28.18Zm3.49-.36a5.13,5.13,0,0,0,.89.06c.53-.06,1-.16,1.57-.25l-.08-.26c-.68.06-1.36.12-2,.2C574,27.58,573.9,27.67,573.7,27.82ZM566.47,29h-.11l-.08,0h.11l0,0,0,0A.2.2,0,0,1,566.47,29Zm-3.77.44.09.37,3.49-.78A7.43,7.43,0,0,0,562.7,29.39ZM83.29,122.44l.07,0,0,0h0ZM375.5,74.31c.07.14.31.36.35.33.66-.38.89.77,1.55.44.08,0,.42.17.45.31.07.37,1.59,1.08,1.93,1.1.5,0,1,.1,1.34.13L382.85,75c-.18-.73.45-1.35,1.47-1.33.14-.25,1.82-1.9,2-2.14.29-.5.14-.88.47-1.36,1.34-1.94,1.39-4.49,2.73-6.43a2.67,2.67,0,0,0,.25-.63l-.14-.09-.93.79c.18-.54.27-.81.38-1.16l-1.24.22a3.66,3.66,0,0,0-.5-.84c-.22-.23-.56-.52-.8-.48a9.64,9.64,0,0,0-3.65,1.24c-1.35.87-2.55,2-3.84,3-1.7,1.3-2.42,2.6-4.28,3.73a1.43,1.43,0,0,0-.61,2C374.59,72.44,375,73.38,375.5,74.31ZM78.93,123.44l0,0h0l0,0Zm453.34,2.45,1.33-.06v-.19h-1.32ZM711.6,78.25c0,.12,0,.25,0,.37l-3.29.76-7,1.67c-.81.2-1.63.34-2.44.54-1.94.49-3.88,1-5.83,1.51-1.35.34-2.71.64-4.06,1-.64.16-1.27.39-1.91.56-2,.52-4.13,1-6.17,1.57-3.31,1-6.6,2-9.91,3-2,.57-4,1-5.94,1.55s-3.89,1-5.8,1.55c-3.48,1.08-6.93,2.24-10.55,3.42l.6.22a1.61,1.61,0,0,1-1.54.44c-1.32,1.25-3,1.54-4.71,1.85-1.48.28-3.1.2-4.43.79-3.12,1.38-6.48,1.62-9.71,2.45-.8.21-1.64.32-2.64.51l.73.57c-.36.8-1,.52-1.34.15-1-1-2.48-1.32-3-2.73-.19-.49-.81-.35-1.15-1a11.43,11.43,0,0,1-1.64-3.91,4.2,4.2,0,0,1,1.43-4.17c4.16-4.23,8.34-8.44,12.65-12.8l-2.6.94c1.22-1.35,3.23-1.39,4.45-2.82-.82-.47-.79-.45-1.16.16a1.69,1.69,0,0,1-.72.56c-2.61,1.16-5.22,2.29-7.82,3.45-2.45,1.09-4.89,2.17-7.3,3.33-1.67.8-3.51,1.22-5,2.38a15.09,15.09,0,0,1-3,1.35c-.76.34-1.51.71-2.25,1.09l-2.61,1.36a4,4,0,0,0-3.91,2l-.19.09.06.12a4.53,4.53,0,0,0-.34.74c-.25.71-.87.63-1.41.71-.48,1-1.52,1-2.33,1.39-2.38,1.15-4.77,2.25-7.21,3.27-.9.37-1.83.71-2.76,1-1.48.48-2.73.93-4.14,1.42A11.37,11.37,0,0,1,580,96.8c-.12-.19-.12-.54-.26-.6-1.75-.72-1-2.21-1.14-3.46-.22-2.44,1.51-4,2.69-5.72,1-1.42,2.14-2.7,3.19-4.06.34-.44.61-.93,1-1.58l-3.6,1c-.68.24-1.53.26-1.69,1.22l-1.47.55-1.08.66.63.69c-4.16,2.42-8,5.3-12.27,7.44-2.5,1.75-4.89,3.81-8,4.59a14.75,14.75,0,0,0-7.25,4.62c-2.42,2.67-5.49,3.77-8.28,5.47-2,1.19-4,2.15-6.05,3.23a1.87,1.87,0,0,1-2.35-.4,2.69,2.69,0,0,0-1.77-1,5.11,5.11,0,0,0-1.19-2.91,3.77,3.77,0,0,1-.73-2.07,5.23,5.23,0,0,1,.25-2,9.39,9.39,0,0,1,1-2.27c.85-1.29,1.74-2.54,2.69-3.75A172.06,172.06,0,0,1,549.58,79c4.76-4.66,9.69-9.15,14.55-13.71.6-.57,1.28-1,1.86-1.63a3.31,3.31,0,0,0,.79-1.42c-6.46,1-12.89,1.68-19.48,3.07l1.9.78c-1,.2-2.12.44-3.22.59a2.29,2.29,0,0,1-.77-.09c.54,0,.84-.46,1.24-1.12l-2.9.48,1.26.58c-1.85,1.06-3.82.86-5.8.65h-.28c-.05.15-.1.38-.18.39-1,.12-2,.21-3,.3l.75-.26,1.1-.39-3.67.36v.28l1.56.07a.41.41,0,0,1-.07.11c-1,.75-2.51.28-3.4.9a5.71,5.71,0,0,1-3.43.78,2.19,2.19,0,0,0-1.11.21.88.88,0,0,1-1.2.1.53.53,0,0,0-.46,0c-1.92,1.24-4.24.89-6.28,1.61A15.66,15.66,0,0,0,516.51,74c-2,2.3-4,4.66-6,7a18.28,18.28,0,0,0-1.23,1.87l-.14.18.11-.13.62-.59.22.23-1.39,1.43c-.38.68-.66,1.48-1.68,1.39v.32a11.84,11.84,0,0,0-1.35,1,5.16,5.16,0,0,0-.67,1.06l-.31.26.31-.26,1-.88a7.84,7.84,0,0,1-.66,1.33c-.25.36-.55.28-.68-.18l-1.17,1c-.49,1-.94,1.79-1.44,2.74-.06.26-.43.27-.89.42s-.88,1.15-1.13,1.84-2.32,3.14-3.07,3.35a1.55,1.55,0,0,0-.64.27c-.71.72-1.36,1.48-2.07,2.2a2,2,0,0,0-.56,2.37,2.31,2.31,0,0,0-2.36,1.06,26.41,26.41,0,0,1-2,2.22,3.33,3.33,0,0,0-1.09,2.23,4,4,0,0,1-2.47,2.9s-.16-.13-.25-.2a1,1,0,0,0,.65-1.26c-.27.37-.53.75-.79,1.13l-3.29,3.56h1.21a9.17,9.17,0,0,1-3.12,3.19,6.31,6.31,0,0,0-1.65,1.36c-.14.15,0,.61.09,1.28-.62.76-1.57,1.78-2.43,2.87a37.67,37.67,0,0,0-2.41,3.52,82.64,82.64,0,0,0,8.77-.07c2.82-.3,5.65-.37,8.47-.68.86-.1,1.75.25,2.63.22,1.59-.06,3.16-.31,4.75-.36,1.16,0,2.34.09,3.5.15a3.92,3.92,0,0,0,1.23,0,12.68,12.68,0,0,1,5.72-.55c2.48.47,5,.1,7.56,0a.88.88,0,0,1,.64.27l-1.88.19c0,.08,0,.16,0,.24,1.54,0,3.08,0,4.61,0,1.17,0,2.33.24,3.49.23.92,0,1.84-.28,2.76-.35a14.54,14.54,0,0,1,2.47.06c.2,0,.35.46.52.7h-2.47v.34c.93,0,1.87,0,2.8,0,3.57-.13,7.13-.28,10.7-.42a1.29,1.29,0,0,0,.34,0c1.84-.55,3.72,0,5.57-.21a11.35,11.35,0,0,1,1.2,0l-.34-.52c.9-.35.89-.34,1.77.29a1.21,1.21,0,0,0,.63.16,5,5,0,0,0,1.34,0c2-.44,4.06.37,6-.46a1.23,1.23,0,0,1,1,0c1,.57,2.07.32,3.12.34.72,0,1.55-.54,2.11.4,0,.06.31,0,.48,0,.7-.08,1.4-.22,2.1-.24,1.82,0,3.65-.06,5.47,0a1.24,1.24,0,0,1,1,.63c-1.41,0-2.81.15-4.22.12a34.3,34.3,0,0,0-6.32.26,3.81,3.81,0,0,1-1.73-.39c-.72-.24-1.16-.14-1.32.73,2.82,0,5.55,0,8.28,0,1,0,2.1.13,3.15.19l0-.06h.09l0,0c.34.2.71.54,1,.5,1.69-.24,3.38.22,5.08-.26,1.07-.3,2.32.1,3.45-.05a28.43,28.43,0,0,1,4.13.06c2.74,0,5.48,0,8.31,0-1.25.93-1.85,1.14-4,.9-.93-.1-2,.37-2.82-.55-.74.81-1.75.56-2.62.52-2.55-.1-5.08.49-7.64,0a4.84,4.84,0,0,0-2.24.36c3.7.56,7.42.32,11.12.36s7.31.05,11,.07c0,.16,0,.32,0,.48-.85.06-1.7.18-2.55.19-3.46,0-6.92,0-10.39,0-1.2,0-2.39-.47-3.62.06-.32.14-.89-.28-1.48-.49,0,.42-.09.75-.13,1-1.71.82-3.42-.58-5.14.33-.13-.49-.22-.85-.31-1.21-.89-.41-1.43,0-1.83.81l.8.33c-1.54.08-3,.16-4.41.21a1.55,1.55,0,0,1-1-.18,2.86,2.86,0,0,0-3.23-.18,3,3,0,0,1-3-.1c-.35.26-.65.67-1,.69-.64.05-1.59.12-1.89-.25-1.11-1.37-2.25-.61-3.4-.28a4.24,4.24,0,0,0-1,.57c-.28-.72-.89-.75-1.49-.69-1.41.13-2.82.35-4.23.44-.35,0-.72-.32-1.36-.63a9.27,9.27,0,0,1-2.89.49,3.74,3.74,0,0,0-2.88.57,1.17,1.17,0,0,1-.95.08c-.24-.07-.4-.46-.64-.52a6.62,6.62,0,0,0-1.34-.08c-.39,0-.78,0-1.18,0l-1.33.08c-.48,1-.48,1-2.67.82l1.17-.43c-.73-.08-1.21-.28-1.39-.12-1.33,1.15-3,.26-4.43,1l-.23-.78c-1.1.05-2.18.11-3.26.14a3.25,3.25,0,0,0-2.09.54,1.6,1.6,0,0,1-2.2-.3.81.81,0,0,0-.7-.17c-1,.23-2.24-.61-2.89.78,0,.06-.22.08-.32.06-.44-.09-1.12.43-1.25-.47a5,5,0,0,1-1.22.57,11.22,11.22,0,0,1-1.86,0l.58-.63h-3.3c-.46.85-1.4,1-2.52.94a30.3,30.3,0,0,0-3.92.22c-.8.06-1.22-1.17-2.08-.43s-.77.57-2.2.54c-.84,0-1.68.1-2.51.15s-1.68.11-2.52.09c-.4,0-.81-.31-1.2-.28-.57,0-1.14.37-1.7.34s-.86-.51-1.31-.57c-.23,0-.52.45-.79.72l-.6-.69c-.14.34-.26.6-.39.93a16.84,16.84,0,0,1-2.46,0,15.43,15.43,0,0,0-1.81-.46l.38.49-1.22-.1c-.25,0-.6-.25-.72-.15-1.26,1.06-2.75,0-4.08.45-.29.11-.72-.18-1.09-.26s-1-.19-1.65-.3l.13.9H471c-.11-.33-.23-.71-.34-1.06-.22,0-.39-.05-.42,0a3.33,3.33,0,0,1-2.61,1.31c-1.09.11-1.09.1-.92.9a12.24,12.24,0,0,0-1.74,1.53c-1.36,1.78-2.64,3.62-4,5.43-.19.26-.44.48-.68.75l-.73-1.68c1-2-.23-4.11-.18-6.2-1.95,0-3.83-.11-5.71,0-3.26.21-6.49.64-9.78.56a61.86,61.86,0,0,0-6.61.65c-2.82.23-5.65.35-8.48.55-2.26.16-4.52.37-6.78.54-2.77.21-5.54.36-8.3.59-2.33.2-4.66.48-7,.71-3.05.31-6.1.63-9.16.89-3.5.3-7,.49-10.51.8-3.34.29-6.67.7-10,1-2.5.24-5,.35-7.5.63-2.92.34-5.82.82-8.74,1.19-.94.12-1.9,0-2.84.13-3.22.31-6.45.63-9.67,1s-6.73.87-10.1,1.28c-2.21.27-4.43.46-6.63.74-3,.38-6,.84-9,1.24-1.93.25-3.88.43-5.82.68-3.25.42-6.51.88-9.76,1.31-1.5.19-3,.32-4.49.52a3.53,3.53,0,0,0-1.72.64c.9-.06,1.81-.07,2.7-.19,1.6-.21,3.18-.49,4.78-.7a1.61,1.61,0,0,1,.72.17c-.82.16-1.64.35-2.48.47q-5.79.81-11.6,1.57a11.92,11.92,0,0,1-1.34,0l.05-.05c-2,.55-3.94,1.19-6,.3a.17.17,0,0,0-.12,0c-1.83.29-3.75.11-5.47,1.12l5-.58c0,.09,0,.18,0,.27-.9.18-1.79.42-2.7.55-5.75.84-11.51,1.6-17.25,2.5-7,1.1-13.93,2.34-20.9,3.5-5.18.86-10.35,1.79-15.52,2.72-2.85.51-5.7.92-8.54,1.49-1.89.38-3.79.72-5.69,1.09a4.35,4.35,0,0,0-2.81,1.16c-.45.51-1.27.85-1.62,0a18.55,18.55,0,0,1-3.43,1c-2.28.22-4.45.93-6.68,1.35a78,78,0,0,0-8,1.95l1.34.28c-1.3.56-2.28.91-3.42.29-.9-.48-1.23-.22-1.29.76-.79.2-1.52.52-2.32-.17-.32-.27-1.07,0-1.66,0-.08.46-.13.8-.24,1.49l-.71-1.07c-.11,0-.29,0-.32,0-1,1.76-2.83,1.43-4.34,1.88s-3.29.64-4.9,1.06c-1.28.34-2.49.95-3.76,1.31-1.82.53-3.69.94-5.53,1.42a4.08,4.08,0,0,0-1.54.58,3.88,3.88,0,0,1-2.66.79c-.93,0-1.78,0-2-1.21,0-.26-.54-.45-.83-.68l.61-.77-1.57.24c.89-1.32.89-1.35-.43-2.25l1.06-1.28-.93.08c-.06-.28-.12-.54-.2-.89l-1,.6a3.74,3.74,0,0,1,.48-1.05,2,2,0,0,0,.58-1.67c-.1-1.48,1.18-2.34,3.25-3.43a34.45,34.45,0,0,1,7.64-2.9c2.89-.72,5.77-1.48,8.66-2.18q7-1.68,14.06-3.29,5.48-1.24,11-2.41c3.49-.75,7-1.45,10.5-2.16,4.89-1,9.76-2.06,14.67-3,7-1.3,14-2.49,21-3.71,2-.35,4.1-.61,6.14-1,1.53-.28,3-.67,4.56-1a12.21,12.21,0,0,1,1.32-.24c1.39-.13,2.77.17,4.18-.54,1.07-.55,2.46-.35,3.73-.4,2-.09,4-.73,6-.93,1.18-.12,2.31-.74,3.58-.46a2.45,2.45,0,0,0,1-.14c1.6-.36,3.18-.75,4.78-1.08a2,2,0,0,1,1,.07c.5.14.92.3,1.3-.29.12-.17.61-.1.94-.13,1.6-.14,3.2-.24,4.79-.43,2.72-.31,5.43-.68,8.15-1,4.11-.53,8.22-1.08,12.33-1.58,3.56-.43,7.13-.78,10.69-1.21,3.27-.41,6.53-.9,9.8-1.33,2.71-.35,5.42-.88,8.15-1,4.81-.18,9.53-1.25,14.35-1.29.31,0,.63-.21.95-.24l4.82-.43c1.05-.1,2.1-.21,3.15-.34.88-.11,1.75-.26,2.64-.36a26.45,26.45,0,0,0,3-.33c.79-.19,1.54.41,2.41-.22a5.25,5.25,0,0,1,2.6-.41c1.21-.07,2.43,0,3.65-.07s2.67-.18,4-.29c2.66-.22,5.31-.43,8-.67,1.73-.16,3.45-.37,5.17-.52s3.29-.23,4.93-.34l6-.41c.11,0,.24-.09.33-.06,1.63.66,3.1-.32,4.66-.45a7,7,0,0,1,4.31.6c.75-1.23,2-1.27,3.21-1,1.51.34,3-.15,4.51,0a16.09,16.09,0,0,0,4.92-.59c1-.19,1.91,0,2.89-.08,2.64-.29,5.33-.1,8-.26,3.19-.2,6.37-.57,9.56-.83,4.4-.37,10.19-.62,14.48.24l-2.35-.41c2,.06,3.82-1.83,5.12-3.55l22.75-30c1.37-1.44,2.82-2.79,3.63-3.5l.18,0,.41-.53h0a30.75,30.75,0,0,0,2.5-3.16,5.13,5.13,0,0,0,1.7-2.24,23.07,23.07,0,0,1,6.64-7.58,3,3,0,0,0,.87-1.64c-.87.81-1.75.46-2.7.38a23.44,23.44,0,0,0-4.32.34,1.52,1.52,0,0,0-.67.4c-.37.27-.71.57-1.14.93-.25-.44-.41-.71-.62-1.06l-1.14.48a12.56,12.56,0,0,0-1-1.92,13.59,13.59,0,0,0-1.61-1.48c.07-.18.18-.42.31-.74-.64-.69-1.36-1.34-1.16-2.53.09-.61-.43-1.3-.51-2a3.74,3.74,0,0,1,3.24-4.21c2.36-.26,4.73-.46,7.09-.73a5.34,5.34,0,0,0,1.24-.3,10.54,10.54,0,0,1,4-.82,12.84,12.84,0,0,0,2.77-.67,29.11,29.11,0,0,1,4.94-.25c.28,0,.56,0,.83,0,3.33-.29,3.34-.28,5.92-3.42q6.51-7.92,13-15.88c1.1-1.34,2.14-2.74,3.19-4.13a15.18,15.18,0,0,0,.8-1.34c-.78.09-1.31.14-1.83.23a76.76,76.76,0,0,0-8.48,1.73,39.13,39.13,0,0,1-5.1.72c-.52.07-1.21-.26-1.49.52l1.61-.11v.13l-4.72,1.22a.83.83,0,0,1-.47,0c-.54-.24-.57-.8-.8-1.25s-1.16.21-1.23-.72a1,1,0,0,0-.27-.57c-1-1.07-1-1.06-.56-2.73l-1.47-.5c.12-1.27.31-2.53.31-3.78a2,2,0,0,1,1.51-2,12.19,12.19,0,0,1,3.13-1.1c2.22-.2,4-1.52,6.19-1.89s4.3-.75,6.44-1.2q6.49-1.34,13-2.77c1.85-.4,3.68-.92,5.53-1.33a4.33,4.33,0,0,0,2.59-2,40.56,40.56,0,0,1,3.94-4.95,29.14,29.14,0,0,1,2.39-1.93,1,1,0,0,1,.77-.22c.61.29.79-.06,1.07-.48.11-.16.49-.14.9-.24.1.74.2,1.42.29,2l2.23-.32-.3,2.46,0-.05v.05c-.44.76-.86,1.51-1.33,2.36,1,.25.84.92,1.58,1.72.18.2.76.1,1.13,0a59.73,59.73,0,0,1,8.26-.64c2.49-.15,4.94-.49,7.42-.63,3.25-.17,6.51-.16,9.76-.27,2.45-.07,6.46-.14,8.9,0a10.74,10.74,0,0,1,3.37.59c3.59,1.36,7.35,2.21,10.75,4.3a10,10,0,0,1,3.84,4.47c.05.1.06.23.11.33,1.4,2.29,1.38,4.86,1.87,7.33a8.79,8.79,0,0,1-.21,2.47l-1.35.17V35.23l-.25-.1-.84,2a29.14,29.14,0,0,1-5.78,3.27,2.31,2.31,0,0,1-1.27.15l6.18-4c-.14-.26-.08-.15-.23-.4l-3.77,1.88-.07-.11,3.37-3c.71-.26.71-.26,1.06-1.3-.51.55-.79.86-1.08,1.16.15-.63.24-1.28.45-1.89a2.12,2.12,0,0,0-.58-2.46c-1.27-1.12-2.29-2.54-4.16-2.89a24.61,24.61,0,0,1-3.66-1.48c-1.26-.47-2.55-1.09-3.81-.23-.16.11-.55,0-.78-.13a7.75,7.75,0,0,0-4-.7c-4.67.14-9.38.1-14,.65-6.4.76-12.87,1.26-19.15,2.61-2.14.46-4.35.67-6.5,1.08a10.65,10.65,0,0,0-2,.78l.48.42L555,31c-.71.19-1.41.19-1.93,1-.34.5-.34.1-1,.43a2.73,2.73,0,0,0-1,.7c-2.46,3.19-4.83,6.46-7.35,9.61-3.82,4.76-7.74,9.44-11.6,14.16-.07.08-.06.21-.12.42,1.63.57,3.27.2,4.88,0,3.61-.4,7.17-1.24,10.84-1.22,1,0,2.11-.3,3.17-.34,5.32-.22,10.54-1.23,15.81-1.87,3.62-.44,7.19-1.14,10.82-1.44a19.41,19.41,0,0,1,2.83.19,16,16,0,0,0,2,.06c1.95-.12,3.9-.28,5.85-.43l5-.4a7.15,7.15,0,0,1,1.9,0l-.79.46,4.1,1.35L597,54.3c1.58.83,3.2-.32,4.95.32-1.44,1.4-3.23.6-4.62,1.27l.62.47-.82.62,1.75.38-1.51.51c.08.19.12.36.17.36.75,0,1.57.31,2-.75.08-.21.7-.18,1-.38s.27-.47.4-.73c3.6-.64,6-3.54,9.17-5.4a29.87,29.87,0,0,1,2.69,2.19,6.54,6.54,0,0,1,1.55,5.09c0,1.61.24,3.24-.37,4.84-.15.4.24,1,.38,1.54.09.34.17.69.3,1.26-.92-1.13-1.43-.21-2,0-.26,1.06-1.11,1.48-2,1.89a4,4,0,0,0-1.24.71c-1.15,1.25-2.24,2.56-3.36,3.83-.5.56-1.26,1-1.49,1.65-.36,1-1.25,1.37-1.86,2s-.94,1.65-1.53,2.38a23.54,23.54,0,0,1-1.83,1.6,4.67,4.67,0,0,0-.57,1,2.22,2.22,0,0,0-1.26,1.66l1.31-.67a8.66,8.66,0,0,0,1.92-.44c5-2.45,10-5,15-7.43,2-1,4-1.91,6.06-2.89,1.8-.88,3.56-1.84,5.37-2.7,2.52-1.2,5.08-2.33,7.62-3.51,1.56-.72,3.08-1.58,4.69-2.19a59.35,59.35,0,0,1,8.08-2.43l2.42,1.07c.36,1.22,1.68,2.19,2.09,3.8a11.22,11.22,0,0,1,.31,6,2.79,2.79,0,0,0-.08,1.66c.61,1.54,0,2.53-1.24,3.31,0-.38-.06-.77-.11-1.32-1.12,1.54-1.12,1.54-1.28,2.68a11.45,11.45,0,0,0-4.14,3.65,8.47,8.47,0,0,0-3,2.89l.79-.15-1.75,1.36a2.65,2.65,0,0,0,1,.24c1.7-.33,3.41-.66,5.08-1.09,2.18-.56,4.32-1.21,6.48-1.81a3.81,3.81,0,0,1,1.32-.19c3.42.42,6.46-1.14,9.67-1.8A48.21,48.21,0,0,0,670,79.49c.62-.19,1.28-.31,1.9-.53a7.94,7.94,0,0,1,2.58-.37c1.78,0,3.55-.7,5.32-.92A68.52,68.52,0,0,0,687.93,76a29.22,29.22,0,0,1,6.17-.87c2.38-.08,4.71-.59,7.08-.55a13.56,13.56,0,0,0,2.47-.46c.85-.14,1.71-.23,2.56-.34l.09.35-2.3.71c1.65.42,2.93-.31,4.26-.33s2.78-.17,4.3-.28c-.09.4-.15.68-.23,1.05l3-.34a7.18,7.18,0,0,1-3.77,1.34,2.11,2.11,0,0,0-1.11.3c-1.21,1-2.71,1-4.08,1.44-.94.29-1.86.62-2.79.94.28.11.57.3.82.25,1.48-.24,2.94-.61,4.42-.83A24.72,24.72,0,0,1,711.6,78.25ZM611.88,65.69l.67.2.48-1.25-.2-.09Zm-91-27.34-1.47-.12v.3ZM183.71,173.27c0-.09-.07-.27-.11-.27a5,5,0,0,0-.67,0l.06.36Zm81.1-17h-1.06v.13h1Zm9.52-1.21c-1.35-.48-2.62,0-3.9.46Zm3.81-.75a20.27,20.27,0,0,0-3.12.2c-.24,0-.43.36-.66.55Zm16.09-2.48-3.79.33c0,.09,0,.18,0,.28h3.22Zm5-.48a2.11,2.11,0,0,1,0-.25h-.93l.06.34ZM451,127.3l-1.23-.1a2.64,2.64,0,0,1,0,.29l1.23.12ZM568,129c.9-.07,1.89.74,2.9-.13C569.86,128.31,569,128.82,568,129Zm-50.83-2.34c0,.09,0,.18,0,.27l7.17-.31c0-.16,0-.31,0-.46l-3.58.25Zm-12.92.36c0,.14,0,.28,0,.43l1.43-.14,0-.29Zm-2.37,5.39v.11h.77l-.05-.11Zm29.23-63.8-.11-.35-2.91.44C529.15,68.78,530.2,69.19,531.15,68.59Zm7.13-1.44h-.35l-.52,0Zm2.58-.28v-.36l-1.15.15v.13Zm50.52-9.32v.14h1.68v-.14Zm-3.18.31a2.28,2.28,0,0,1,0,.26l1.14-.1,0-.26ZM565.77,76.31l.12.1.41-.51-.11-.08Zm-7.62,7.14L558,83.3l-.79.74.25.18Zm3,12.06-.17-.25-1.13.72.21.31Zm5.06-3.17s-.07-.07-.21-.19l-1.23.8.08.16,1.15-.24c0-.13.08-.27.13-.4S566.22,92.38,566.22,92.34Zm20.39,6.2-1.31.7.16.33C585.91,99.36,586.5,99.39,586.61,98.54Zm5.19-1.41-.12-.4-1.73.55.15.48Zm2.89-1.2-.13-.44a2.71,2.71,0,0,0-1.56.59l.13.37Zm1.09-36.39,1.75-.49-.06-.33h-2l1.06-1c-.92.06-1.46.07-2,.12-1.11.11-2.23.21-3.34.34a28.77,28.77,0,0,0-3.49.52c-1.06.27-1.9-.45-3-.38a9.32,9.32,0,0,0-2.69.34c.08.3.13.5.19.77-1.31.23-2.57.43-3.84.67-.37.07-1,.25-1,.37,0,.62-.58,1-.58,1.49A39.39,39.39,0,0,1,576,68.3a4,4,0,0,1-2,3l-.24-.89-2,1.81-2.23,2c-.58.52-1.19,1-1.74,1.57-.33.32.07.9-.53,1.25A13.63,13.63,0,0,0,563.53,80a1.5,1.5,0,0,1-.4.3,7.39,7.39,0,0,0-3,2.56A6.32,6.32,0,0,1,558.92,84a1,1,0,0,0,1,0c1.56-1,3.11-2,4.66-3,4.42-2.86,8.84-5.73,13.28-8.57,3.82-2.44,7.62-4.94,11.53-7.23,2.42-1.43,4.22-3.61,6.6-5.06C596,60.11,595.84,59.75,595.78,59.54Zm4.38,33.77c-1-.14-1-.13-1.44.46l1.39-.26A1.46,1.46,0,0,0,600.16,93.31Zm1.32-.78c-1-.06-1-.06-1.24.7Zm39.61,5.35-.08-.24-2.23.69.08.27Zm6.72-1.55c-1.46-.53-2.74-.12-4.21,1Zm52.48-16.87-2,.74a4.1,4.1,0,0,0,1.87.06C700.27,80.25,700.26,79.74,700.29,79.46Zm3.18-.49-3.18.49C701.43,79.71,702.6,80.21,703.47,79ZM627.2,80.7l-.83.36.06.16.86-.29ZM81.66,122.53a8.25,8.25,0,0,1-1.58.9,3.38,3.38,0,0,1-1.15,0,3.32,3.32,0,0,1-2.31,1c.38.33.63.88,1.34.53,1.76-.88,3.55-1.71,5.33-2.56A1.4,1.4,0,0,0,81.66,122.53Zm60-8.31H143v0l-1.32-.09S141.65,114.17,141.62,114.22ZM596.07,25.85c-1.3.14-2.73-.55-3.93.37h8A7.62,7.62,0,0,0,596.07,25.85Zm-17.9,1.64,3.51-.45c0-.11,0-.23,0-.34l-3.56.47Zm-37.73,98.08c-2.28-.54-3.12-.5-4.19.26ZM346.2,146.11l.82,0a2.09,2.09,0,0,0,0-.25h-.83Zm223.5-18.85,1.31-.08C570.54,127,570,126.65,569.7,127.26Zm-40.65-1.07Zm50.37-41.58c.77-.47,1.47-1,2.2-1.58l-1.44.55-1.47.55C578.6,84.8,579.13,84.79,579.42,84.61ZM530.56,125.8c-.92-.48-1.12.19-1.51.39h0Zm14.65-59.23-.46-.11A1.45,1.45,0,0,0,545.21,66.57ZM157.73,156.33c-2,.93-4.12,1.73-6.13,2.72-.65.32-1.09,1-1.88,1.26a1.75,1.75,0,0,1-1.55,0,2.27,2.27,0,0,0-2.59.92h-3.85l.37.82c-1.13-.53-2.6,0-3.37-1.26l-.16.42a34.87,34.87,0,0,1-2.93-4.08,11.06,11.06,0,0,1-1.3-5.81c.07-1,0-2.07,0-3.11l-.37-.18a8.44,8.44,0,0,0-.91.75c-.72.79-1.44,1.54-2.79.92l.05.81c.06.55-.89-.15-.73.59-.4.07-.81.12-1.2.22-.86.24-1,.81-.57,1.47l-3,2.48-.2-.14.78-1.17c-1.06.62-2.44.88-2.55,2.46,0,.31-.6.63-1,.83a21.2,21.2,0,0,0-2.57,1.82,4.83,4.83,0,0,1-.85.78c-1.31.88-2.32,2.25-4.17,2.27-.64,0-1.28.6-2.08,1l.51.58c-1,1.38-2.56,1.39-4,1.7l.15.95-3.53.76a1.31,1.31,0,0,1-1,1.63c-1.26.51-2.4,1.33-3.62,1.95a2.26,2.26,0,0,1-1.11.1c-.9,0-.9,0-2,.73l1.39-.12,0,.33-2.14.17a6.27,6.27,0,0,1-3.57,2.14c-1.4.33-2.81.63-4.2,1a5,5,0,0,0-1.14.69,1.66,1.66,0,0,1-2.13-.13,4.44,4.44,0,0,1-1.94-3.11,6.12,6.12,0,0,0-.76-2.21c-1.3-2.41-1-4.88-.3-7.34a40.51,40.51,0,0,1,3.91-8.36,65.93,65.93,0,0,1,6.53-8.93c.7-.85,1.12-1.92,1.82-2.77a74.07,74.07,0,0,1,16.21-14.27,108.64,108.64,0,0,1,12.37-7.47c1.34-.65,2.67-1.36,4.06-1.88.92-.34,2-.33,2.91-.58a9.13,9.13,0,0,0,5-2.58,3,3,0,0,1,1.49-.74,19.55,19.55,0,0,1,6.33-.68c.36,0,.85-.23,1.09-.07a18,18,0,0,1,2.58,2.11,10.81,10.81,0,0,1,1.29,1.95,6.36,6.36,0,0,1,1,3.33c0,1.48.26,2.95.43,4.6.78-.54,1.55-1,2.21-1.53a85,85,0,0,1,10.75-7.2c3-1.81,6-3.49,9-5.22,1.21-.69,2.46-1.33,3.67-2,.76-.45,1.47-1,2.22-1.48a5.26,5.26,0,0,1,1.46-.77c.38-.1,1.08,0,1.22.23.74,1.29,2.15,2.23,2.12,3.92a1.6,1.6,0,0,0,.93,1.48,5.65,5.65,0,0,0,.6.31,9,9,0,0,1,5.21,6.66,3.11,3.11,0,0,0,1.68-.88,25.42,25.42,0,0,0,2.06-2.22c2-2.37,4-4.7,6-7.11,1-1.26,1.94-2.6,2.95-3.88,1.22-1.53,2.45-3,3.73-4.53,2.4-2.8,4.76-5.63,7.28-8.33,3.69-4,7.47-7.89,11.28-11.75q6.09-6.16,12.31-12.19c2.9-2.81,5.88-5.53,8.86-8.24,3.27-3,6.57-5.91,9.88-8.84,1.87-1.64,3.67-1.07,5,1.06A13.57,13.57,0,0,1,261.62,57a2.65,2.65,0,0,1-.22,2.78c.33.41,1.31.44.52,1.24-.11.1.1.54.19.81.36,1.21.3,1.39-.65,2.08a16.32,16.32,0,0,0-3.63,4.85c-.05.14-.11.33-.22.39-2.25,1.14-3.31,3.41-4.88,5.18-1.74,2-3.68,3.73-5.34,5.77-2.22,2.72-4.85,2.13-4.18,1.59a6.32,6.32,0,0,0,1.89-2.21,11.77,11.77,0,0,1,1.61-1.93c0-.37.07-1,.12-1.83a2.18,2.18,0,0,0-.64.25c-1.31,1.18-2.63,2.34-3.88,3.58-1,1-1.84,2.07-2.81,3.06a5.91,5.91,0,0,1-1.28,1c-1.26.73-2.45,1.54-2.76,2.69-.84.57-1.49,1-2.07,1.42a35.45,35.45,0,0,0-4.26,4.23c-1.5,1.71-3.21,3.25-4.86,4.82-.17.16-.62,0-1,0a3.23,3.23,0,0,1-2.62,2.46,1.78,1.78,0,0,1-.69,2.12,3.67,3.67,0,0,0-1.54,2.31c0,.44-.71.81-1.07,1.24-.6.72-1.18,1.45-1.77,2.18s-5.07,5.84-6.73,8.1c-1.35,1.85-2.8,3.63-4.27,5.38a51.06,51.06,0,0,0-8.25,12.35c-.11.25-.18.51-.42,1.19,1-.74,1.64-1.25,2.31-1.74l7.5-5.5a1.41,1.41,0,0,1,.58-.7c.84-.48,1.64-1,2.45-1.5,1-.74,2-1.48,3-2.21q6.49-4.64,13.11-9.1l.51-.33,1.14-.79c2.77-2.05,5.45-4.22,8.11-6.4q4.62-3.8,9.15-7.68c1.81-1.56,3.54-3.22,5.33-4.79s-.67.56,1.93-1.68c.79-.69,1.56-1.41,2.32-2.13,2.55-2.42,3.58-2.13,6.2-4.4a9.36,9.36,0,0,1,4.2-1.9,35,35,0,0,1,3,2.25,9.63,9.63,0,0,1,2.13,3.34,15,15,0,0,1,.65,2.88,6.16,6.16,0,0,1-.12,1.65c0,.14-.18.35-.28.36-1,0-1.31,1-2,1.42-.14.08-.35.19-.36.3a1.53,1.53,0,0,1-.06.4c.38-.11.62-.12.49.11l-.33.52c-.06.91.41.3-.54.57l.66-.8c-.65.54-1.48.91-1.69,1.8a.68.68,0,0,1-.28.38c-1.32.65-1,.27-1.59,1.5-.31.68-.81,1.27-1.19,1.92a29.71,29.71,0,0,0-2.08,3.73,23.67,23.67,0,0,1-1.89,3.55,2.52,2.52,0,0,0-.22,1.4,1,1,0,0,1-.34,1,3.12,3.12,0,0,0-1.17,2.4.82.82,0,0,1-.16.55,1.18,1.18,0,0,0-.18,1.67,1.15,1.15,0,0,0-.85,1.29,2.52,2.52,0,0,1-.8,1.55.81.81,0,0,0-.25.81c2.1-1.64,4.46-3.46,7.13-5.5,4.27-3.26,32.49-23.8,36.68-27.18,1.83-1.48,6-1.87,7.5.84A7.1,7.1,0,0,0,307,89.78c.81.75-1,.85-1,1.65-.07,1.49-.44.6-.15,2l-.19.9a27.47,27.47,0,0,1-4.21,3.31c-1.68.87-11.38,11.36-13.41,15-2.74,5-2.31,6.25-2.48,6.51,1.39-1,15-10.28,27.81-20.2a3,3,0,0,1,.53-.74c3.66-3.3,5.2-3.76,8.9-7a57.94,57.94,0,0,1,7.4-5.75c.92-.56,2.45-2.1,3.32-2.74.21-.15.39-.33.6-.47,2-1.25,3.13-1.17,4.83.44a6,6,0,0,1,1.93,2.77v0c.71,2.67.57,2.32.4,2.41-2.87,1.65-8.5,7.43-8.83,7.81-1.53,1.75-.45.21-3,3.06a26.85,26.85,0,0,0-1.79,2.31c-1.36,2-1.22,2.24-2.94,5-.28.44-.38.35-.28,1.45.52-.32,1-.59,1.47-.91C331.26,103,342,96.37,347.22,92.38c3.06-2.35,6-4.79,9.08-7.18,2.37-1.87,4.77-3.7,7.11-5.59,1.95-1.58,1.24-.21,3.16-1.82.49-.42,1-.78,1.53-1.2a2,2,0,0,1,2.58,0c.65.52,1.27,1,1.84,1.54a3.87,3.87,0,0,1,1,1.36c.45,1.15-.54,3.18-.14,4.38.24.72-1.65,2.57-2.24,3.07-6.45,5.5-13.16,11.53-17.23,19,.3.58,17.2-10.57,21.46-13.78C381,87.22,388,81.68,393.54,76.84,398,73,404.68,66.37,409.12,62.59a18.68,18.68,0,0,1,1.9-1.41q2.3-2.41,4.7-4.74a4.87,4.87,0,0,0-2.24.2,8.47,8.47,0,0,1-2.94.48,4.55,4.55,0,0,0-1.93.27C405.26,58.71,401.72,59,398.3,60c-1.2.34-2.44.54-3.63.94a14.72,14.72,0,0,0-2.17,1.14A12.64,12.64,0,0,1,389,59a4.58,4.58,0,0,1-1.22-2.85c-.11-2.21,1.6-5.73,3.87-6.36a108.05,108.05,0,0,1,12.88-2.72c1.23-.19,2.43-.6,3.64-.87,2.76-.59,5.52-1.19,8.29-1.71,3.67-.7,7.35-1.39,11-2,.41-.06,2-.37,4.08-.79,3.05-2.94,5.49-5.89,8.47-8.69,2.39-2.24,4.94-4.33,7.52-6.37,2.26-1.79,4.73-1.3,7.09,1,1.6,1.59,1.48,1.87,1.27,3.87-.05.55-2,2-2.55,2.42-1.32,1-3.2,1.94-3.29,2.43s-1,1.23-2,1.94c.57-.12.94-.19,1.05-.2a33.19,33.19,0,0,0,4.8-1c5.49-1.62,12.71-1.76,18.58-3.06,4.11-.91,8-1,12.17-1.64,2.78-.4,5.58-.58,8.37-.8a16.32,16.32,0,0,1,5,.87c.88.22,1.63,1.61,2.33,2.16a2.59,2.59,0,0,1,.79,2.51,10,10,0,0,1-.35,1.3A5.51,5.51,0,0,1,498.83,42c-.46.36-.86.81-1.23,1.16-1.07-.1-.07-2.17-1.12-2.27-.09-.28-.21-.61-.37-1.09a9,9,0,0,0-1.79-.23c-1.23.07-2.46.21-3.69.4a2.58,2.58,0,0,1-2.52-.59c-1.52,1.47-4.63,1.78-6.4,2.08a.89.89,0,0,1-.37.1,7.94,7.94,0,0,0-1.65-.29,15.76,15.76,0,0,0-1.69.46,3.32,3.32,0,0,1-.94-.08l-.58.12-1,.35c-.54,0-1.1-.18-1.55.33a11.25,11.25,0,0,0-3.25.46c-.38.06-.76.16-1.14.24h.09c-3.9.62-9,1.68-12.86,2.65A3.94,3.94,0,0,0,453.69,47a1.52,1.52,0,0,1-2.1-.06,2.74,2.74,0,0,1-1.72.32,1.19,1.19,0,0,0-.67.83l0,0c-.41.17-.86.52-1.23.48a4.54,4.54,0,0,0-2.27.48A1.57,1.57,0,0,1,444,49a1.18,1.18,0,0,0-1.6.14A9.08,9.08,0,0,1,438.29,51a21,21,0,0,0-4.52,2.13l-.11.1a.11.11,0,0,1-.06.07l-.06,0c-.72.65-1.41,1.33-2.11,2l-.84.91a10.75,10.75,0,0,1-2.51,2.48c-.33.21-.37.87-.53,1.34-.54.13-1,.26-1.34.38l-1.63,1.82a.92.92,0,0,1-.25.35l-.4.37c-1.19,1.31-2.41,2.59-3.64,3.86a1.86,1.86,0,0,1-.8.55,4.73,4.73,0,0,0-3.15,3,7.82,7.82,0,0,1-.43.81c-.24.4-.51.76-1.08.68a.67.67,0,0,0-.44.3c.27,1.16-.8,1.63-1.41,2.58,0-.44,0-.65,0-1l-.14.1a1.56,1.56,0,0,1-.32.54,4.34,4.34,0,0,1-1.21,1.06,2,2,0,0,0-.14.34,19.12,19.12,0,0,1-3.34,3,1.66,1.66,0,0,1-1.17.92l-.82.64c0,.14-.62,1.29-2.64,2.54-1.45.89-1.25,3.39-2.67,4.33-.82.54-1.68,1-2.72,1.64l.83.42-.13.09c-.73.54-3.41,5.1-3.82,5.92-1.76,3.55-4.21,8.48-3.55,8.24,2.2-.81,3.65-1.43,6.75-2.67l5-2c1.16-.45,2.81-1,3.59-1.33s3-.92,3.66-1.17c2.23-.84,2.38-1.31,4-2,.25-.11-.46,0-.22-.07,2.26-1,1.66-1,3.41-1.92.85-.42,3.41-4.19,6.33-6.91,5.74-5.33,10.59-10.67,17-15.17a22.6,22.6,0,0,1,12.76-3.75c6.74,0,7.27,7.18,6.85,10.29-.11.76,1.62,4.67-2.61,8-3.61,2.81-7.73,3.4-11.5,6-2.26,1.56-10.24,5-14.74,7-2.26,2.5,7.19-.69,9.24-1.33,2.36-.74,5.63-2,8-2.67,1.29-.37,5-1.62,6.28-1.94,2.73-.67,5.44-1.45,8.17-2.14,3.81-1,7.62-1.86,11.43-2.79a17.49,17.49,0,0,0,3-.48,4.8,4.8,0,0,1,.64-.12l.19,0,0,0,.15,0c2,0,1.9-.46,3.87-.68,1.78-.19,3.46-.89,5.25-.88.24,0,5.55-.52,5.57-.44,2.58-.32-2.73,2.61-3.15,2.83-.77.41-1.21,1.57-2.42,1.92a9.12,9.12,0,0,0-3.06,1.24A11.49,11.49,0,0,1,480.73,92c-1.29.29-3.14.77-5.73,1.55l-2.21.68-2.93.82c-1.69.48-3.35,1-5,1.62a5.74,5.74,0,0,0-1.05.59,3.93,3.93,0,0,1-1,.58c-1.35.29-1.77,1.33-3.55,1.85,0,0-1.79.35-2.6.44a30.57,30.57,0,0,0-4.18.49c-1.19.31-5.21,3.32-6.34,3.85l0,0a22.85,22.85,0,0,0-3.73,1.24c0,.11-1.41.25-1.38.36-1.21.39-.93.8-2.15,1.14-4.92,1.37-.87-.46-5.63,1.38-.81.31-4.07,2.34-4.5,2.5-1.21.44-2,.5-2.75-.25-.33-.33-1.86.49-2.62.13-2.63-1.26-6.51-6.6-6.09-7-2.5,2-1.56.32-3.46,1.06-2.55,1-1.7,1.46-4.19,2.35a2.51,2.51,0,0,1-1.33.11,4.85,4.85,0,0,0-1.06-.12l-.09,0,0,0c-.83,0-2,1.67-3,2.31,1-.24,2.38-1.88,3.4-2.11,0,.1.07.2.1.31-.9.35-2.11,2.27-3.05,2.43-2.65.44-8,2.58-10.63,3a4.63,4.63,0,0,0-2.32,2.21,10.25,10.25,0,0,1-2.42.65c-1.42-.83-1.88,1-3.2,0a21.71,21.71,0,0,1-5.18-6.39c-.52-1.2-1.4-3.53-1.4-3.53s1.83-3.7,4.33-9c-3.39,2.52-23.39,17.83-24.59,18.8a10.59,10.59,0,0,1-1,.63,12.79,12.79,0,0,0-2.88,2.25,7.93,7.93,0,0,1-1.36,1c-.73.52-1.48,1-2.19,1.58l-.14.11a3.77,3.77,0,0,1-3.46.61,1.59,1.59,0,0,0-.39-.07c-.31,0-.61-.43-.9-.67l-1.61-1.38a5.3,5.3,0,0,1-1.23-1.17c-.56-1-1.4-1.94-1.45-3.22,0-.88-.49-4-.41-5.08,0-.46.74-.88.18-1.55-1.46.9-11.26,6.8-13.51,8.49-1.25.94-1.1,1.14-2.62,1.79-1.07.47-1.41,1.59-2.36,2.3-.71.53-2.95,2-3.65,2.58l-2.08,1.62a3.58,3.58,0,0,1-4.59-.24l-.07-.08a5.37,5.37,0,0,0-1.21-1,7.27,7.27,0,0,1-2.17-2.45,3.61,3.61,0,0,1-.31-3.8c1-1.89,0-3.48.91-5.2-6.5,5.38-13.13,10.89-13.48,11.14s.7-.5.26-.35c-.83.37-1.9.39-2.12,1.66-.07.11-.13.2-.19.31-5.34,3.44-11.78,8.51-14.79,7.42-.06,0-4.08-3-4.12-3.05a11.28,11.28,0,0,1-2.36-3.48,3.57,3.57,0,0,1-.24-1.3c-.06-2.6,1.54-9.1,2.15-9.95a7.44,7.44,0,0,0,1.46-1.68c-3.08,3-10.43,8.92-11.62,9.76a1.86,1.86,0,0,0-.58.57,2.62,2.62,0,0,1-2.14,1.24c-.84.12-2,3-2.46,3.85a1.36,1.36,0,0,0-1.06.8c-.15.38-.72.59-1.26.71l.57-.56c-.11-.06-.24-.18-.3-.16a10.45,10.45,0,0,0-2.49,1,6.42,6.42,0,0,1-2.17,1.2c-.11,0-.27.15-.26.22,0,.81-.75.85-1.21,1a7.75,7.75,0,0,0-4.39,2.55,2.52,2.52,0,0,1-.47.38,2,2,0,0,1-.29.11l1-1.41c-1.88.24-2.81,1.56-4,2.55.92.06,1.61-.48,2.62-.82a5.88,5.88,0,0,1-4.34,2.09,18.4,18.4,0,0,1-4.57-.1,10.41,10.41,0,0,1-4.47-2.16c-1.2-.87-2.28-1.9-3.47-2.79a39.76,39.76,0,0,1-5.79-5.51,1.71,1.71,0,0,1-.13-.23c-1,.75-2,1.51-3,2.23-2.13,1.52-4.1,3.27-6.58,4.26a2.54,2.54,0,0,0-1.23.93,1.1,1.1,0,0,1-1.27.64c-.37-.05-.89.1-.59.83.09.22-.35.75-.65,1-.87.75-1.78,1.44-2.69,2.14l-5.4,4.12-3.83,3-.36.19c-2.59.86-5.11,2.33-8,1.42a3.39,3.39,0,0,1-2.17-1.46,7.81,7.81,0,0,0-2.93-3.49c-.3-2.07-.61-4.15-1-6.48-2.7,3.46-6,5.86-9.16,8.29A90.78,90.78,0,0,1,157.73,156.33ZM432,88.42c5.19-2.29,14.16-7.42,17.92-9.17,2.5-.75-.27-2.3-3.26-1a33.51,33.51,0,0,0-3,1.5c-1.83,1.09-4.09,1.74-6,3.29A40.59,40.59,0,0,0,432,88.42Zm-22.79,17.94h0l0,0,.18,0,.57-.23-.73.16,1-.25c.57-.23-.08-.65-1,.25ZM291.63,126.68c.92-.14,1.91-.15,2.52-.94l-.17-.35Zm-34.84,2.86.13.33,1.6-.8C257.68,129,257.29,129.39,256.79,129.54Zm8.68-33.3.23-.08S265.57,96.17,265.47,96.24Zm-.39.14a.21.21,0,0,1,0-.16C264.8,96.42,264.86,96.44,265.08,96.38Zm-34.22,26.1c.07.09.1.14.13.15.46.22.91.46,1.39.64a18.7,18.7,0,0,0,9,1.57,3.37,3.37,0,0,0,3.15-2.25c1.3-3.39,2.64-6.75,3.88-10.16.77-2.12,1.39-4.3,2.17-6.71-.34.19-.53.24-.59.35-.67,1.17-1.88,1.88-2.77,2.86a1.4,1.4,0,0,1-.71.46c-.63.1-.86.55-1.17,1a12.34,12.34,0,0,1-3.3,2.79c-.22.15-.61.07-.91.1-.3,1.26-.42,1.36-1.93,1.7a2,2,0,0,1-1.6,1.85,2,2,0,0,0-.77.53c-1,1.08-1.9,2.22-3.64,2.24-.14,0-.27.17-.39.28s0,.13-.05.2l.73-.13a16.92,16.92,0,0,0-2.59,2.46Zm-101,17.16c-1.07-.48-2.09-.89-3.06-1.39a4.34,4.34,0,0,1-2.51-2.37,26,26,0,0,1-.56-3.35c-.41.21-.75.37-1.08.55a81.1,81.1,0,0,0-13.39,9.27c-1.57,1.32-3.06,2.75-4.53,4.18-.83.82-1.51,1.79-2.35,2.61-.66.65-1.55,1.07-2.14,1.77a17.55,17.55,0,0,0-1.39,2.44,11.9,11.9,0,0,1-.91,1.32,31.79,31.79,0,0,0-3.86,6,1.62,1.62,0,0,0,2,.33,75.12,75.12,0,0,0,15.23-7.77q2.89-1.84,5.84-3.65c1.33-.82,2.71-1.56,4-2.4,3.05-1.93,5.57-4.51,8.25-6.9A2.44,2.44,0,0,0,129.87,139.64Zm9.65-12.51c-2.42-1.28-6.19.86-7,4,1.36,0,2.59,0,3.81,0,.31,0,.76-.07.9-.27A11.22,11.22,0,0,0,139.52,127.13Zm21.88,26.62-.13-.23-1.17.62.15.25Zm6.44-3.57c-.07-.11-.13-.22-.19-.33l-2.39,1.34.16.28Zm6.37-23c2.49,0,4.5-1.11,6.57-1.88-.09-1.91-.12-1.89-1.62-2.07a3,3,0,0,0-3.09,1.12C175.43,125.22,174.31,125.75,174.21,127.19Zm-22.35,31.13-.12-.44-2.05.71.09.29Zm4.75-12.95c5.23-2.26,10-5.41,14.75-8.45a16.89,16.89,0,0,0,1.7-1.38c-1.61-.57-3-1-4.41-1.56a4,4,0,0,1-2.68-4.07v-2.53a25.66,25.66,0,0,0-7.13,4.9,11,11,0,0,1-1.67,1.36,13.49,13.49,0,0,0-1.37,1c-2,2-4,3.93-5.94,5.94s-2.74,4.67-3.93,7.11c0,.06.08.2.23.53a34.38,34.38,0,0,0,4.81-.67A44.21,44.21,0,0,0,156.61,145.37Zm509.14-54-.06.06.09,0,.06,0-.09,0Zm-63.74,1,1.38-.7-.19-.39-1.2.6c0,.07-.09.13-.13.21Zm2.22-1.14,2.48-1.13a3.83,3.83,0,0,0-.8-.23l-1.38.73C604.37,90.69,604.23,90.84,604.23,91.24Zm-295.14,59.2h0l.08,0Zm248-119.89h-.19l0,0ZM535.31,67.91h.06l0,0Zm25-38.24-3.24.88A8.27,8.27,0,0,0,560.4,30ZM535.37,67.91l.19-.06-.24,0ZM309.09,150.44l0,0,.12,0ZM564.25,14.09l-1.13.08c0,.49.08,1,.14,1.59C564.25,15.34,564.66,14.89,564.25,14.09ZM665.69,91.47l-2.15.46A1.8,1.8,0,0,0,665.69,91.47Zm-356.45,59,3.74-.32A5.4,5.4,0,0,0,309.24,150.43Zm152.44-24.26-.87-.14A2.93,2.93,0,0,0,461.68,126.17ZM607.75,90c-.06-.07-.11-.15-.17-.23l-.87.39a3.84,3.84,0,0,1,.35.18C607.46,90.51,607.57,90.16,607.75,90ZM165,179.88l3.32-1A3,3,0,0,0,165,179.88Zm151.38-30.57h0l-.07,0h.09l3.08-.09h0v0h0Zm-2.08.61,2-.59-2.06.3Zm5.38-1c-.08,0-.13.22-.2.34,3.38,0,6.62-1,10.09-1.25-.23-.11-.32-.19-.4-.18Q324.37,148.32,319.63,148.88Zm11.78-1a8.27,8.27,0,0,0,6-1.1l-6.07.73Zm336-57-1.53.63C666.45,91.54,667.05,91.62,667.37,90.8ZM343.86,146.07l.06.26,1.24-.23-.08-.29ZM622,83.07l-1.51.44C621.38,83.7,621.41,83.71,622,83.07Zm-1.56.43v0h0Zm0,0-1.57,1C619.67,84.61,620.3,84.38,620.43,83.54Zm0,0,0,0,0,0S620.43,83.52,620.43,83.54ZM396.61,140.88l0,.25,2.41-.21-.06-.36Zm-43.17,4.74c1.87.21,3.52-.8,5.34-.85A6.94,6.94,0,0,0,353.44,145.62Zm10-1.61,1,.26.07-.34-1-.13Zm-10.76,1-1.55.26C351.54,145.22,352.09,145.82,352.64,145Zm20.14-1.78H370.2C371.26,143.91,372.05,143.28,372.78,143.19Z" transform="translate(-14.13 -9.99)"/></svg>