<?xml version="1.0" encoding="utf-8"?>
<!-- Generator: Adobe Illustrator 28.1.0, SVG Export Plug-In . SVG Version: 6.00 Build 0)  -->
<svg version="1.1" id="Layer_1" xmlns="http://www.w3.org/2000/svg" xmlns:xlink="http://www.w3.org/1999/xlink" x="0px" y="0px"
	 viewBox="0 0 607 113" style="enable-background:new 0 0 607 113;" xml:space="preserve">
<style type="text/css">
	.st0{fill-rule:evenodd;clip-rule:evenodd;}
</style>
<path d="M1,44.8l-0.9,4h12.2v40.7l4-0.5V48.8H28v-4H1z M43.4,55.9c-3.9,0-7.6,1.8-9.3,4.7h-0.1V42.4l-3.7,0.8v46.4l3.7-0.5V68.1
	c0-6.2,6-8.8,9.6-8.8c5.2,0,8.2,2.5,8.2,7.2v23.1l3.7-0.5V67.3C55.4,58.3,49.6,55.9,43.4,55.9z M63.5,78.5l24.6-15.1
	c-1.9-3.7-6.8-7.5-12.8-7.5c-9.7,0-16.9,6.8-16.9,16.5c0,9.8,6.8,17.3,16.8,17.3c4,0,9.1-1.7,12-4.6v-4.5c-3.5,2.9-7.5,5.3-12.2,5.3
	C68.9,86,64.7,81.5,63.5,78.5z M62.4,75.2c-0.2-0.8-0.3-1.8-0.3-2.6c0-7.3,5.5-12.9,13.1-12.9c3,0,5.4,1.2,6.9,2.8L62.4,75.2z
	 M138,43.8l-17.3,36.3l-16.4-36.3l-4.2,1L120.7,90h0.1l21.4-45.2L138,43.8z M151.4,55.9c-3.2,0-6.4,0.7-9.4,1.9l-1.2,4.4
	c2.8-1,6.3-2.6,9.4-2.6c4.3,0,7.6,2.3,7.6,5V70c-2.2-1.9-5.3-3.7-8.5-3.7c-7.2,0-11.9,5.1-11.9,12.2c0,7,5.7,11.3,12.3,11.3
	c3.8,0,6.6-1.7,7.9-4.1h0.1v4.1l3.7-0.8V64.1C161.5,58.5,156.5,55.9,151.4,55.9z M150,86c-4.3,0-8.8-2.8-8.8-7.5
	c0-5.2,3.7-8.5,8.7-8.5c4.6,0,7.9,3.3,7.9,8C157.8,82.6,154.6,86,150,86z M181.1,86c-7.2,0-12.6-6.1-12.6-13.1
	c0-7.7,5.7-13.3,13.5-13.3c4.1,0,7,1.4,9,3.1l2.3-3c-3.2-2.2-7.2-3.8-11.1-3.8c-9.1,0-17.4,6.7-17.4,16.6c0,10.2,7.3,17.3,16.7,17.3
	c4.2,0,9.1-1.7,11.6-4.1l-2.3-2.9C187.9,84.9,184.6,86.1,181.1,86z M208.4,55.9c-3.2,0-6.4,0.7-9.4,1.9l-1.2,4.4
	c2.8-1,6.3-2.6,9.4-2.6c4.3,0,7.6,2.3,7.6,5V70c-2.2-1.9-5.3-3.7-8.5-3.7c-7.2,0-11.9,5.1-11.9,12.2c0,7,5.7,11.3,12.3,11.3
	c3.8,0,6.6-1.7,7.9-4.1h0.1v4.1l3.7-0.8V64.1C218.5,58.5,213.4,55.9,208.4,55.9z M207,86c-4.3,0-8.8-2.8-8.8-7.5
	c0-5.2,3.7-8.5,8.7-8.5c4.6,0,7.9,3.3,7.9,8C214.8,82.6,211.5,86,207,86z M234.2,85.8c-4.1,0-5.8-1.5-5.8-5.4v-20h8.8v-3.7h-8.8v-10
	l-3.7,2.1v7.9h-3.4l-0.9,3.7h4.3v19.9c0,5.8,3.3,9.2,9.2,9.2c1.2,0,2.3-0.2,3.4-0.4v-3.5C236.2,85.8,235.3,85.8,234.2,85.8z
	 M241.3,56.7v33.1l3.7-0.8V55.9L241.3,56.7z M242.9,42.4l-3,3.3l3,3.4l3-3.4L242.9,42.4z M266.3,55.9c-9.5,0-16.5,8.2-16.5,16.9
	c0,8.7,7,16.9,16.5,16.9c9.5,0,16.5-8.2,16.5-16.9C282.9,64.1,275.8,55.9,266.3,55.9z M266.3,86c-7.3,0-12.8-6.3-12.8-13.2
	c0-6.9,5.5-13.2,12.8-13.2c7.3,0,12.8,6.3,12.8,13.2C279.1,79.7,273.6,86,266.3,86z M298.9,55.9c-3.9,0-7.6,2.4-9.3,5.3h-0.1v-5.3
	l-3.7,0.8v32.9l3.7-0.5V68.1c0-6.2,6.1-8.8,9.6-8.8c5.1,0,8.2,2.5,8.2,7.2v23.1L311,89V67.3C311,58.3,305.2,55.9,298.9,55.9z
	 M342.2,68.5c3.7-0.6,6.9-2.8,6.9-7.6c0-5.1-2.9-7.7-9.1-7.7h-10.4v27.3h3.5V68.6h5.4l7.5,11.9h4.1L342.2,68.5z M333.1,65.5v-9.2
	h6.2c3.1,0,6.3,0.8,6.3,4.5c0,3-1.4,4.7-6.2,4.7H333.1z M342.2,68.5c3.7-0.6,6.9-2.8,6.9-7.6c0-5.1-2.9-7.7-9.1-7.7h-10.4v27.3h3.5
	V68.6h5.4l7.5,11.9h4.1L342.2,68.5z M333.1,65.5v-9.2h6.2c3.1,0,6.3,0.8,6.3,4.5c0,3-1.4,4.7-6.2,4.7H333.1z M342.2,68.5
	c3.7-0.6,6.9-2.8,6.9-7.6c0-5.1-2.9-7.7-9.1-7.7h-10.4v27.3h3.5V68.6h5.4l7.5,11.9h4.1L342.2,68.5z M333.1,65.5v-9.2h6.2
	c3.1,0,6.3,0.8,6.3,4.5c0,3-1.4,4.7-6.2,4.7H333.1z M342.2,68.5c3.7-0.6,6.9-2.8,6.9-7.6c0-5.1-2.9-7.7-9.1-7.7h-10.4v27.3h3.5V68.6
	h5.4l7.5,11.9h4.1L342.2,68.5z M333.1,65.5v-9.2h6.2c3.1,0,6.3,0.8,6.3,4.5c0,3-1.4,4.7-6.2,4.7H333.1z M338.3,43.8
	C325.6,43.8,315,54,315,66.8c0,12.9,10.6,23.2,23.3,23.2c12.6,0,23.2-10.2,23.2-23.2C361.5,54,351,43.8,338.3,43.8z M338.3,86.7
	c-11.1,0-19.6-8.5-19.6-19.8c0-11.1,8.4-19.7,19.6-19.7c11.1,0,19.5,8.6,19.5,19.7C357.8,78.2,349.4,86.7,338.3,86.7z M349.1,60.9
	c0-5.1-2.9-7.7-9.1-7.7h-10.4v27.3h3.5V68.6h5.4l7.5,11.9h4.1l-7.9-12C346,67.9,349.1,65.8,349.1,60.9z M333.1,65.5v-9.2h6.2
	c3.1,0,6.3,0.8,6.3,4.5c0,3-1.4,4.7-6.2,4.7H333.1z M342.2,68.5c3.7-0.6,6.9-2.8,6.9-7.6c0-5.1-2.9-7.7-9.1-7.7h-10.4v27.3h3.5V68.6
	h5.4l7.5,11.9h4.1L342.2,68.5z M333.1,65.5v-9.2h6.2c3.1,0,6.3,0.8,6.3,4.5c0,3-1.4,4.7-6.2,4.7H333.1z M342.2,68.5
	c3.7-0.6,6.9-2.8,6.9-7.6c0-5.1-2.9-7.7-9.1-7.7h-10.4v27.3h3.5V68.6h5.4l7.5,11.9h4.1L342.2,68.5z M333.1,65.5v-9.2h6.2
	c3.1,0,6.3,0.8,6.3,4.5c0,3-1.4,4.7-6.2,4.7H333.1z M342.2,68.5c3.7-0.6,6.9-2.8,6.9-7.6c0-5.1-2.9-7.7-9.1-7.7h-10.4v27.3h3.5V68.6
	h5.4l7.5,11.9h4.1L342.2,68.5z M333.1,65.5v-9.2h6.2c3.1,0,6.3,0.8,6.3,4.5c0,3-1.4,4.7-6.2,4.7H333.1z M342.2,68.5
	c3.7-0.6,6.9-2.8,6.9-7.6c0-5.1-2.9-7.7-9.1-7.7h-10.4v27.3h3.5V68.6h5.4l7.5,11.9h4.1L342.2,68.5z M333.1,65.5v-9.2h6.2
	c3.1,0,6.3,0.8,6.3,4.5c0,3-1.4,4.7-6.2,4.7H333.1z M390,51.1c2.8-2.1,6.3-3.3,10.2-3.3c3.8,0,7.4,1.5,9.2,3l-0.6-4.9
	c-2.5-1.2-5.5-2.1-8.3-2.1c-6.3,0-12.2,2.7-16.3,7.2L390,51.1L390,51.1z M382.3,66.9c0-5.5,2.1-10.4,5.5-13.9h-5.3
	c-2.8,3.8-4.5,8.6-4.5,13.9c0,13.1,10.5,23.1,22.5,23.1c2.8,0,5.8-0.9,8.3-2.1l0.6-4.9c-1.8,1.4-5.1,3-9.2,3
	C390,86,382.3,77.5,382.3,66.9z M415.4,43.2V51h3.7v-8.6L415.4,43.2z M415.4,53v36.8l3.7-0.8V53H415.4z M427.8,56.7v33.1l3.7-0.8
	V55.9L427.8,56.7z M455.2,55.9c-5.3,0-10.2,3-12.7,7.5h-0.1v-7.5l-3.7,0.8v44.2l3.7-0.8V83.8h0.1c3,3.8,7.5,6,12.8,6
	c9.3,0,16.7-7.3,16.7-16.8C472,63.8,464.6,55.9,455.2,55.9z M455.5,86c-7.1,0-13.1-4.9-13.1-13.3c0-7,5.8-13.1,13-13.1
	c7.8,0,13,5.8,13,13.3C468.3,79.4,463.2,86,455.5,86z M492.6,55.9c-5.3,0-10.2,3-12.7,7.5h-0.1v-7.5l-3.7,0.8v44.2l3.7-0.8V83.8h0.1
	c3,3.8,7.5,6,12.8,6c9.3,0,16.7-7.3,16.7-16.8C509.5,63.8,502,55.9,492.6,55.9z M492.9,86c-7.1,0-13.1-4.9-13.1-13.3
	c0-7,5.8-13.1,13-13.1c7.8,0,13,5.8,13,13.3C505.7,79.4,500.6,86,492.9,86z M516.2,78.5l24.6-15.1c-1.9-3.7-6.8-7.5-12.8-7.5
	c-9.7,0-16.9,6.8-16.9,16.5c0,9.8,6.8,17.3,16.7,17.3c4,0,9.2-1.7,12-4.6v-4.5c-3.5,2.9-7.5,5.3-12.2,5.3
	C521.7,86,517.5,81.5,516.2,78.5z M515.2,75.2c-0.2-0.8-0.3-1.8-0.3-2.6c0-7.3,5.5-12.9,13.1-12.9c3,0,5.4,1.2,6.9,2.8L515.2,75.2z
	 M547.2,63.1h-0.1v-7.2l-3.7,0.8v33.1l3.7-0.8V72.8c0-8.1,5-13.1,9-13.1c0.5,0,1.1,0,1.5,0.1l1.6-3.8
	C553.2,55.9,549.5,57.6,547.2,63.1z"/>
<path class="st0" d="M480,51h8v2h-8V51z"/>
<path class="st0" d="M459,51h8v2h-8V51z"/>
<path class="st0" d="M469,51h8v2h-8V51z"/>
<path class="st0" d="M448,51h8v2h-8V51z"/>
<path class="st0" d="M438,51h8v2h-8V51z"/>
<path class="st0" d="M428,51h8v2h-8V51z"/>
<rect x="419.1" y="51" class="st0" width="6.9" height="2"/>
<path class="st0" d="M408,51h7.4v2H408V51z"/>
<path class="st0" d="M398,51h8v2h-8V51z"/>
<path class="st0" d="M396,51v2h-8v-0.2c0.6-0.6,1.3-1.2,2-1.7V51H396z"/>
<path class="st0" d="M384.2,51c-0.6,0.6-1.2,1.3-1.7,2H378v-2H384.2z"/>
<path class="st0" d="M492,51h8v2h-8V51z"/>
<path class="st0" d="M504,51h7v2h-7V51z"/>
<path class="st0" d="M515,51h8v2h-8V51z"/>
<path class="st0" d="M527,51h8v2h-8V51z"/>
<path class="st0" d="M539,51h8v2h-8V51z"/>
<path class="st0" d="M517.9,33.9c-0.9-0.1-1.7,0.5-1.8,1.3c-0.2,0.9,0.4,1.7,1.2,1.9c11.3,3,22.5,6.3,33.8,9.5
	c1.7-2.5,3.4-4.9,5.1-7.4L517.9,33.9z M606.1,58.5c-1.7-6.9-9.5-8.3-15.4-9.7c-6.1-1.5-12.3-2.8-18.4-4.2c-1.4-0.4-3.2-0.9-4.9-1.5
	c-0.3,0.7-0.5,1.3-0.6,1.9c-0.1,1.2-0.6,2.3-1.4,3.2l-1.6,1.8c1.9,0.5,3.7,0.9,5.6,1.4c3.4,1.1,7.9,2.5,10.7,4.8
	c2.1,1.7,3.5,5.6,4.4,8.1c1.5,4.1,5,5.4,9.1,5.2c3.1-0.2,6.2-1,8.9-2.7C605.5,64.9,606.9,62,606.1,58.5z M601.9,60.9
	c0,0.1,0,0.2-0.1,0.3c-0.4,1.3-1.6,2.2-2.8,2.8c-1.7,0.8-3.7,1-5.6,0.6c-2.5-0.4-5.4-1.9-6.1-4.6c-0.1-0.6-0.2-1.2-0.1-1.8
	c0.7-4.2,4.8-4.6,8.3-3.8C598.8,55.3,602.6,57,601.9,60.9z"/>
<path class="st0" d="M586.3,4.2c-1.6-3.2-4.6-4.6-8.1-4.1c-3.1,0.4-6,1.8-8.5,3.7c-3.2,2.5-5.1,5.8-3.6,9.9c0.9,2.5,2.4,6.3,1.8,9
	c-0.7,3.5-3.2,7.5-5.1,10.5c-4.8,6.4-9.3,13-13.8,19.6h9.9l5.2-5.8c0.5-0.6,0.8-1.3,0.9-2.1c0.2-2.8,2.8-6.1,4.3-8.4
	c3.8-5,7.7-10,11.4-15C584.4,16.6,589.5,10.6,586.3,4.2z M561.2,46.1c-0.9,0.6-2.2,0.4-2.8-0.5c-0.6-0.9-0.4-2.2,0.5-2.8
	c0.9-0.6,2.2-0.4,2.8,0.5C562.3,44.2,562.1,45.5,561.2,46.1z M580.8,13.9c-2.2,2.8-5.6,5.2-8.8,2.4c-0.5-0.4-0.8-0.9-1.1-1.4
	c-1.2-2.5,0.1-5.5,1.7-7.4c1.2-1.4,2.9-2.6,4.7-3.1c1.2-0.3,2.8-0.4,3.9,0.3c0.1,0.1,0.2,0.1,0.3,0.2
	C584.6,7.5,582.8,11.3,580.8,13.9z"/>
</svg>
